<?xml version="1.0" encoding="utf-8" standalone="no"?>
<!DOCTYPE svg PUBLIC "-//W3C//DTD SVG 1.1//EN"
  "http://www.w3.org/Graphics/SVG/1.1/DTD/svg11.dtd">
<svg xmlns:xlink="http://www.w3.org/1999/xlink" width="507.10625pt" height="339.651875pt" viewBox="0 0 507.10625 339.651875" xmlns="http://www.w3.org/2000/svg" version="1.1">
 <metadata>
  <rdf:RDF xmlns:dc="http://purl.org/dc/elements/1.1/" xmlns:cc="http://creativecommons.org/ns#" xmlns:rdf="http://www.w3.org/1999/02/22-rdf-syntax-ns#">
   <cc:Work>
    <dc:type rdf:resource="http://purl.org/dc/dcmitype/StillImage"/>
    <dc:date>2025-04-28T07:01:44.554219</dc:date>
    <dc:format>image/svg+xml</dc:format>
    <dc:creator>
     <cc:Agent>
      <dc:title>Matplotlib v3.10.1, https://matplotlib.org/</dc:title>
     </cc:Agent>
    </dc:creator>
   </cc:Work>
  </rdf:RDF>
 </metadata>
 <defs>
  <style type="text/css">*{stroke-linejoin: round; stroke-linecap: butt}</style>
 </defs>
 <g id="figure_1">
  <g id="patch_1">
   <path d="M 0 339.651875 
L 507.10625 339.651875 
L 507.10625 0 
L 0 0 
z
" style="fill: #ffffff"/>
  </g>
  <g id="axes_1">
   <g id="patch_2">
    <path d="M 53.50625 299.9925 
L 499.90625 299.9925 
L 499.90625 22.7925 
L 53.50625 22.7925 
z
" style="fill: #ffffff"/>
   </g>
   <g id="matplotlib.axis_1">
    <g id="xtick_1">
     <g id="line2d_1">
      <path d="M 73.797159 299.9925 
L 73.797159 22.7925 
" clip-path="url(#paa0d3e5320)" style="fill: none; stroke: #dddddd; stroke-opacity: 0.5; stroke-width: 0.5; stroke-linecap: square"/>
     </g>
     <g id="line2d_2">
      <defs>
       <path id="m44aa292df3" d="M 0 0 
L 0 4 
" style="stroke: #333333; stroke-width: 0.8"/>
      </defs>
      <g>
       <use xlink:href="#m44aa292df3" x="73.797159" y="299.9925" style="fill: #333333; stroke: #333333; stroke-width: 0.8"/>
      </g>
     </g>
     <g id="text_1">
      <!-- 0 -->
      <g style="fill: #333333" transform="translate(70.865128 315.48625) scale(0.1 -0.1)">
       <defs>
        <path id="MicrosoftYaHei-30" d="M 284 2325 
Q 284 3606 709 4264 
Q 1134 4922 1941 4922 
Q 3478 4922 3478 2441 
Q 3478 1216 3045 567 
Q 2613 -81 1831 -81 
Q 1094 -81 689 534 
Q 284 1150 284 2325 
z
M 909 2353 
Q 909 425 1888 425 
Q 2850 425 2850 2384 
Q 2850 4413 1906 4413 
Q 909 4413 909 2353 
z
" transform="scale(0.015625)"/>
       </defs>
       <use xlink:href="#MicrosoftYaHei-30"/>
      </g>
     </g>
    </g>
    <g id="xtick_2">
     <g id="line2d_3">
      <path d="M 154.960795 299.9925 
L 154.960795 22.7925 
" clip-path="url(#paa0d3e5320)" style="fill: none; stroke: #dddddd; stroke-opacity: 0.5; stroke-width: 0.5; stroke-linecap: square"/>
     </g>
     <g id="line2d_4">
      <g>
       <use xlink:href="#m44aa292df3" x="154.960795" y="299.9925" style="fill: #333333; stroke: #333333; stroke-width: 0.8"/>
      </g>
     </g>
     <g id="text_2">
      <!-- 2 -->
      <g style="fill: #333333" transform="translate(152.028764 315.48625) scale(0.1 -0.1)">
       <defs>
        <path id="MicrosoftYaHei-32" d="M 2666 3572 
Q 2666 3963 2419 4186 
Q 2172 4409 1747 4409 
Q 1447 4409 1140 4256 
Q 834 4103 569 3819 
L 569 4413 
Q 806 4659 1107 4790 
Q 1409 4922 1816 4922 
Q 2472 4922 2872 4570 
Q 3272 4219 3272 3619 
Q 3272 3084 3026 2693 
Q 2781 2303 2188 1894 
Q 1581 1475 1376 1294 
Q 1172 1113 1090 947 
Q 1009 781 1009 544 
L 3416 544 
L 3416 0 
L 372 0 
L 372 241 
Q 372 659 486 951 
Q 600 1244 862 1520 
Q 1125 1797 1681 2184 
Q 2250 2584 2458 2886 
Q 2666 3188 2666 3572 
z
" transform="scale(0.015625)"/>
       </defs>
       <use xlink:href="#MicrosoftYaHei-32"/>
      </g>
     </g>
    </g>
    <g id="xtick_3">
     <g id="line2d_5">
      <path d="M 236.124432 299.9925 
L 236.124432 22.7925 
" clip-path="url(#paa0d3e5320)" style="fill: none; stroke: #dddddd; stroke-opacity: 0.5; stroke-width: 0.5; stroke-linecap: square"/>
     </g>
     <g id="line2d_6">
      <g>
       <use xlink:href="#m44aa292df3" x="236.124432" y="299.9925" style="fill: #333333; stroke: #333333; stroke-width: 0.8"/>
      </g>
     </g>
     <g id="text_3">
      <!-- 4 -->
      <g style="fill: #333333" transform="translate(233.192401 315.48625) scale(0.1 -0.1)">
       <defs>
        <path id="MicrosoftYaHei-34" d="M 2906 4841 
L 2906 1644 
L 3631 1644 
L 3631 1138 
L 2906 1138 
L 2906 0 
L 2313 0 
L 2313 1138 
L 53 1138 
L 53 1616 
Q 656 2294 1265 3178 
Q 1875 4063 2272 4841 
L 2906 4841 
z
M 741 1644 
L 2313 1644 
L 2313 3950 
Q 1988 3366 1616 2817 
Q 1244 2269 741 1644 
z
" transform="scale(0.015625)"/>
       </defs>
       <use xlink:href="#MicrosoftYaHei-34"/>
      </g>
     </g>
    </g>
    <g id="xtick_4">
     <g id="line2d_7">
      <path d="M 317.288068 299.9925 
L 317.288068 22.7925 
" clip-path="url(#paa0d3e5320)" style="fill: none; stroke: #dddddd; stroke-opacity: 0.5; stroke-width: 0.5; stroke-linecap: square"/>
     </g>
     <g id="line2d_8">
      <g>
       <use xlink:href="#m44aa292df3" x="317.288068" y="299.9925" style="fill: #333333; stroke: #333333; stroke-width: 0.8"/>
      </g>
     </g>
     <g id="text_4">
      <!-- 6 -->
      <g style="fill: #333333" transform="translate(314.356037 315.48625) scale(0.1 -0.1)">
       <defs>
        <path id="MicrosoftYaHei-36" d="M 3181 4219 
Q 2803 4413 2391 4413 
Q 1763 4413 1381 3866 
Q 1000 3319 994 2372 
L 1009 2372 
Q 1353 3038 2106 3038 
Q 2734 3038 3109 2628 
Q 3484 2219 3484 1541 
Q 3484 831 3051 375 
Q 2619 -81 1947 -81 
Q 1209 -81 789 495 
Q 369 1072 369 2131 
Q 369 3413 920 4167 
Q 1472 4922 2372 4922 
Q 2888 4922 3181 4781 
L 3181 4219 
z
M 1031 1584 
Q 1031 1106 1286 765 
Q 1541 425 1963 425 
Q 2363 425 2613 719 
Q 2863 1013 2863 1475 
Q 2863 1975 2627 2253 
Q 2391 2531 1956 2531 
Q 1544 2531 1287 2250 
Q 1031 1969 1031 1584 
z
" transform="scale(0.015625)"/>
       </defs>
       <use xlink:href="#MicrosoftYaHei-36"/>
      </g>
     </g>
    </g>
    <g id="xtick_5">
     <g id="line2d_9">
      <path d="M 398.451705 299.9925 
L 398.451705 22.7925 
" clip-path="url(#paa0d3e5320)" style="fill: none; stroke: #dddddd; stroke-opacity: 0.5; stroke-width: 0.5; stroke-linecap: square"/>
     </g>
     <g id="line2d_10">
      <g>
       <use xlink:href="#m44aa292df3" x="398.451705" y="299.9925" style="fill: #333333; stroke: #333333; stroke-width: 0.8"/>
      </g>
     </g>
     <g id="text_5">
      <!-- 8 -->
      <g style="fill: #333333" transform="translate(395.519673 315.48625) scale(0.1 -0.1)">
       <defs>
        <path id="MicrosoftYaHei-38" d="M 306 1350 
Q 306 1769 556 2122 
Q 806 2475 1200 2625 
Q 884 2803 700 3081 
Q 516 3359 516 3684 
Q 516 4028 692 4312 
Q 869 4597 1183 4759 
Q 1497 4922 1875 4922 
Q 2256 4922 2572 4761 
Q 2888 4600 3063 4315 
Q 3238 4031 3238 3684 
Q 3238 3366 3058 3086 
Q 2878 2806 2559 2625 
Q 2953 2472 3200 2119 
Q 3447 1766 3447 1350 
Q 3447 938 3250 611 
Q 3053 284 2690 103 
Q 2328 -78 1875 -78 
Q 1425 -78 1065 103 
Q 706 284 506 612 
Q 306 941 306 1350 
z
M 906 1378 
Q 906 947 1172 687 
Q 1438 428 1878 428 
Q 2309 428 2582 692 
Q 2856 956 2856 1378 
Q 2856 1778 2579 2051 
Q 2303 2325 1878 2325 
Q 1456 2325 1181 2058 
Q 906 1791 906 1378 
z
M 1081 3634 
Q 1081 3309 1312 3076 
Q 1544 2844 1878 2844 
Q 2206 2844 2445 3078 
Q 2684 3313 2684 3634 
Q 2684 3963 2454 4191 
Q 2225 4419 1878 4419 
Q 1534 4419 1307 4195 
Q 1081 3972 1081 3634 
z
" transform="scale(0.015625)"/>
       </defs>
       <use xlink:href="#MicrosoftYaHei-38"/>
      </g>
     </g>
    </g>
    <g id="xtick_6">
     <g id="line2d_11">
      <path d="M 479.615341 299.9925 
L 479.615341 22.7925 
" clip-path="url(#paa0d3e5320)" style="fill: none; stroke: #dddddd; stroke-opacity: 0.5; stroke-width: 0.5; stroke-linecap: square"/>
     </g>
     <g id="line2d_12">
      <g>
       <use xlink:href="#m44aa292df3" x="479.615341" y="299.9925" style="fill: #333333; stroke: #333333; stroke-width: 0.8"/>
      </g>
     </g>
     <g id="text_6">
      <!-- 10 -->
      <g style="fill: #333333" transform="translate(473.751278 315.48625) scale(0.1 -0.1)">
       <defs>
        <path id="MicrosoftYaHei-31" d="M 1781 0 
L 1781 4141 
Q 1638 3997 1295 3819 
Q 953 3641 663 3569 
L 663 4169 
Q 1047 4275 1484 4508 
Q 1922 4741 2156 4947 
L 2388 4947 
L 2388 0 
L 1781 0 
z
" transform="scale(0.015625)"/>
       </defs>
       <use xlink:href="#MicrosoftYaHei-31"/>
       <use xlink:href="#MicrosoftYaHei-30" transform="translate(58.642578 0)"/>
      </g>
     </g>
    </g>
    <g id="text_7">
     <!-- X -->
     <g style="fill: #333333" transform="translate(273.48125 329.965937) scale(0.1 -0.1)">
      <defs>
       <path id="MicrosoftYaHei-58" d="M 4034 0 
L 3275 0 
L 2194 1822 
Q 2156 1884 2084 2072 
L 2069 2072 
Q 2063 2047 1956 1819 
L 844 0 
L 81 0 
L 1691 2431 
L 209 4841 
L 975 4841 
L 1931 3166 
Q 2016 3019 2100 2822 
L 2113 2822 
Q 2188 2991 2297 3181 
L 3297 4841 
L 4013 4841 
L 2500 2441 
L 4034 0 
z
" transform="scale(0.015625)"/>
      </defs>
      <use xlink:href="#MicrosoftYaHei-58"/>
     </g>
    </g>
   </g>
   <g id="matplotlib.axis_2">
    <g id="ytick_1">
     <g id="line2d_13">
      <path d="M 53.50625 287.399157 
L 499.90625 287.399157 
" clip-path="url(#paa0d3e5320)" style="fill: none; stroke: #dddddd; stroke-opacity: 0.5; stroke-width: 0.5; stroke-linecap: square"/>
     </g>
     <g id="line2d_14">
      <defs>
       <path id="ma2c372f657" d="M 0 0 
L -4 0 
" style="stroke: #333333; stroke-width: 0.8"/>
      </defs>
      <g>
       <use xlink:href="#ma2c372f657" x="53.50625" y="287.399157" style="fill: #333333; stroke: #333333; stroke-width: 0.8"/>
      </g>
     </g>
     <g id="text_8">
      <!-- -1.00 -->
      <g style="fill: #333333" transform="translate(21.679688 291.396032) scale(0.1 -0.1)">
       <defs>
        <path id="MicrosoftYaHei-2d" d="M 2328 1681 
L 488 1681 
L 488 2153 
L 2328 2153 
L 2328 1681 
z
" transform="scale(0.015625)"/>
        <path id="MicrosoftYaHei-2e" d="M 372 322 
Q 372 491 487 606 
Q 603 722 775 722 
Q 950 722 1065 605 
Q 1181 488 1181 322 
Q 1181 159 1065 42 
Q 950 -75 772 -75 
Q 600 -75 486 42 
Q 372 159 372 322 
z
" transform="scale(0.015625)"/>
       </defs>
       <use xlink:href="#MicrosoftYaHei-2d"/>
       <use xlink:href="#MicrosoftYaHei-31" transform="translate(43.261719 0)"/>
       <use xlink:href="#MicrosoftYaHei-2e" transform="translate(101.904297 0)"/>
       <use xlink:href="#MicrosoftYaHei-30" transform="translate(125.976562 0)"/>
       <use xlink:href="#MicrosoftYaHei-30" transform="translate(184.619141 0)"/>
      </g>
     </g>
    </g>
    <g id="ytick_2">
     <g id="line2d_15">
      <path d="M 53.50625 255.898325 
L 499.90625 255.898325 
" clip-path="url(#paa0d3e5320)" style="fill: none; stroke: #dddddd; stroke-opacity: 0.5; stroke-width: 0.5; stroke-linecap: square"/>
     </g>
     <g id="line2d_16">
      <g>
       <use xlink:href="#ma2c372f657" x="53.50625" y="255.898325" style="fill: #333333; stroke: #333333; stroke-width: 0.8"/>
      </g>
     </g>
     <g id="text_9">
      <!-- -0.75 -->
      <g style="fill: #333333" transform="translate(21.679688 259.8952) scale(0.1 -0.1)">
       <defs>
        <path id="MicrosoftYaHei-37" d="M 3422 4463 
Q 2659 3131 2223 1998 
Q 1788 866 1684 0 
L 1047 0 
Q 1163 853 1594 1947 
Q 2025 3041 2747 4300 
L 347 4300 
L 347 4841 
L 3422 4841 
L 3422 4463 
z
" transform="scale(0.015625)"/>
        <path id="MicrosoftYaHei-35" d="M 3294 1494 
Q 3294 784 2823 350 
Q 2353 -84 1559 -84 
Q 878 -84 544 119 
L 544 744 
Q 1034 425 1544 425 
Q 2050 425 2361 704 
Q 2672 984 2672 1447 
Q 2672 1909 2348 2167 
Q 2025 2425 1434 2425 
Q 978 2425 613 2384 
L 791 4841 
L 3053 4841 
L 3053 4303 
L 1306 4303 
L 1206 2931 
L 1647 2950 
Q 2416 2950 2855 2567 
Q 3294 2184 3294 1494 
z
" transform="scale(0.015625)"/>
       </defs>
       <use xlink:href="#MicrosoftYaHei-2d"/>
       <use xlink:href="#MicrosoftYaHei-30" transform="translate(43.261719 0)"/>
       <use xlink:href="#MicrosoftYaHei-2e" transform="translate(101.904297 0)"/>
       <use xlink:href="#MicrosoftYaHei-37" transform="translate(125.976562 0)"/>
       <use xlink:href="#MicrosoftYaHei-35" transform="translate(184.619141 0)"/>
      </g>
     </g>
    </g>
    <g id="ytick_3">
     <g id="line2d_17">
      <path d="M 53.50625 224.397493 
L 499.90625 224.397493 
" clip-path="url(#paa0d3e5320)" style="fill: none; stroke: #dddddd; stroke-opacity: 0.5; stroke-width: 0.5; stroke-linecap: square"/>
     </g>
     <g id="line2d_18">
      <g>
       <use xlink:href="#ma2c372f657" x="53.50625" y="224.397493" style="fill: #333333; stroke: #333333; stroke-width: 0.8"/>
      </g>
     </g>
     <g id="text_10">
      <!-- -0.50 -->
      <g style="fill: #333333" transform="translate(21.679688 228.394368) scale(0.1 -0.1)">
       <use xlink:href="#MicrosoftYaHei-2d"/>
       <use xlink:href="#MicrosoftYaHei-30" transform="translate(43.261719 0)"/>
       <use xlink:href="#MicrosoftYaHei-2e" transform="translate(101.904297 0)"/>
       <use xlink:href="#MicrosoftYaHei-35" transform="translate(125.976562 0)"/>
       <use xlink:href="#MicrosoftYaHei-30" transform="translate(184.619141 0)"/>
      </g>
     </g>
    </g>
    <g id="ytick_4">
     <g id="line2d_19">
      <path d="M 53.50625 192.896661 
L 499.90625 192.896661 
" clip-path="url(#paa0d3e5320)" style="fill: none; stroke: #dddddd; stroke-opacity: 0.5; stroke-width: 0.5; stroke-linecap: square"/>
     </g>
     <g id="line2d_20">
      <g>
       <use xlink:href="#ma2c372f657" x="53.50625" y="192.896661" style="fill: #333333; stroke: #333333; stroke-width: 0.8"/>
      </g>
     </g>
     <g id="text_11">
      <!-- -0.25 -->
      <g style="fill: #333333" transform="translate(21.679688 196.893536) scale(0.1 -0.1)">
       <use xlink:href="#MicrosoftYaHei-2d"/>
       <use xlink:href="#MicrosoftYaHei-30" transform="translate(43.261719 0)"/>
       <use xlink:href="#MicrosoftYaHei-2e" transform="translate(101.904297 0)"/>
       <use xlink:href="#MicrosoftYaHei-32" transform="translate(125.976562 0)"/>
       <use xlink:href="#MicrosoftYaHei-35" transform="translate(184.619141 0)"/>
      </g>
     </g>
    </g>
    <g id="ytick_5">
     <g id="line2d_21">
      <path d="M 53.50625 161.395829 
L 499.90625 161.395829 
" clip-path="url(#paa0d3e5320)" style="fill: none; stroke: #dddddd; stroke-opacity: 0.5; stroke-width: 0.5; stroke-linecap: square"/>
     </g>
     <g id="line2d_22">
      <g>
       <use xlink:href="#ma2c372f657" x="53.50625" y="161.395829" style="fill: #333333; stroke: #333333; stroke-width: 0.8"/>
      </g>
     </g>
     <g id="text_12">
      <!-- 0.00 -->
      <g style="fill: #333333" transform="translate(26.00625 165.392704) scale(0.1 -0.1)">
       <use xlink:href="#MicrosoftYaHei-30"/>
       <use xlink:href="#MicrosoftYaHei-2e" transform="translate(58.642578 0)"/>
       <use xlink:href="#MicrosoftYaHei-30" transform="translate(82.714844 0)"/>
       <use xlink:href="#MicrosoftYaHei-30" transform="translate(141.357422 0)"/>
      </g>
     </g>
    </g>
    <g id="ytick_6">
     <g id="line2d_23">
      <path d="M 53.50625 129.894996 
L 499.90625 129.894996 
" clip-path="url(#paa0d3e5320)" style="fill: none; stroke: #dddddd; stroke-opacity: 0.5; stroke-width: 0.5; stroke-linecap: square"/>
     </g>
     <g id="line2d_24">
      <g>
       <use xlink:href="#ma2c372f657" x="53.50625" y="129.894996" style="fill: #333333; stroke: #333333; stroke-width: 0.8"/>
      </g>
     </g>
     <g id="text_13">
      <!-- 0.25 -->
      <g style="fill: #333333" transform="translate(26.00625 133.891871) scale(0.1 -0.1)">
       <use xlink:href="#MicrosoftYaHei-30"/>
       <use xlink:href="#MicrosoftYaHei-2e" transform="translate(58.642578 0)"/>
       <use xlink:href="#MicrosoftYaHei-32" transform="translate(82.714844 0)"/>
       <use xlink:href="#MicrosoftYaHei-35" transform="translate(141.357422 0)"/>
      </g>
     </g>
    </g>
    <g id="ytick_7">
     <g id="line2d_25">
      <path d="M 53.50625 98.394164 
L 499.90625 98.394164 
" clip-path="url(#paa0d3e5320)" style="fill: none; stroke: #dddddd; stroke-opacity: 0.5; stroke-width: 0.5; stroke-linecap: square"/>
     </g>
     <g id="line2d_26">
      <g>
       <use xlink:href="#ma2c372f657" x="53.50625" y="98.394164" style="fill: #333333; stroke: #333333; stroke-width: 0.8"/>
      </g>
     </g>
     <g id="text_14">
      <!-- 0.50 -->
      <g style="fill: #333333" transform="translate(26.00625 102.391039) scale(0.1 -0.1)">
       <use xlink:href="#MicrosoftYaHei-30"/>
       <use xlink:href="#MicrosoftYaHei-2e" transform="translate(58.642578 0)"/>
       <use xlink:href="#MicrosoftYaHei-35" transform="translate(82.714844 0)"/>
       <use xlink:href="#MicrosoftYaHei-30" transform="translate(141.357422 0)"/>
      </g>
     </g>
    </g>
    <g id="ytick_8">
     <g id="line2d_27">
      <path d="M 53.50625 66.893332 
L 499.90625 66.893332 
" clip-path="url(#paa0d3e5320)" style="fill: none; stroke: #dddddd; stroke-opacity: 0.5; stroke-width: 0.5; stroke-linecap: square"/>
     </g>
     <g id="line2d_28">
      <g>
       <use xlink:href="#ma2c372f657" x="53.50625" y="66.893332" style="fill: #333333; stroke: #333333; stroke-width: 0.8"/>
      </g>
     </g>
     <g id="text_15">
      <!-- 0.75 -->
      <g style="fill: #333333" transform="translate(26.00625 70.890207) scale(0.1 -0.1)">
       <use xlink:href="#MicrosoftYaHei-30"/>
       <use xlink:href="#MicrosoftYaHei-2e" transform="translate(58.642578 0)"/>
       <use xlink:href="#MicrosoftYaHei-37" transform="translate(82.714844 0)"/>
       <use xlink:href="#MicrosoftYaHei-35" transform="translate(141.357422 0)"/>
      </g>
     </g>
    </g>
    <g id="ytick_9">
     <g id="line2d_29">
      <path d="M 53.50625 35.3925 
L 499.90625 35.3925 
" clip-path="url(#paa0d3e5320)" style="fill: none; stroke: #dddddd; stroke-opacity: 0.5; stroke-width: 0.5; stroke-linecap: square"/>
     </g>
     <g id="line2d_30">
      <g>
       <use xlink:href="#ma2c372f657" x="53.50625" y="35.3925" style="fill: #333333; stroke: #333333; stroke-width: 0.8"/>
      </g>
     </g>
     <g id="text_16">
      <!-- 1.00 -->
      <g style="fill: #333333" transform="translate(26.00625 39.389375) scale(0.1 -0.1)">
       <use xlink:href="#MicrosoftYaHei-31"/>
       <use xlink:href="#MicrosoftYaHei-2e" transform="translate(58.642578 0)"/>
       <use xlink:href="#MicrosoftYaHei-30" transform="translate(82.714844 0)"/>
       <use xlink:href="#MicrosoftYaHei-30" transform="translate(141.357422 0)"/>
      </g>
     </g>
    </g>
    <g id="text_17">
     <!-- Y -->
     <g style="fill: #333333" transform="translate(15.19375 164.410469) rotate(-90) scale(0.1 -0.1)">
      <defs>
       <path id="MicrosoftYaHei-59" d="M 3828 4841 
L 2234 1781 
L 2234 0 
L 1606 0 
L 1606 1766 
L 53 4841 
L 769 4841 
L 1816 2697 
Q 1819 2694 1931 2388 
L 1941 2388 
Q 1978 2519 2069 2694 
L 3163 4841 
L 3828 4841 
z
" transform="scale(0.015625)"/>
      </defs>
      <use xlink:href="#MicrosoftYaHei-59"/>
     </g>
    </g>
   </g>
   <g id="line2d_31">
    <path d="M 73.797159 161.395829 
L 77.896333 148.689852 
L 81.995506 136.113405 
L 86.09468 123.794696 
L 90.193853 111.859307 
L 94.293027 100.428911 
L 98.3922 89.620035 
L 102.491374 79.542868 
L 106.590548 70.300139 
L 110.689721 61.986074 
L 114.788895 54.685429 
L 118.888068 48.472628 
L 122.987242 43.411008 
L 127.086415 39.552169 
L 131.185589 36.93545 
L 135.284762 35.587525 
L 139.383936 35.522136 
L 143.48311 36.73995 
L 147.582283 39.228552 
L 151.681457 42.962572 
L 155.78063 47.903944 
L 159.879804 54.002295 
L 163.978977 61.195454 
L 168.078151 69.410094 
L 172.177324 78.562469 
L 176.276498 88.559279 
L 180.375671 99.298611 
L 184.474845 110.670985 
L 188.574019 122.560467 
L 192.673192 134.84585 
L 196.772366 147.401894 
L 200.871539 160.100597 
L 204.970713 172.812505 
L 209.069886 185.408026 
L 213.16906 197.758759 
L 217.268233 209.738794 
L 221.367407 221.226003 
L 225.466581 232.103282 
L 229.565754 242.259742 
L 233.664928 251.591846 
L 237.764101 260.004459 
L 241.863275 267.411819 
L 245.962448 273.738413 
L 250.061622 278.919745 
L 254.160795 282.902995 
L 258.259969 285.647557 
L 262.359143 287.12545 
L 266.458316 287.321609 
L 270.55749 286.234035 
L 274.656663 283.873814 
L 278.755837 280.265007 
L 282.85501 275.444404 
L 286.954184 269.461148 
L 291.053357 262.376235 
L 295.152531 254.261889 
L 299.251705 245.200833 
L 303.350878 235.285438 
L 307.450052 224.616785 
L 311.549225 213.303635 
L 315.648399 201.461317 
L 319.747572 189.210556 
L 323.846746 176.676242 
L 327.945919 163.986154 
L 332.045093 151.269659 
L 336.144267 138.656394 
L 340.24344 126.274944 
L 344.342614 114.251528 
L 348.441787 102.708719 
L 352.540961 91.764188 
L 356.640134 81.529507 
L 360.739308 72.109013 
L 364.838481 63.598742 
L 368.937655 56.085451 
L 373.036829 49.645732 
L 377.136002 44.345234 
L 381.235176 40.237994 
L 385.334349 37.365881 
L 389.433523 35.758175 
L 393.532696 35.431266 
L 397.63187 36.388486 
L 401.731043 38.620077 
L 405.830217 42.103289 
L 409.92939 46.802613 
L 414.028564 52.670142 
L 418.127738 59.646061 
L 422.226911 67.659255 
L 426.326085 76.628034 
L 430.425258 86.460967 
L 434.524432 97.057814 
L 438.623605 108.310546 
L 442.722779 120.104449 
L 446.821952 132.319291 
L 450.921126 144.83055 
L 455.0203 157.510682 
L 459.119473 170.230421 
L 463.218647 182.860097 
L 467.31782 195.270957 
L 471.416994 207.336483 
L 475.516167 218.933672 
L 479.615341 229.944299 
" clip-path="url(#paa0d3e5320)" style="fill: none; stroke: #1f77b4; stroke-width: 2; stroke-linecap: square"/>
   </g>
   <g id="line2d_32">
    <path d="M 73.797159 35.3925 
L 77.896333 36.034762 
L 81.995506 37.955001 
L 86.09468 41.133642 
L 90.193853 45.538279 
L 94.293027 51.124011 
L 98.3922 57.833894 
L 102.491374 65.599526 
L 106.590548 74.341741 
L 110.689721 83.971417 
L 114.788895 94.390386 
L 118.888068 105.492433 
L 122.987242 117.16438 
L 127.086415 129.287239 
L 131.185589 141.737424 
L 135.284762 154.388015 
L 139.383936 167.110046 
L 143.48311 179.773824 
L 147.582283 192.250249 
L 151.681457 204.412134 
L 155.78063 216.135494 
L 159.879804 227.300819 
L 163.978977 237.794283 
L 168.078151 247.508913 
L 172.177324 256.345675 
L 176.276498 264.214484 
L 180.375671 271.035121 
L 184.474845 276.738054 
L 188.574019 281.265147 
L 192.673192 284.570248 
L 196.772366 286.619663 
L 200.871539 287.3925 
L 204.970713 286.880881 
L 209.069886 285.090021 
L 213.16906 282.038177 
L 217.268233 277.75646 
L 221.367407 272.28852 
L 225.466581 265.690099 
L 229.565754 258.028464 
L 233.664928 249.381721 
L 237.764101 239.838017 
L 241.863275 229.494644 
L 245.962448 218.457047 
L 250.061622 206.837746 
L 254.160795 194.755195 
L 258.259969 182.332565 
L 262.359143 169.696499 
L 266.458316 156.975812 
L 270.55749 144.300185 
L 274.656663 131.798837 
L 278.755837 119.599212 
L 282.85501 107.825677 
L 286.954184 96.598255 
L 291.053357 86.031404 
L 295.152531 76.232846 
L 299.251705 67.302471 
L 303.350878 59.331318 
L 307.450052 52.400648 
L 311.549225 46.581115 
L 315.648399 41.932045 
L 319.747572 38.500834 
L 323.846746 36.322459 
L 327.945919 35.419128 
L 332.045093 35.80005 
L 336.144267 37.461342 
L 340.24344 40.386068 
L 344.342614 44.544411 
L 348.441787 49.893981 
L 352.540961 56.380242 
L 356.640134 63.93707 
L 360.739308 72.487429 
L 364.838481 81.944153 
L 368.937655 92.210837 
L 373.036829 103.182818 
L 377.136002 114.748243 
L 381.235176 126.789212 
L 385.334349 139.182973 
L 389.433523 151.80318 
L 393.532696 164.521177 
L 397.63187 177.207314 
L 401.731043 189.732263 
L 405.830217 201.96834 
L 409.92939 213.790806 
L 414.028564 225.079138 
L 418.127738 235.718259 
L 422.226911 245.59971 
L 426.326085 254.622755 
L 430.425258 262.695411 
L 434.524432 269.735381 
L 438.623605 275.670898 
L 442.722779 280.441453 
L 446.821952 283.998413 
L 450.921126 286.305518 
L 455.0203 287.339246 
L 459.119473 287.089062 
L 463.218647 285.557514 
L 467.31782 282.760216 
L 471.416994 278.725685 
L 475.516167 273.49505 
L 479.615341 267.121634 
" clip-path="url(#paa0d3e5320)" style="fill: none; stroke: #ff7f0e; stroke-width: 2; stroke-linecap: square"/>
   </g>
   <g id="patch_3">
    <path d="M 53.50625 299.9925 
L 53.50625 22.7925 
" style="fill: none; stroke: #333333; stroke-linejoin: miter; stroke-linecap: square"/>
   </g>
   <g id="patch_4">
    <path d="M 53.50625 299.9925 
L 499.90625 299.9925 
" style="fill: none; stroke: #333333; stroke-linejoin: miter; stroke-linecap: square"/>
   </g>
   <g id="text_18">
    <!-- 基本波形图 -->
    <g style="fill: #333333" transform="translate(246.70625 16.7925) scale(0.12 -0.12)">
     <defs>
      <path id="MicrosoftYaHei-57fa" d="M 6319 697 
Q 6113 441 5981 247 
Q 5406 519 4925 897 
L 4925 553 
L 3431 553 
L 3431 -97 
L 5875 -97 
L 5875 -503 
L 519 -503 
L 519 -97 
L 2963 -97 
L 2963 553 
L 1450 553 
L 1450 894 
Q 953 478 413 172 
Q 294 341 88 566 
Q 1050 1034 1753 1753 
L 156 1753 
L 156 2159 
L 1400 2159 
L 1400 4253 
L 350 4253 
L 350 4659 
L 1400 4659 
L 1400 5334 
L 1869 5334 
L 1869 4659 
L 4550 4659 
L 4550 5334 
L 5019 5334 
L 5019 4659 
L 6069 4659 
L 6069 4253 
L 5019 4253 
L 5019 2159 
L 6244 2159 
L 6244 1753 
L 4600 1753 
Q 5303 1053 6319 697 
z
M 2963 1553 
L 3431 1553 
L 3431 947 
L 4863 947 
Q 4416 1306 4047 1753 
L 2325 1753 
Q 1934 1309 1513 947 
L 2963 947 
L 2963 1553 
z
M 1869 2159 
L 4550 2159 
L 4550 2603 
L 1869 2603 
L 1869 2159 
z
M 1869 2991 
L 4550 2991 
L 4550 3428 
L 1869 3428 
L 1869 2991 
z
M 1869 3816 
L 4550 3816 
L 4550 4253 
L 1869 4253 
L 1869 3816 
z
" transform="scale(0.015625)"/>
      <path id="MicrosoftYaHei-672c" d="M 6281 803 
Q 6119 641 5856 366 
Q 4344 1531 3444 3353 
L 3444 878 
L 4875 878 
L 4875 441 
L 3444 441 
L 3444 -841 
L 2956 -841 
L 2956 441 
L 1475 441 
L 1475 878 
L 2956 878 
L 2956 3353 
Q 2159 1766 513 291 
Q 269 522 100 666 
Q 1878 2125 2759 3753 
L 238 3753 
L 238 4216 
L 2956 4216 
L 2956 5341 
L 3444 5341 
L 3444 4216 
L 6163 4216 
L 6163 3753 
L 3622 3753 
Q 4616 1884 6281 803 
z
" transform="scale(0.015625)"/>
      <path id="MicrosoftYaHei-6ce2" d="M 2094 4453 
L 3919 4453 
L 3919 5316 
L 4406 5316 
L 4406 4453 
L 6169 4453 
L 6106 3253 
Q 5900 3278 5638 3284 
L 5688 4016 
L 4406 4016 
L 4406 2853 
L 5788 2853 
L 5788 2434 
Q 5463 1309 4653 481 
Q 5334 -50 6356 -347 
Q 6063 -641 5931 -816 
Q 4944 -444 4272 134 
Q 3550 -466 2525 -884 
Q 2406 -691 2181 -459 
Q 3213 -75 3919 478 
Q 3184 1281 2950 2416 
L 2581 2416 
Q 2588 316 1513 -847 
Q 1344 -622 1175 -447 
Q 2094 541 2094 2353 
L 2094 4453 
z
M 5269 2416 
L 3416 2416 
Q 3647 1469 4288 806 
Q 4988 1497 5269 2416 
z
M 2581 2853 
L 3919 2853 
L 3919 4016 
L 2581 4016 
L 2581 2853 
z
M 256 -609 
Q 619 466 900 1809 
Q 1175 1691 1406 1616 
Q 1019 97 806 -778 
L 256 -609 
z
M 325 4878 
L 650 5209 
Q 1063 4897 1725 4328 
Q 1513 4122 1350 3959 
Q 706 4566 325 4878 
z
M 81 3247 
L 400 3603 
Q 938 3234 1475 2803 
Q 1269 2584 1113 2397 
Q 500 2941 81 3247 
z
" transform="scale(0.015625)"/>
      <path id="MicrosoftYaHei-5f62" d="M 175 2647 
L 1019 2647 
L 1019 4422 
L 350 4422 
L 350 4872 
L 3775 4872 
L 3775 4422 
L 3006 4422 
L 3006 2647 
L 3975 2647 
L 3975 2197 
L 3006 2197 
L 3006 -791 
L 2525 -791 
L 2525 2197 
L 1497 2197 
Q 1500 128 406 -841 
Q 256 -622 75 -428 
Q 1025 366 1016 2197 
L 175 2197 
L 175 2647 
z
M 1500 2647 
L 2525 2647 
L 2525 4422 
L 1500 4422 
L 1500 2647 
z
M 6319 1353 
Q 5331 166 3738 -834 
Q 3631 -666 3388 -422 
Q 4925 397 5956 1672 
L 6319 1353 
z
M 6138 3172 
Q 5250 2159 4019 1347 
Q 3888 1528 3694 1722 
Q 4856 2441 5775 3484 
L 6138 3172 
z
M 6038 4934 
Q 5194 4009 3988 3266 
Q 3875 3428 3675 3666 
Q 4838 4322 5675 5253 
L 6038 4934 
z
" transform="scale(0.015625)"/>
      <path id="MicrosoftYaHei-56fe" d="M 431 5072 
L 5944 5072 
L 5944 -809 
L 5475 -809 
L 5475 -509 
L 900 -509 
L 900 -809 
L 431 -809 
L 431 5072 
z
M 5475 4622 
L 900 4622 
L 900 -59 
L 5475 -59 
L 5475 4622 
z
M 1113 3091 
Q 1969 3709 2519 4547 
L 2931 4353 
Q 2816 4181 2681 4016 
L 4894 4016 
L 4894 3647 
Q 4434 3091 3722 2644 
Q 4381 2422 5338 2297 
Q 5194 2016 5131 1828 
Q 4022 2081 3256 2400 
Q 2491 2056 1225 1728 
Q 1138 1934 1013 2128 
Q 2109 2353 2825 2644 
Q 2384 2947 2066 3341 
Q 1769 3056 1419 2784 
Q 1294 2916 1113 3091 
z
M 1563 672 
L 1694 1103 
Q 3256 897 4700 622 
L 4531 147 
Q 3150 453 1563 672 
z
M 4275 3628 
L 2347 3628 
Q 2338 3616 2328 3606 
Q 2691 3141 3244 2841 
Q 3891 3188 4275 3628 
z
M 2219 1503 
L 2344 1922 
Q 3263 1784 4275 1609 
L 4144 1172 
Q 3119 1378 2219 1503 
z
" transform="scale(0.015625)"/>
     </defs>
     <use xlink:href="#MicrosoftYaHei-57fa"/>
     <use xlink:href="#MicrosoftYaHei-672c" transform="translate(100 0)"/>
     <use xlink:href="#MicrosoftYaHei-6ce2" transform="translate(200 0)"/>
     <use xlink:href="#MicrosoftYaHei-5f62" transform="translate(300 0)"/>
     <use xlink:href="#MicrosoftYaHei-56fe" transform="translate(400 0)"/>
    </g>
   </g>
   <g id="legend_1">
    <g id="patch_5">
     <path d="M 433.154688 61.751875 
L 492.90625 61.751875 
Q 494.90625 61.751875 494.90625 59.751875 
L 494.90625 29.7925 
Q 494.90625 27.7925 492.90625 27.7925 
L 433.154688 27.7925 
Q 431.154688 27.7925 431.154688 29.7925 
L 431.154688 59.751875 
Q 431.154688 61.751875 433.154688 61.751875 
z
" style="fill: #ffffff; opacity: 0.8"/>
    </g>
    <g id="line2d_33">
     <path d="M 435.154688 36.28625 
L 445.154688 36.28625 
L 455.154688 36.28625 
" style="fill: none; stroke: #1f77b4; stroke-width: 2; stroke-linecap: square"/>
    </g>
    <g id="text_19">
     <!-- sin(x) -->
     <g transform="translate(463.154688 39.78625) scale(0.1 -0.1)">
      <defs>
       <path id="MicrosoftYaHei-73" d="M 353 747 
Q 816 413 1350 413 
Q 2066 413 2066 881 
Q 2066 1081 1909 1211 
Q 1753 1341 1275 1519 
Q 700 1750 528 1976 
Q 356 2203 356 2525 
Q 356 2984 745 3261 
Q 1134 3538 1703 3538 
Q 2144 3538 2522 3384 
L 2522 2794 
Q 2134 3044 1644 3044 
Q 1350 3044 1165 2916 
Q 981 2788 981 2578 
Q 981 2372 1114 2256 
Q 1247 2141 1703 1959 
Q 2281 1744 2484 1512 
Q 2688 1281 2688 941 
Q 2688 466 2298 192 
Q 1909 -81 1291 -81 
Q 753 -81 353 122 
L 353 747 
z
" transform="scale(0.015625)"/>
       <path id="MicrosoftYaHei-69" d="M 472 4675 
Q 472 4838 583 4948 
Q 694 5059 856 5059 
Q 1022 5059 1136 4950 
Q 1250 4841 1250 4675 
Q 1250 4513 1136 4405 
Q 1022 4297 856 4297 
Q 691 4297 581 4405 
Q 472 4513 472 4675 
z
M 544 0 
L 544 3456 
L 1156 3456 
L 1156 0 
L 544 0 
z
" transform="scale(0.015625)"/>
       <path id="MicrosoftYaHei-6e" d="M 3469 0 
L 2859 0 
L 2859 1966 
Q 2859 3031 2081 3031 
Q 1678 3031 1418 2731 
Q 1159 2431 1159 1972 
L 1159 0 
L 547 0 
L 547 3456 
L 1159 3456 
L 1159 2884 
L 1172 2884 
Q 1563 3538 2306 3538 
Q 2875 3538 3172 3173 
Q 3469 2809 3469 2113 
L 3469 0 
z
" transform="scale(0.015625)"/>
       <path id="MicrosoftYaHei-28" d="M 1531 -1100 
Q 478 100 478 1847 
Q 478 3594 1531 4841 
L 2072 4841 
Q 1016 3544 1016 1853 
Q 1016 166 2066 -1100 
L 1531 -1100 
z
" transform="scale(0.015625)"/>
       <path id="MicrosoftYaHei-78" d="M 3163 3456 
L 2006 1716 
L 3147 0 
L 2434 0 
L 1775 1100 
Q 1722 1188 1625 1369 
L 1613 1369 
Q 1609 1350 1456 1100 
L 784 0 
L 81 0 
L 1256 1697 
L 134 3456 
L 847 3456 
L 1494 2300 
Q 1553 2194 1638 2025 
L 1650 2025 
L 2491 3456 
L 3163 3456 
z
" transform="scale(0.015625)"/>
       <path id="MicrosoftYaHei-29" d="M 78 -1100 
Q 1131 163 1131 1853 
Q 1131 3547 72 4841 
L 616 4841 
Q 1672 3603 1672 1847 
Q 1672 91 616 -1100 
L 78 -1100 
z
" transform="scale(0.015625)"/>
      </defs>
      <use xlink:href="#MicrosoftYaHei-73"/>
      <use xlink:href="#MicrosoftYaHei-69" transform="translate(46.289062 0)"/>
      <use xlink:href="#MicrosoftYaHei-6e" transform="translate(72.900391 0)"/>
      <use xlink:href="#MicrosoftYaHei-28" transform="translate(134.521484 0)"/>
      <use xlink:href="#MicrosoftYaHei-78" transform="translate(167.919922 0)"/>
      <use xlink:href="#MicrosoftYaHei-29" transform="translate(218.603516 0)"/>
     </g>
    </g>
    <g id="line2d_34">
     <path d="M 435.154688 51.765938 
L 445.154688 51.765938 
L 455.154688 51.765938 
" style="fill: none; stroke: #ff7f0e; stroke-width: 2; stroke-linecap: square"/>
    </g>
    <g id="text_20">
     <!-- cos(x) -->
     <g transform="translate(463.154688 55.265938) scale(0.1 -0.1)">
      <defs>
       <path id="MicrosoftYaHei-63" d="M 2934 156 
Q 2538 -81 1978 -81 
Q 1228 -81 772 400 
Q 316 881 316 1647 
Q 316 2497 808 3017 
Q 1300 3538 2125 3538 
Q 2600 3538 2938 3369 
L 2938 2763 
Q 2572 3031 2125 3031 
Q 1600 3031 1270 2667 
Q 941 2303 941 1697 
Q 941 1100 1252 762 
Q 1563 425 2091 425 
Q 2538 425 2934 719 
L 2934 156 
z
" transform="scale(0.015625)"/>
       <path id="MicrosoftYaHei-6f" d="M 316 1691 
Q 316 2547 794 3042 
Q 1272 3538 2091 3538 
Q 2869 3538 3311 3061 
Q 3753 2584 3753 1744 
Q 3753 925 3281 422 
Q 2809 -81 2016 -81 
Q 1241 -81 778 406 
Q 316 894 316 1691 
z
M 941 1709 
Q 941 1113 1242 769 
Q 1544 425 2053 425 
Q 2578 425 2853 761 
Q 3128 1097 3128 1725 
Q 3128 2356 2853 2693 
Q 2578 3031 2053 3031 
Q 1538 3031 1239 2678 
Q 941 2325 941 1709 
z
" transform="scale(0.015625)"/>
      </defs>
      <use xlink:href="#MicrosoftYaHei-63"/>
      <use xlink:href="#MicrosoftYaHei-6f" transform="translate(50.146484 0)"/>
      <use xlink:href="#MicrosoftYaHei-73" transform="translate(113.720703 0)"/>
      <use xlink:href="#MicrosoftYaHei-28" transform="translate(160.009766 0)"/>
      <use xlink:href="#MicrosoftYaHei-78" transform="translate(193.408203 0)"/>
      <use xlink:href="#MicrosoftYaHei-29" transform="translate(244.091797 0)"/>
     </g>
    </g>
   </g>
  </g>
 </g>
 <defs>
  <clipPath id="paa0d3e5320">
   <rect x="53.50625" y="22.7925" width="446.4" height="277.2"/>
  </clipPath>
 </defs>
</svg>
