<?xml version="1.0" encoding="utf-8" standalone="no"?>
<!DOCTYPE svg PUBLIC "-//W3C//DTD SVG 1.1//EN"
  "http://www.w3.org/Graphics/SVG/1.1/DTD/svg11.dtd">
<svg xmlns:xlink="http://www.w3.org/1999/xlink" width="624.817031pt" height="489.590937pt" viewBox="0 0 624.817031 489.590937" xmlns="http://www.w3.org/2000/svg" version="1.1">
 <metadata>
  <rdf:RDF xmlns:dc="http://purl.org/dc/elements/1.1/" xmlns:cc="http://creativecommons.org/ns#" xmlns:rdf="http://www.w3.org/1999/02/22-rdf-syntax-ns#">
   <cc:Work>
    <dc:type rdf:resource="http://purl.org/dc/dcmitype/StillImage"/>
    <dc:date>2025-04-28T07:01:51.046613</dc:date>
    <dc:format>image/svg+xml</dc:format>
    <dc:creator>
     <cc:Agent>
      <dc:title>Matplotlib v3.10.1, https://matplotlib.org/</dc:title>
     </cc:Agent>
    </dc:creator>
   </cc:Work>
  </rdf:RDF>
 </metadata>
 <defs>
  <style type="text/css">*{stroke-linejoin: round; stroke-linecap: butt}</style>
 </defs>
 <g id="figure_1">
  <g id="patch_1">
   <path d="M 0 489.590937 
L 624.817031 489.590937 
L 624.817031 0 
L 0 0 
z
" style="fill: #ffffff"/>
  </g>
  <g id="axes_1">
   <g id="patch_2">
    <path d="M 59.617031 467.91125 
L 617.617031 467.91125 
L 617.617031 24.39125 
L 59.617031 24.39125 
z
" style="fill: #ffffff"/>
   </g>
   <g id="matplotlib.axis_1">
    <g id="text_1">
     <!-- 颜色索引 -->
     <g style="fill: #333333" transform="translate(318.617031 479.905) scale(0.1 -0.1)">
      <defs>
       <path id="MicrosoftYaHei-989c" d="M 3413 3728 
L 4250 3728 
L 4381 4572 
L 3250 4572 
L 3250 4997 
L 6294 4997 
L 6294 4572 
L 4869 4572 
L 4713 3728 
L 6025 3728 
L 6025 609 
L 5594 609 
L 5594 3309 
L 3844 3309 
L 3844 609 
L 3413 609 
L 3413 3728 
z
M 438 3066 
L 1994 3066 
Q 2244 3609 2425 4109 
L 2913 3928 
Q 2731 3566 2444 3066 
L 3200 3066 
L 3200 2666 
L 875 2666 
L 875 1372 
Q 881 16 388 -841 
Q 213 -609 56 -422 
Q 438 209 438 1409 
L 438 3066 
z
M 4500 3022 
L 4938 3022 
L 4938 2222 
Q 4938 1341 4750 766 
Q 5631 134 6319 -484 
L 5969 -847 
Q 5325 -209 4569 353 
Q 4181 -316 3188 -903 
Q 3094 -766 2856 -503 
Q 3844 9 4188 609 
Q 4500 1122 4500 2247 
L 4500 3022 
z
M 263 4566 
L 1663 4566 
Q 1550 4809 1350 5147 
L 1750 5334 
Q 1981 5003 2144 4703 
L 1863 4566 
L 3213 4566 
L 3213 4166 
L 263 4166 
L 263 4566 
z
M 1100 -872 
Q 981 -678 838 -484 
Q 1981 -53 2956 703 
L 3238 359 
Q 2181 -434 1100 -872 
z
M 1256 341 
Q 1100 597 994 734 
Q 1975 1091 2838 1684 
L 3100 1347 
Q 2150 709 1256 341 
z
M 1256 1441 
Q 1119 1678 994 1834 
Q 1800 2066 2688 2616 
L 2938 2266 
Q 2063 1759 1256 1441 
z
M 750 3922 
L 1144 4109 
Q 1419 3666 1600 3309 
L 1169 3097 
Q 1000 3497 750 3922 
z
" transform="scale(0.015625)"/>
       <path id="MicrosoftYaHei-8272" d="M 56 3253 
Q 1275 4178 1988 5384 
L 2513 5253 
Q 2344 4984 2153 4728 
L 4625 4728 
L 4625 4284 
Q 4275 3875 3894 3466 
L 5581 3466 
L 5581 1184 
L 5081 1184 
L 5081 1403 
L 1325 1403 
L 1325 297 
Q 1325 -128 1719 -128 
L 5094 -128 
Q 5513 -128 5600 134 
Q 5719 516 5769 1091 
Q 5950 1009 6281 897 
Q 6194 309 6100 -9 
Q 5938 -603 5188 -603 
L 1663 -603 
Q 825 -603 825 253 
L 825 3263 
Q 641 3097 444 2934 
Q 275 3091 56 3253 
z
M 5081 3016 
L 3444 3016 
L 3444 1853 
L 5081 1853 
L 5081 3016 
z
M 1325 1853 
L 2956 1853 
L 2956 3016 
L 1325 3016 
L 1325 1853 
z
M 3994 4291 
L 1809 4291 
Q 1456 3863 1041 3466 
L 3284 3466 
Q 3659 3891 3994 4291 
z
" transform="scale(0.015625)"/>
       <path id="MicrosoftYaHei-7d22" d="M 4431 2197 
Q 5281 1559 5956 966 
L 5588 622 
Q 5391 816 5178 1009 
Q 4331 978 3531 941 
L 3531 3 
Q 3531 -766 2713 -766 
Q 2344 -766 1925 -753 
Q 1894 -528 1838 -253 
Q 2288 -303 2619 -303 
Q 3044 -303 3044 109 
L 3044 913 
Q 2413 881 1813 841 
Q 1450 816 1088 759 
L 900 1253 
Q 1325 1341 1750 1541 
Q 2350 1831 2884 2131 
Q 2381 2097 1919 2059 
Q 1625 2028 1400 1984 
L 1244 2409 
Q 1513 2509 1769 2672 
Q 2175 2934 2619 3297 
L 806 3297 
L 806 2578 
L 319 2578 
L 319 3722 
L 2944 3722 
L 2944 4303 
L 500 4303 
L 500 4728 
L 2944 4728 
L 2944 5341 
L 3456 5341 
L 3456 4728 
L 5925 4728 
L 5925 4303 
L 3456 4303 
L 3456 3722 
L 6081 3722 
L 6081 2578 
L 5594 2578 
L 5594 3297 
L 3231 3297 
Q 2584 2791 2000 2416 
Q 2731 2447 3459 2472 
Q 3891 2738 4269 3009 
L 4650 2716 
Q 3244 1866 1988 1253 
Q 3313 1309 4747 1388 
Q 4441 1650 4106 1916 
L 4431 2197 
z
M 4356 678 
Q 5425 203 6294 -266 
Q 6113 -503 6000 -697 
Q 5181 -191 4094 322 
L 4356 678 
z
M 1838 728 
L 2131 372 
Q 1294 -228 394 -684 
Q 275 -491 88 -278 
Q 1031 141 1838 728 
z
" transform="scale(0.015625)"/>
       <path id="MicrosoftYaHei-5f15" d="M 1075 2078 
L 3663 2078 
Q 3575 828 3500 247 
Q 3413 -716 2438 -716 
Q 1863 -716 1144 -684 
Q 1100 -409 1013 -109 
Q 1688 -178 2344 -178 
Q 2963 -178 3006 441 
Q 3056 822 3113 1609 
L 463 1609 
L 831 3522 
L 3081 3522 
L 3081 4566 
L 463 4566 
L 463 5028 
L 3594 5028 
L 3594 2822 
L 3081 2822 
L 3081 3059 
L 1256 3059 
L 1075 2078 
z
M 5175 5291 
L 5700 5291 
L 5700 -828 
L 5175 -828 
L 5175 5291 
z
" transform="scale(0.015625)"/>
      </defs>
      <use xlink:href="#MicrosoftYaHei-989c"/>
      <use xlink:href="#MicrosoftYaHei-8272" transform="translate(100 0)"/>
      <use xlink:href="#MicrosoftYaHei-7d22" transform="translate(200 0)"/>
      <use xlink:href="#MicrosoftYaHei-5f15" transform="translate(300 0)"/>
     </g>
    </g>
   </g>
   <g id="matplotlib.axis_2">
    <g id="ytick_1">
     <g id="line2d_1">
      <path d="M 59.617031 430.95125 
L 617.617031 430.95125 
" clip-path="url(#pd242f5f872)" style="fill: none; stroke: #dddddd; stroke-opacity: 0.5; stroke-width: 0.5; stroke-linecap: square"/>
     </g>
     <g id="line2d_2">
      <defs>
       <path id="m4e4d8d612c" d="M 0 0 
L -4 0 
" style="stroke: #333333; stroke-width: 0.8"/>
      </defs>
      <g>
       <use xlink:href="#m4e4d8d612c" x="59.617031" y="430.95125" style="fill: #333333; stroke: #333333; stroke-width: 0.8"/>
      </g>
     </g>
     <g id="text_2">
      <!-- default -->
      <g style="fill: #333333" transform="translate(21.864375 434.548437) scale(0.09 -0.09)">
       <defs>
        <path id="MicrosoftYaHei-64" d="M 3547 0 
L 2934 0 
L 2934 575 
L 2922 575 
Q 2544 -81 1747 -81 
Q 1091 -81 703 386 
Q 316 853 316 1647 
Q 316 2503 753 3020 
Q 1191 3538 1897 3538 
Q 2603 3538 2922 2988 
L 2934 2988 
L 2934 5116 
L 3547 5116 
L 3547 0 
z
M 2938 2056 
Q 2938 2472 2664 2751 
Q 2391 3031 1991 3031 
Q 1503 3031 1222 2667 
Q 941 2303 941 1675 
Q 941 1097 1211 761 
Q 1481 425 1931 425 
Q 2375 425 2656 754 
Q 2938 1084 2938 1575 
L 2938 2056 
z
" transform="scale(0.015625)"/>
        <path id="MicrosoftYaHei-65" d="M 3363 1572 
L 944 1572 
Q 959 1019 1246 717 
Q 1534 416 2050 416 
Q 2631 416 3116 788 
L 3116 241 
Q 2659 -81 1906 -81 
Q 1156 -81 736 394 
Q 316 869 316 1713 
Q 316 2506 777 3022 
Q 1238 3538 1922 3538 
Q 2600 3538 2981 3102 
Q 3363 2666 3363 1881 
L 3363 1572 
z
M 2750 2063 
Q 2747 2531 2528 2787 
Q 2309 3044 1913 3044 
Q 1547 3044 1280 2772 
Q 1013 2500 944 2063 
L 2750 2063 
z
" transform="scale(0.015625)"/>
        <path id="MicrosoftYaHei-66" d="M 2319 4594 
Q 2147 4684 1947 4684 
Q 1372 4684 1372 3972 
L 1372 3456 
L 2181 3456 
L 2181 2950 
L 1372 2950 
L 1372 0 
L 766 0 
L 766 2950 
L 175 2950 
L 175 3456 
L 766 3456 
L 766 4000 
Q 766 4556 1086 4873 
Q 1406 5191 1900 5191 
Q 2163 5191 2319 5131 
L 2319 4594 
z
" transform="scale(0.015625)"/>
        <path id="MicrosoftYaHei-61" d="M 628 3216 
Q 1144 3538 1819 3538 
Q 3069 3538 3069 2225 
L 3069 0 
L 2463 0 
L 2463 534 
L 2447 534 
Q 2088 -81 1388 -81 
Q 884 -81 587 191 
Q 291 463 291 925 
Q 291 1894 1438 2053 
L 2463 2197 
Q 2463 3044 1763 3044 
Q 1141 3044 628 2625 
L 628 3216 
z
M 1653 1625 
Q 1228 1569 1067 1412 
Q 906 1256 906 975 
Q 906 728 1081 572 
Q 1256 416 1544 416 
Q 1944 416 2203 697 
Q 2463 978 2463 1403 
L 2463 1734 
L 1653 1625 
z
" transform="scale(0.015625)"/>
        <path id="MicrosoftYaHei-75" d="M 3400 0 
L 2784 0 
L 2784 544 
L 2772 544 
Q 2425 -81 1706 -81 
Q 478 -81 478 1388 
L 478 3456 
L 1084 3456 
L 1084 1478 
Q 1084 425 1891 425 
Q 2291 425 2537 720 
Q 2784 1016 2784 1466 
L 2784 3456 
L 3400 3456 
L 3400 0 
z
" transform="scale(0.015625)"/>
        <path id="MicrosoftYaHei-6c" d="M 544 0 
L 544 5116 
L 1156 5116 
L 1156 0 
L 544 0 
z
" transform="scale(0.015625)"/>
        <path id="MicrosoftYaHei-74" d="M 2206 34 
Q 2006 -75 1666 -75 
Q 738 -75 738 953 
L 738 2950 
L 144 2950 
L 144 3456 
L 738 3456 
L 738 4288 
L 1347 4481 
L 1347 3456 
L 2206 3456 
L 2206 2950 
L 1347 2950 
L 1347 1063 
Q 1347 722 1462 575 
Q 1578 428 1847 428 
Q 2053 428 2206 544 
L 2206 34 
z
" transform="scale(0.015625)"/>
       </defs>
       <use xlink:href="#MicrosoftYaHei-64"/>
       <use xlink:href="#MicrosoftYaHei-65" transform="translate(63.964844 0)"/>
       <use xlink:href="#MicrosoftYaHei-66" transform="translate(120.703125 0)"/>
       <use xlink:href="#MicrosoftYaHei-61" transform="translate(155.371094 0)"/>
       <use xlink:href="#MicrosoftYaHei-75" transform="translate(210.644531 0)"/>
       <use xlink:href="#MicrosoftYaHei-6c" transform="translate(272.265625 0)"/>
       <use xlink:href="#MicrosoftYaHei-74" transform="translate(298.876953 0)"/>
      </g>
     </g>
    </g>
    <g id="ytick_2">
     <g id="line2d_3">
      <path d="M 59.617031 357.03125 
L 617.617031 357.03125 
" clip-path="url(#pd242f5f872)" style="fill: none; stroke: #dddddd; stroke-opacity: 0.5; stroke-width: 0.5; stroke-linecap: square"/>
     </g>
     <g id="line2d_4">
      <g>
       <use xlink:href="#m4e4d8d612c" x="59.617031" y="357.03125" style="fill: #333333; stroke: #333333; stroke-width: 0.8"/>
      </g>
     </g>
     <g id="text_3">
      <!-- pastel -->
      <g style="fill: #333333" transform="translate(26.575312 360.628437) scale(0.09 -0.09)">
       <defs>
        <path id="MicrosoftYaHei-70" d="M 1159 488 
L 1159 -1591 
L 547 -1591 
L 547 3456 
L 1159 3456 
L 1159 2859 
L 1172 2859 
Q 1578 3538 2359 3538 
Q 3022 3538 3398 3073 
Q 3775 2609 3775 1828 
Q 3775 966 3348 442 
Q 2922 -81 2200 -81 
Q 1534 -81 1172 488 
L 1159 488 
z
M 1156 1425 
Q 1156 1003 1428 714 
Q 1700 425 2109 425 
Q 2597 425 2872 800 
Q 3147 1175 3147 1838 
Q 3147 2397 2890 2714 
Q 2634 3031 2191 3031 
Q 1738 3031 1447 2709 
Q 1156 2388 1156 1884 
L 1156 1425 
z
" transform="scale(0.015625)"/>
        <path id="MicrosoftYaHei-73" d="M 353 747 
Q 816 413 1350 413 
Q 2066 413 2066 881 
Q 2066 1081 1909 1211 
Q 1753 1341 1275 1519 
Q 700 1750 528 1976 
Q 356 2203 356 2525 
Q 356 2984 745 3261 
Q 1134 3538 1703 3538 
Q 2144 3538 2522 3384 
L 2522 2794 
Q 2134 3044 1644 3044 
Q 1350 3044 1165 2916 
Q 981 2788 981 2578 
Q 981 2372 1114 2256 
Q 1247 2141 1703 1959 
Q 2281 1744 2484 1512 
Q 2688 1281 2688 941 
Q 2688 466 2298 192 
Q 1909 -81 1291 -81 
Q 753 -81 353 122 
L 353 747 
z
" transform="scale(0.015625)"/>
       </defs>
       <use xlink:href="#MicrosoftYaHei-70"/>
       <use xlink:href="#MicrosoftYaHei-61" transform="translate(62.492188 0)"/>
       <use xlink:href="#MicrosoftYaHei-73" transform="translate(117.765625 0)"/>
       <use xlink:href="#MicrosoftYaHei-74" transform="translate(164.054688 0)"/>
       <use xlink:href="#MicrosoftYaHei-65" transform="translate(200.435547 0)"/>
       <use xlink:href="#MicrosoftYaHei-6c" transform="translate(257.173828 0)"/>
      </g>
     </g>
    </g>
    <g id="ytick_3">
     <g id="line2d_5">
      <path d="M 59.617031 283.11125 
L 617.617031 283.11125 
" clip-path="url(#pd242f5f872)" style="fill: none; stroke: #dddddd; stroke-opacity: 0.5; stroke-width: 0.5; stroke-linecap: square"/>
     </g>
     <g id="line2d_6">
      <g>
       <use xlink:href="#m4e4d8d612c" x="59.617031" y="283.11125" style="fill: #333333; stroke: #333333; stroke-width: 0.8"/>
      </g>
     </g>
     <g id="text_4">
      <!-- vibrant -->
      <g style="fill: #333333" transform="translate(21.938906 286.708437) scale(0.09 -0.09)">
       <defs>
        <path id="MicrosoftYaHei-76" d="M 3331 3456 
L 1963 0 
L 1344 0 
L 44 3456 
L 713 3456 
L 1556 988 
Q 1659 691 1678 491 
L 1694 491 
Q 1725 753 1803 975 
L 2688 3456 
L 3331 3456 
z
" transform="scale(0.015625)"/>
        <path id="MicrosoftYaHei-69" d="M 472 4675 
Q 472 4838 583 4948 
Q 694 5059 856 5059 
Q 1022 5059 1136 4950 
Q 1250 4841 1250 4675 
Q 1250 4513 1136 4405 
Q 1022 4297 856 4297 
Q 691 4297 581 4405 
Q 472 4513 472 4675 
z
M 544 0 
L 544 3456 
L 1156 3456 
L 1156 0 
L 544 0 
z
" transform="scale(0.015625)"/>
        <path id="MicrosoftYaHei-62" d="M 1159 488 
L 1159 0 
L 547 0 
L 547 5116 
L 1159 5116 
L 1159 2859 
L 1172 2859 
Q 1578 3538 2359 3538 
Q 3009 3538 3392 3080 
Q 3775 2622 3775 1828 
Q 3775 953 3345 436 
Q 2916 -81 2200 -81 
Q 1525 -81 1172 488 
L 1159 488 
z
M 1156 1422 
Q 1156 1003 1428 714 
Q 1700 425 2109 425 
Q 2597 425 2872 800 
Q 3147 1175 3147 1838 
Q 3147 2384 2890 2707 
Q 2634 3031 2191 3031 
Q 1741 3031 1448 2709 
Q 1156 2388 1156 1891 
L 1156 1422 
z
" transform="scale(0.015625)"/>
        <path id="MicrosoftYaHei-72" d="M 2400 2850 
Q 2247 2959 1978 2959 
Q 1622 2959 1390 2626 
Q 1159 2294 1159 1750 
L 1159 0 
L 547 0 
L 547 3456 
L 1159 3456 
L 1159 2753 
L 1172 2753 
Q 1434 3516 2078 3516 
Q 2288 3516 2400 3469 
L 2400 2850 
z
" transform="scale(0.015625)"/>
        <path id="MicrosoftYaHei-6e" d="M 3469 0 
L 2859 0 
L 2859 1966 
Q 2859 3031 2081 3031 
Q 1678 3031 1418 2731 
Q 1159 2431 1159 1972 
L 1159 0 
L 547 0 
L 547 3456 
L 1159 3456 
L 1159 2884 
L 1172 2884 
Q 1563 3538 2306 3538 
Q 2875 3538 3172 3173 
Q 3469 2809 3469 2113 
L 3469 0 
z
" transform="scale(0.015625)"/>
       </defs>
       <use xlink:href="#MicrosoftYaHei-76"/>
       <use xlink:href="#MicrosoftYaHei-69" transform="translate(52.490234 0)"/>
       <use xlink:href="#MicrosoftYaHei-62" transform="translate(79.101562 0)"/>
       <use xlink:href="#MicrosoftYaHei-72" transform="translate(142.96875 0)"/>
       <use xlink:href="#MicrosoftYaHei-61" transform="translate(181.152344 0)"/>
       <use xlink:href="#MicrosoftYaHei-6e" transform="translate(236.425781 0)"/>
       <use xlink:href="#MicrosoftYaHei-74" transform="translate(298.046875 0)"/>
      </g>
     </g>
    </g>
    <g id="ytick_4">
     <g id="line2d_7">
      <path d="M 59.617031 209.19125 
L 617.617031 209.19125 
" clip-path="url(#pd242f5f872)" style="fill: none; stroke: #dddddd; stroke-opacity: 0.5; stroke-width: 0.5; stroke-linecap: square"/>
     </g>
     <g id="line2d_8">
      <g>
       <use xlink:href="#m4e4d8d612c" x="59.617031" y="209.19125" style="fill: #333333; stroke: #333333; stroke-width: 0.8"/>
      </g>
     </g>
     <g id="text_5">
      <!-- muted -->
      <g style="fill: #333333" transform="translate(24.000469 212.788437) scale(0.09 -0.09)">
       <defs>
        <path id="MicrosoftYaHei-6d" d="M 5522 0 
L 4909 0 
L 4909 1984 
Q 4909 2547 4734 2789 
Q 4559 3031 4159 3031 
Q 3822 3031 3581 2715 
Q 3341 2400 3341 1969 
L 3341 0 
L 2728 0 
L 2728 2047 
Q 2728 3031 1969 3031 
Q 1619 3031 1389 2731 
Q 1159 2431 1159 1966 
L 1159 0 
L 547 0 
L 547 3456 
L 1159 3456 
L 1159 2909 
L 1172 2909 
Q 1541 3538 2250 3538 
Q 2597 3538 2862 3347 
Q 3128 3156 3231 2831 
Q 3616 3538 4381 3538 
Q 5522 3538 5522 2131 
L 5522 0 
z
" transform="scale(0.015625)"/>
       </defs>
       <use xlink:href="#MicrosoftYaHei-6d"/>
       <use xlink:href="#MicrosoftYaHei-75" transform="translate(93.701172 0)"/>
       <use xlink:href="#MicrosoftYaHei-74" transform="translate(155.322266 0)"/>
       <use xlink:href="#MicrosoftYaHei-65" transform="translate(191.703125 0)"/>
       <use xlink:href="#MicrosoftYaHei-64" transform="translate(248.441406 0)"/>
      </g>
     </g>
    </g>
    <g id="ytick_5">
     <g id="line2d_9">
      <path d="M 59.617031 135.27125 
L 617.617031 135.27125 
" clip-path="url(#pd242f5f872)" style="fill: none; stroke: #dddddd; stroke-opacity: 0.5; stroke-width: 0.5; stroke-linecap: square"/>
     </g>
     <g id="line2d_10">
      <g>
       <use xlink:href="#m4e4d8d612c" x="59.617031" y="135.27125" style="fill: #333333; stroke: #333333; stroke-width: 0.8"/>
      </g>
     </g>
     <g id="text_6">
      <!-- scientific -->
      <g style="fill: #333333" transform="translate(14.615156 138.868437) scale(0.09 -0.09)">
       <defs>
        <path id="MicrosoftYaHei-63" d="M 2934 156 
Q 2538 -81 1978 -81 
Q 1228 -81 772 400 
Q 316 881 316 1647 
Q 316 2497 808 3017 
Q 1300 3538 2125 3538 
Q 2600 3538 2938 3369 
L 2938 2763 
Q 2572 3031 2125 3031 
Q 1600 3031 1270 2667 
Q 941 2303 941 1697 
Q 941 1100 1252 762 
Q 1563 425 2091 425 
Q 2538 425 2934 719 
L 2934 156 
z
" transform="scale(0.015625)"/>
       </defs>
       <use xlink:href="#MicrosoftYaHei-73"/>
       <use xlink:href="#MicrosoftYaHei-63" transform="translate(46.289062 0)"/>
       <use xlink:href="#MicrosoftYaHei-69" transform="translate(96.435547 0)"/>
       <use xlink:href="#MicrosoftYaHei-65" transform="translate(123.046875 0)"/>
       <use xlink:href="#MicrosoftYaHei-6e" transform="translate(179.785156 0)"/>
       <use xlink:href="#MicrosoftYaHei-74" transform="translate(241.40625 0)"/>
       <use xlink:href="#MicrosoftYaHei-69" transform="translate(278.662109 0)"/>
       <use xlink:href="#MicrosoftYaHei-66" transform="translate(305.273438 0)"/>
       <use xlink:href="#MicrosoftYaHei-69" transform="translate(339.941406 0)"/>
       <use xlink:href="#MicrosoftYaHei-63" transform="translate(366.552734 0)"/>
      </g>
     </g>
    </g>
    <g id="ytick_6">
     <g id="line2d_11">
      <path d="M 59.617031 61.35125 
L 617.617031 61.35125 
" clip-path="url(#pd242f5f872)" style="fill: none; stroke: #dddddd; stroke-opacity: 0.5; stroke-width: 0.5; stroke-linecap: square"/>
     </g>
     <g id="line2d_12">
      <g>
       <use xlink:href="#m4e4d8d612c" x="59.617031" y="61.35125" style="fill: #333333; stroke: #333333; stroke-width: 0.8"/>
      </g>
     </g>
     <g id="text_7">
      <!-- qualitative -->
      <g style="fill: #333333" transform="translate(7.2 64.948438) scale(0.09 -0.09)">
       <defs>
        <path id="MicrosoftYaHei-71" d="M 3547 -1591 
L 2934 -1591 
L 2934 581 
L 2922 581 
Q 2559 -81 1753 -81 
Q 1100 -81 708 380 
Q 316 841 316 1647 
Q 316 2506 747 3022 
Q 1178 3538 1903 3538 
Q 2603 3538 2922 2988 
L 2934 2988 
L 2934 3456 
L 3547 3456 
L 3547 -1591 
z
M 2934 2044 
Q 2938 2453 2673 2742 
Q 2409 3031 1984 3031 
Q 1497 3031 1219 2668 
Q 941 2306 941 1663 
Q 941 1081 1208 753 
Q 1475 425 1909 425 
Q 2384 425 2661 751 
Q 2938 1078 2934 1566 
L 2934 2044 
z
" transform="scale(0.015625)"/>
       </defs>
       <use xlink:href="#MicrosoftYaHei-71"/>
       <use xlink:href="#MicrosoftYaHei-75" transform="translate(63.964844 0)"/>
       <use xlink:href="#MicrosoftYaHei-61" transform="translate(125.585938 0)"/>
       <use xlink:href="#MicrosoftYaHei-6c" transform="translate(180.859375 0)"/>
       <use xlink:href="#MicrosoftYaHei-69" transform="translate(207.470703 0)"/>
       <use xlink:href="#MicrosoftYaHei-74" transform="translate(234.082031 0)"/>
       <use xlink:href="#MicrosoftYaHei-61" transform="translate(271.337891 0)"/>
       <use xlink:href="#MicrosoftYaHei-74" transform="translate(326.611328 0)"/>
       <use xlink:href="#MicrosoftYaHei-69" transform="translate(363.867188 0)"/>
       <use xlink:href="#MicrosoftYaHei-76" transform="translate(390.478516 0)"/>
       <use xlink:href="#MicrosoftYaHei-65" transform="translate(442.34375 0)"/>
      </g>
     </g>
    </g>
   </g>
   <g id="patch_3">
    <path d="M 59.617031 460.51925 
L 115.417031 460.51925 
L 115.417031 401.38325 
L 59.617031 401.38325 
z
" clip-path="url(#pd242f5f872)" style="fill: #1f77b4"/>
   </g>
   <g id="patch_4">
    <path d="M 115.417031 460.51925 
L 171.217031 460.51925 
L 171.217031 401.38325 
L 115.417031 401.38325 
z
" clip-path="url(#pd242f5f872)" style="fill: #ff7f0e"/>
   </g>
   <g id="patch_5">
    <path d="M 171.217031 460.51925 
L 227.017031 460.51925 
L 227.017031 401.38325 
L 171.217031 401.38325 
z
" clip-path="url(#pd242f5f872)" style="fill: #2ca02c"/>
   </g>
   <g id="patch_6">
    <path d="M 227.017031 460.51925 
L 282.817031 460.51925 
L 282.817031 401.38325 
L 227.017031 401.38325 
z
" clip-path="url(#pd242f5f872)" style="fill: #d62728"/>
   </g>
   <g id="patch_7">
    <path d="M 282.817031 460.51925 
L 338.617031 460.51925 
L 338.617031 401.38325 
L 282.817031 401.38325 
z
" clip-path="url(#pd242f5f872)" style="fill: #9467bd"/>
   </g>
   <g id="patch_8">
    <path d="M 338.617031 460.51925 
L 394.417031 460.51925 
L 394.417031 401.38325 
L 338.617031 401.38325 
z
" clip-path="url(#pd242f5f872)" style="fill: #8c564b"/>
   </g>
   <g id="patch_9">
    <path d="M 394.417031 460.51925 
L 450.217031 460.51925 
L 450.217031 401.38325 
L 394.417031 401.38325 
z
" clip-path="url(#pd242f5f872)" style="fill: #e377c2"/>
   </g>
   <g id="patch_10">
    <path d="M 450.217031 460.51925 
L 506.017031 460.51925 
L 506.017031 401.38325 
L 450.217031 401.38325 
z
" clip-path="url(#pd242f5f872)" style="fill: #7f7f7f"/>
   </g>
   <g id="patch_11">
    <path d="M 506.017031 460.51925 
L 561.817031 460.51925 
L 561.817031 401.38325 
L 506.017031 401.38325 
z
" clip-path="url(#pd242f5f872)" style="fill: #bcbd22"/>
   </g>
   <g id="patch_12">
    <path d="M 561.817031 460.51925 
L 617.617031 460.51925 
L 617.617031 401.38325 
L 561.817031 401.38325 
z
" clip-path="url(#pd242f5f872)" style="fill: #17becf"/>
   </g>
   <g id="patch_13">
    <path d="M 59.617031 386.59925 
L 115.417031 386.59925 
L 115.417031 327.46325 
L 59.617031 327.46325 
z
" clip-path="url(#pd242f5f872)" style="fill: #a1c9f4"/>
   </g>
   <g id="patch_14">
    <path d="M 115.417031 386.59925 
L 171.217031 386.59925 
L 171.217031 327.46325 
L 115.417031 327.46325 
z
" clip-path="url(#pd242f5f872)" style="fill: #ffb482"/>
   </g>
   <g id="patch_15">
    <path d="M 171.217031 386.59925 
L 227.017031 386.59925 
L 227.017031 327.46325 
L 171.217031 327.46325 
z
" clip-path="url(#pd242f5f872)" style="fill: #8de5a1"/>
   </g>
   <g id="patch_16">
    <path d="M 227.017031 386.59925 
L 282.817031 386.59925 
L 282.817031 327.46325 
L 227.017031 327.46325 
z
" clip-path="url(#pd242f5f872)" style="fill: #ff9f9b"/>
   </g>
   <g id="patch_17">
    <path d="M 282.817031 386.59925 
L 338.617031 386.59925 
L 338.617031 327.46325 
L 282.817031 327.46325 
z
" clip-path="url(#pd242f5f872)" style="fill: #d0bbff"/>
   </g>
   <g id="patch_18">
    <path d="M 338.617031 386.59925 
L 394.417031 386.59925 
L 394.417031 327.46325 
L 338.617031 327.46325 
z
" clip-path="url(#pd242f5f872)" style="fill: #debb9b"/>
   </g>
   <g id="patch_19">
    <path d="M 394.417031 386.59925 
L 450.217031 386.59925 
L 450.217031 327.46325 
L 394.417031 327.46325 
z
" clip-path="url(#pd242f5f872)" style="fill: #fab0e4"/>
   </g>
   <g id="patch_20">
    <path d="M 450.217031 386.59925 
L 506.017031 386.59925 
L 506.017031 327.46325 
L 450.217031 327.46325 
z
" clip-path="url(#pd242f5f872)" style="fill: #cfcfcf"/>
   </g>
   <g id="patch_21">
    <path d="M 506.017031 386.59925 
L 561.817031 386.59925 
L 561.817031 327.46325 
L 506.017031 327.46325 
z
" clip-path="url(#pd242f5f872)" style="fill: #fffea3"/>
   </g>
   <g id="patch_22">
    <path d="M 561.817031 386.59925 
L 617.617031 386.59925 
L 617.617031 327.46325 
L 561.817031 327.46325 
z
" clip-path="url(#pd242f5f872)" style="fill: #b9f2f0"/>
   </g>
   <g id="patch_23">
    <path d="M 59.617031 312.67925 
L 115.417031 312.67925 
L 115.417031 253.54325 
L 59.617031 253.54325 
z
" clip-path="url(#pd242f5f872)" style="fill: #0077bb"/>
   </g>
   <g id="patch_24">
    <path d="M 115.417031 312.67925 
L 171.217031 312.67925 
L 171.217031 253.54325 
L 115.417031 253.54325 
z
" clip-path="url(#pd242f5f872)" style="fill: #cc3311"/>
   </g>
   <g id="patch_25">
    <path d="M 171.217031 312.67925 
L 227.017031 312.67925 
L 227.017031 253.54325 
L 171.217031 253.54325 
z
" clip-path="url(#pd242f5f872)" style="fill: #009988"/>
   </g>
   <g id="patch_26">
    <path d="M 227.017031 312.67925 
L 282.817031 312.67925 
L 282.817031 253.54325 
L 227.017031 253.54325 
z
" clip-path="url(#pd242f5f872)" style="fill: #ee7733"/>
   </g>
   <g id="patch_27">
    <path d="M 282.817031 312.67925 
L 338.617031 312.67925 
L 338.617031 253.54325 
L 282.817031 253.54325 
z
" clip-path="url(#pd242f5f872)" style="fill: #33bbee"/>
   </g>
   <g id="patch_28">
    <path d="M 338.617031 312.67925 
L 394.417031 312.67925 
L 394.417031 253.54325 
L 338.617031 253.54325 
z
" clip-path="url(#pd242f5f872)" style="fill: #ee3377"/>
   </g>
   <g id="patch_29">
    <path d="M 394.417031 312.67925 
L 450.217031 312.67925 
L 450.217031 253.54325 
L 394.417031 253.54325 
z
" clip-path="url(#pd242f5f872)" style="fill: #bbbbbb"/>
   </g>
   <g id="patch_30">
    <path d="M 59.617031 238.75925 
L 115.417031 238.75925 
L 115.417031 179.62325 
L 59.617031 179.62325 
z
" clip-path="url(#pd242f5f872)" style="fill: #4878d0"/>
   </g>
   <g id="patch_31">
    <path d="M 115.417031 238.75925 
L 171.217031 238.75925 
L 171.217031 179.62325 
L 115.417031 179.62325 
z
" clip-path="url(#pd242f5f872)" style="fill: #ee854a"/>
   </g>
   <g id="patch_32">
    <path d="M 171.217031 238.75925 
L 227.017031 238.75925 
L 227.017031 179.62325 
L 171.217031 179.62325 
z
" clip-path="url(#pd242f5f872)" style="fill: #6acc64"/>
   </g>
   <g id="patch_33">
    <path d="M 227.017031 238.75925 
L 282.817031 238.75925 
L 282.817031 179.62325 
L 227.017031 179.62325 
z
" clip-path="url(#pd242f5f872)" style="fill: #d65f5f"/>
   </g>
   <g id="patch_34">
    <path d="M 282.817031 238.75925 
L 338.617031 238.75925 
L 338.617031 179.62325 
L 282.817031 179.62325 
z
" clip-path="url(#pd242f5f872)" style="fill: #956cb4"/>
   </g>
   <g id="patch_35">
    <path d="M 338.617031 238.75925 
L 394.417031 238.75925 
L 394.417031 179.62325 
L 338.617031 179.62325 
z
" clip-path="url(#pd242f5f872)" style="fill: #8c613c"/>
   </g>
   <g id="patch_36">
    <path d="M 394.417031 238.75925 
L 450.217031 238.75925 
L 450.217031 179.62325 
L 394.417031 179.62325 
z
" clip-path="url(#pd242f5f872)" style="fill: #dc7ec0"/>
   </g>
   <g id="patch_37">
    <path d="M 450.217031 238.75925 
L 506.017031 238.75925 
L 506.017031 179.62325 
L 450.217031 179.62325 
z
" clip-path="url(#pd242f5f872)" style="fill: #797979"/>
   </g>
   <g id="patch_38">
    <path d="M 506.017031 238.75925 
L 561.817031 238.75925 
L 561.817031 179.62325 
L 506.017031 179.62325 
z
" clip-path="url(#pd242f5f872)" style="fill: #d5bb67"/>
   </g>
   <g id="patch_39">
    <path d="M 561.817031 238.75925 
L 617.617031 238.75925 
L 617.617031 179.62325 
L 561.817031 179.62325 
z
" clip-path="url(#pd242f5f872)" style="fill: #82c6e2"/>
   </g>
   <g id="patch_40">
    <path d="M 59.617031 164.83925 
L 115.417031 164.83925 
L 115.417031 105.70325 
L 59.617031 105.70325 
z
" clip-path="url(#pd242f5f872)" style="fill: #0c5da5"/>
   </g>
   <g id="patch_41">
    <path d="M 115.417031 164.83925 
L 171.217031 164.83925 
L 171.217031 105.70325 
L 115.417031 105.70325 
z
" clip-path="url(#pd242f5f872)" style="fill: #00b945"/>
   </g>
   <g id="patch_42">
    <path d="M 171.217031 164.83925 
L 227.017031 164.83925 
L 227.017031 105.70325 
L 171.217031 105.70325 
z
" clip-path="url(#pd242f5f872)" style="fill: #ff9500"/>
   </g>
   <g id="patch_43">
    <path d="M 227.017031 164.83925 
L 282.817031 164.83925 
L 282.817031 105.70325 
L 227.017031 105.70325 
z
" clip-path="url(#pd242f5f872)" style="fill: #ff2c00"/>
   </g>
   <g id="patch_44">
    <path d="M 282.817031 164.83925 
L 338.617031 164.83925 
L 338.617031 105.70325 
L 282.817031 105.70325 
z
" clip-path="url(#pd242f5f872)" style="fill: #845b97"/>
   </g>
   <g id="patch_45">
    <path d="M 338.617031 164.83925 
L 394.417031 164.83925 
L 394.417031 105.70325 
L 338.617031 105.70325 
z
" clip-path="url(#pd242f5f872)" style="fill: #474747"/>
   </g>
   <g id="patch_46">
    <path d="M 394.417031 164.83925 
L 450.217031 164.83925 
L 450.217031 105.70325 
L 394.417031 105.70325 
z
" clip-path="url(#pd242f5f872)" style="fill: #9e9e9e"/>
   </g>
   <g id="patch_47">
    <path d="M 59.617031 90.91925 
L 115.417031 90.91925 
L 115.417031 31.78325 
L 59.617031 31.78325 
z
" clip-path="url(#pd242f5f872)" style="fill: #4477aa"/>
   </g>
   <g id="patch_48">
    <path d="M 115.417031 90.91925 
L 171.217031 90.91925 
L 171.217031 31.78325 
L 115.417031 31.78325 
z
" clip-path="url(#pd242f5f872)" style="fill: #66ccee"/>
   </g>
   <g id="patch_49">
    <path d="M 171.217031 90.91925 
L 227.017031 90.91925 
L 227.017031 31.78325 
L 171.217031 31.78325 
z
" clip-path="url(#pd242f5f872)" style="fill: #228833"/>
   </g>
   <g id="patch_50">
    <path d="M 227.017031 90.91925 
L 282.817031 90.91925 
L 282.817031 31.78325 
L 227.017031 31.78325 
z
" clip-path="url(#pd242f5f872)" style="fill: #ccbb44"/>
   </g>
   <g id="patch_51">
    <path d="M 282.817031 90.91925 
L 338.617031 90.91925 
L 338.617031 31.78325 
L 282.817031 31.78325 
z
" clip-path="url(#pd242f5f872)" style="fill: #ee6677"/>
   </g>
   <g id="patch_52">
    <path d="M 338.617031 90.91925 
L 394.417031 90.91925 
L 394.417031 31.78325 
L 338.617031 31.78325 
z
" clip-path="url(#pd242f5f872)" style="fill: #aa3377"/>
   </g>
   <g id="patch_53">
    <path d="M 394.417031 90.91925 
L 450.217031 90.91925 
L 450.217031 31.78325 
L 394.417031 31.78325 
z
" clip-path="url(#pd242f5f872)" style="fill: #bbbbbb"/>
   </g>
   <g id="patch_54">
    <path d="M 59.617031 467.91125 
L 59.617031 24.39125 
" style="fill: none; stroke: #333333; stroke-linejoin: miter; stroke-linecap: square"/>
   </g>
   <g id="text_8">
    <!-- #1f77b4 -->
    <g style="fill: #ffffff" transform="translate(71.640156 433.154375) scale(0.08 -0.08)">
     <defs>
      <path id="MicrosoftYaHei-23" d="M 3928 3500 
L 3850 3109 
L 2994 3109 
L 2791 2119 
L 3694 2119 
L 3616 1734 
L 2706 1734 
L 2425 413 
L 1972 413 
L 2253 1734 
L 1422 1734 
L 1141 413 
L 688 413 
L 969 1734 
L 113 1734 
L 191 2119 
L 1053 2119 
L 1256 3109 
L 347 3109 
L 425 3500 
L 1334 3500 
L 1613 4838 
L 2066 4838 
L 1788 3500 
L 2619 3500 
L 2897 4838 
L 3350 4838 
L 3072 3500 
L 3928 3500 
z
M 2541 3109 
L 1709 3109 
L 1506 2119 
L 2338 2119 
L 2541 3109 
z
" transform="scale(0.015625)"/>
      <path id="MicrosoftYaHei-31" d="M 1781 0 
L 1781 4141 
Q 1638 3997 1295 3819 
Q 953 3641 663 3569 
L 663 4169 
Q 1047 4275 1484 4508 
Q 1922 4741 2156 4947 
L 2388 4947 
L 2388 0 
L 1781 0 
z
" transform="scale(0.015625)"/>
      <path id="MicrosoftYaHei-37" d="M 3422 4463 
Q 2659 3131 2223 1998 
Q 1788 866 1684 0 
L 1047 0 
Q 1163 853 1594 1947 
Q 2025 3041 2747 4300 
L 347 4300 
L 347 4841 
L 3422 4841 
L 3422 4463 
z
" transform="scale(0.015625)"/>
      <path id="MicrosoftYaHei-34" d="M 2906 4841 
L 2906 1644 
L 3631 1644 
L 3631 1138 
L 2906 1138 
L 2906 0 
L 2313 0 
L 2313 1138 
L 53 1138 
L 53 1616 
Q 656 2294 1265 3178 
Q 1875 4063 2272 4841 
L 2906 4841 
z
M 741 1644 
L 2313 1644 
L 2313 3950 
Q 1988 3366 1616 2817 
Q 1244 2269 741 1644 
z
" transform="scale(0.015625)"/>
     </defs>
     <use xlink:href="#MicrosoftYaHei-23"/>
     <use xlink:href="#MicrosoftYaHei-31" transform="translate(63.818359 0)"/>
     <use xlink:href="#MicrosoftYaHei-66" transform="translate(122.460938 0)"/>
     <use xlink:href="#MicrosoftYaHei-37" transform="translate(157.128906 0)"/>
     <use xlink:href="#MicrosoftYaHei-37" transform="translate(215.771484 0)"/>
     <use xlink:href="#MicrosoftYaHei-62" transform="translate(274.414062 0)"/>
     <use xlink:href="#MicrosoftYaHei-34" transform="translate(338.28125 0)"/>
    </g>
   </g>
   <g id="text_9">
    <!-- #ff7f0e -->
    <g transform="translate(129.643281 433.154375) scale(0.08 -0.08)">
     <defs>
      <path id="MicrosoftYaHei-30" d="M 284 2325 
Q 284 3606 709 4264 
Q 1134 4922 1941 4922 
Q 3478 4922 3478 2441 
Q 3478 1216 3045 567 
Q 2613 -81 1831 -81 
Q 1094 -81 689 534 
Q 284 1150 284 2325 
z
M 909 2353 
Q 909 425 1888 425 
Q 2850 425 2850 2384 
Q 2850 4413 1906 4413 
Q 909 4413 909 2353 
z
" transform="scale(0.015625)"/>
     </defs>
     <use xlink:href="#MicrosoftYaHei-23"/>
     <use xlink:href="#MicrosoftYaHei-66" transform="translate(63.818359 0)"/>
     <use xlink:href="#MicrosoftYaHei-66" transform="translate(98.486328 0)"/>
     <use xlink:href="#MicrosoftYaHei-37" transform="translate(133.154297 0)"/>
     <use xlink:href="#MicrosoftYaHei-66" transform="translate(191.796875 0)"/>
     <use xlink:href="#MicrosoftYaHei-30" transform="translate(226.464844 0)"/>
     <use xlink:href="#MicrosoftYaHei-65" transform="translate(285.107422 0)"/>
    </g>
   </g>
   <g id="text_10">
    <!-- #2ca02c -->
    <g style="fill: #ffffff" transform="translate(183.305156 433.154375) scale(0.08 -0.08)">
     <defs>
      <path id="MicrosoftYaHei-32" d="M 2666 3572 
Q 2666 3963 2419 4186 
Q 2172 4409 1747 4409 
Q 1447 4409 1140 4256 
Q 834 4103 569 3819 
L 569 4413 
Q 806 4659 1107 4790 
Q 1409 4922 1816 4922 
Q 2472 4922 2872 4570 
Q 3272 4219 3272 3619 
Q 3272 3084 3026 2693 
Q 2781 2303 2188 1894 
Q 1581 1475 1376 1294 
Q 1172 1113 1090 947 
Q 1009 781 1009 544 
L 3416 544 
L 3416 0 
L 372 0 
L 372 241 
Q 372 659 486 951 
Q 600 1244 862 1520 
Q 1125 1797 1681 2184 
Q 2250 2584 2458 2886 
Q 2666 3188 2666 3572 
z
" transform="scale(0.015625)"/>
     </defs>
     <use xlink:href="#MicrosoftYaHei-23"/>
     <use xlink:href="#MicrosoftYaHei-32" transform="translate(63.818359 0)"/>
     <use xlink:href="#MicrosoftYaHei-63" transform="translate(122.460938 0)"/>
     <use xlink:href="#MicrosoftYaHei-61" transform="translate(172.607422 0)"/>
     <use xlink:href="#MicrosoftYaHei-30" transform="translate(227.880859 0)"/>
     <use xlink:href="#MicrosoftYaHei-32" transform="translate(286.523438 0)"/>
     <use xlink:href="#MicrosoftYaHei-63" transform="translate(345.166016 0)"/>
    </g>
   </g>
   <g id="text_11">
    <!-- #d62728 -->
    <g style="fill: #ffffff" transform="translate(238.077656 433.154375) scale(0.08 -0.08)">
     <defs>
      <path id="MicrosoftYaHei-36" d="M 3181 4219 
Q 2803 4413 2391 4413 
Q 1763 4413 1381 3866 
Q 1000 3319 994 2372 
L 1009 2372 
Q 1353 3038 2106 3038 
Q 2734 3038 3109 2628 
Q 3484 2219 3484 1541 
Q 3484 831 3051 375 
Q 2619 -81 1947 -81 
Q 1209 -81 789 495 
Q 369 1072 369 2131 
Q 369 3413 920 4167 
Q 1472 4922 2372 4922 
Q 2888 4922 3181 4781 
L 3181 4219 
z
M 1031 1584 
Q 1031 1106 1286 765 
Q 1541 425 1963 425 
Q 2363 425 2613 719 
Q 2863 1013 2863 1475 
Q 2863 1975 2627 2253 
Q 2391 2531 1956 2531 
Q 1544 2531 1287 2250 
Q 1031 1969 1031 1584 
z
" transform="scale(0.015625)"/>
      <path id="MicrosoftYaHei-38" d="M 306 1350 
Q 306 1769 556 2122 
Q 806 2475 1200 2625 
Q 884 2803 700 3081 
Q 516 3359 516 3684 
Q 516 4028 692 4312 
Q 869 4597 1183 4759 
Q 1497 4922 1875 4922 
Q 2256 4922 2572 4761 
Q 2888 4600 3063 4315 
Q 3238 4031 3238 3684 
Q 3238 3366 3058 3086 
Q 2878 2806 2559 2625 
Q 2953 2472 3200 2119 
Q 3447 1766 3447 1350 
Q 3447 938 3250 611 
Q 3053 284 2690 103 
Q 2328 -78 1875 -78 
Q 1425 -78 1065 103 
Q 706 284 506 612 
Q 306 941 306 1350 
z
M 906 1378 
Q 906 947 1172 687 
Q 1438 428 1878 428 
Q 2309 428 2582 692 
Q 2856 956 2856 1378 
Q 2856 1778 2579 2051 
Q 2303 2325 1878 2325 
Q 1456 2325 1181 2058 
Q 906 1791 906 1378 
z
M 1081 3634 
Q 1081 3309 1312 3076 
Q 1544 2844 1878 2844 
Q 2206 2844 2445 3078 
Q 2684 3313 2684 3634 
Q 2684 3963 2454 4191 
Q 2225 4419 1878 4419 
Q 1534 4419 1307 4195 
Q 1081 3972 1081 3634 
z
" transform="scale(0.015625)"/>
     </defs>
     <use xlink:href="#MicrosoftYaHei-23"/>
     <use xlink:href="#MicrosoftYaHei-64" transform="translate(63.818359 0)"/>
     <use xlink:href="#MicrosoftYaHei-36" transform="translate(127.783203 0)"/>
     <use xlink:href="#MicrosoftYaHei-32" transform="translate(186.425781 0)"/>
     <use xlink:href="#MicrosoftYaHei-37" transform="translate(245.068359 0)"/>
     <use xlink:href="#MicrosoftYaHei-32" transform="translate(303.710938 0)"/>
     <use xlink:href="#MicrosoftYaHei-38" transform="translate(362.353516 0)"/>
    </g>
   </g>
   <g id="text_12">
    <!-- #9467bd -->
    <g style="fill: #ffffff" transform="translate(293.668281 433.154375) scale(0.08 -0.08)">
     <defs>
      <path id="MicrosoftYaHei-39" d="M 578 656 
Q 978 425 1441 425 
Q 2091 425 2448 937 
Q 2806 1450 2806 2394 
Q 2800 2388 2794 2394 
Q 2475 1788 1722 1788 
Q 1113 1788 713 2206 
Q 313 2625 313 3294 
Q 313 4006 750 4464 
Q 1188 4922 1884 4922 
Q 2606 4922 3012 4355 
Q 3419 3788 3419 2703 
Q 3419 1363 2894 641 
Q 2369 -81 1441 -81 
Q 931 -81 578 84 
L 578 656 
z
M 931 3372 
Q 931 2884 1181 2598 
Q 1431 2313 1872 2313 
Q 2253 2313 2512 2573 
Q 2772 2834 2772 3206 
Q 2772 3728 2514 4070 
Q 2256 4413 1834 4413 
Q 1444 4413 1187 4116 
Q 931 3819 931 3372 
z
" transform="scale(0.015625)"/>
     </defs>
     <use xlink:href="#MicrosoftYaHei-23"/>
     <use xlink:href="#MicrosoftYaHei-39" transform="translate(63.818359 0)"/>
     <use xlink:href="#MicrosoftYaHei-34" transform="translate(122.460938 0)"/>
     <use xlink:href="#MicrosoftYaHei-36" transform="translate(181.103516 0)"/>
     <use xlink:href="#MicrosoftYaHei-37" transform="translate(239.746094 0)"/>
     <use xlink:href="#MicrosoftYaHei-62" transform="translate(298.388672 0)"/>
     <use xlink:href="#MicrosoftYaHei-64" transform="translate(362.255859 0)"/>
    </g>
   </g>
   <g id="text_13">
    <!-- #8c564b -->
    <g style="fill: #ffffff" transform="translate(350.021406 433.154375) scale(0.08 -0.08)">
     <defs>
      <path id="MicrosoftYaHei-35" d="M 3294 1494 
Q 3294 784 2823 350 
Q 2353 -84 1559 -84 
Q 878 -84 544 119 
L 544 744 
Q 1034 425 1544 425 
Q 2050 425 2361 704 
Q 2672 984 2672 1447 
Q 2672 1909 2348 2167 
Q 2025 2425 1434 2425 
Q 978 2425 613 2384 
L 791 4841 
L 3053 4841 
L 3053 4303 
L 1306 4303 
L 1206 2931 
L 1647 2950 
Q 2416 2950 2855 2567 
Q 3294 2184 3294 1494 
z
" transform="scale(0.015625)"/>
     </defs>
     <use xlink:href="#MicrosoftYaHei-23"/>
     <use xlink:href="#MicrosoftYaHei-38" transform="translate(63.818359 0)"/>
     <use xlink:href="#MicrosoftYaHei-63" transform="translate(122.460938 0)"/>
     <use xlink:href="#MicrosoftYaHei-35" transform="translate(172.607422 0)"/>
     <use xlink:href="#MicrosoftYaHei-36" transform="translate(231.25 0)"/>
     <use xlink:href="#MicrosoftYaHei-34" transform="translate(289.892578 0)"/>
     <use xlink:href="#MicrosoftYaHei-62" transform="translate(348.535156 0)"/>
    </g>
   </g>
   <g id="text_14">
    <!-- #e377c2 -->
    <g transform="translate(406.107031 433.154375) scale(0.08 -0.08)">
     <defs>
      <path id="MicrosoftYaHei-33" d="M 447 809 
Q 944 425 1569 425 
Q 2069 425 2361 670 
Q 2653 916 2653 1328 
Q 2653 2247 1338 2247 
L 934 2247 
L 934 2753 
L 1319 2753 
Q 2484 2753 2484 3616 
Q 2484 4413 1594 4413 
Q 1084 4413 634 4069 
L 634 4647 
Q 1109 4922 1744 4922 
Q 2363 4922 2738 4598 
Q 3113 4275 3113 3759 
Q 3113 2809 2144 2538 
L 2144 2525 
Q 2669 2469 2973 2155 
Q 3278 1841 3278 1372 
Q 3278 719 2808 319 
Q 2338 -81 1556 -81 
Q 869 -81 447 175 
L 447 809 
z
" transform="scale(0.015625)"/>
     </defs>
     <use xlink:href="#MicrosoftYaHei-23"/>
     <use xlink:href="#MicrosoftYaHei-65" transform="translate(63.818359 0)"/>
     <use xlink:href="#MicrosoftYaHei-33" transform="translate(120.556641 0)"/>
     <use xlink:href="#MicrosoftYaHei-37" transform="translate(179.199219 0)"/>
     <use xlink:href="#MicrosoftYaHei-37" transform="translate(237.841797 0)"/>
     <use xlink:href="#MicrosoftYaHei-63" transform="translate(296.484375 0)"/>
     <use xlink:href="#MicrosoftYaHei-32" transform="translate(346.630859 0)"/>
    </g>
   </g>
   <g id="text_15">
    <!-- #7f7f7f -->
    <g style="fill: #ffffff" transform="translate(464.367031 433.154375) scale(0.08 -0.08)">
     <use xlink:href="#MicrosoftYaHei-23"/>
     <use xlink:href="#MicrosoftYaHei-37" transform="translate(63.818359 0)"/>
     <use xlink:href="#MicrosoftYaHei-66" transform="translate(122.460938 0)"/>
     <use xlink:href="#MicrosoftYaHei-37" transform="translate(157.128906 0)"/>
     <use xlink:href="#MicrosoftYaHei-66" transform="translate(215.771484 0)"/>
     <use xlink:href="#MicrosoftYaHei-37" transform="translate(250.439453 0)"/>
     <use xlink:href="#MicrosoftYaHei-66" transform="translate(309.082031 0)"/>
    </g>
   </g>
   <g id="text_16">
    <!-- #bcbd22 -->
    <g transform="translate(516.998906 433.154375) scale(0.08 -0.08)">
     <use xlink:href="#MicrosoftYaHei-23"/>
     <use xlink:href="#MicrosoftYaHei-62" transform="translate(63.818359 0)"/>
     <use xlink:href="#MicrosoftYaHei-63" transform="translate(127.685547 0)"/>
     <use xlink:href="#MicrosoftYaHei-62" transform="translate(177.832031 0)"/>
     <use xlink:href="#MicrosoftYaHei-64" transform="translate(241.699219 0)"/>
     <use xlink:href="#MicrosoftYaHei-32" transform="translate(305.664062 0)"/>
     <use xlink:href="#MicrosoftYaHei-32" transform="translate(364.306641 0)"/>
    </g>
   </g>
   <g id="text_17">
    <!-- #17becf -->
    <g transform="translate(574.256406 433.154375) scale(0.08 -0.08)">
     <use xlink:href="#MicrosoftYaHei-23"/>
     <use xlink:href="#MicrosoftYaHei-31" transform="translate(63.818359 0)"/>
     <use xlink:href="#MicrosoftYaHei-37" transform="translate(122.460938 0)"/>
     <use xlink:href="#MicrosoftYaHei-62" transform="translate(181.103516 0)"/>
     <use xlink:href="#MicrosoftYaHei-65" transform="translate(244.970703 0)"/>
     <use xlink:href="#MicrosoftYaHei-63" transform="translate(301.708984 0)"/>
     <use xlink:href="#MicrosoftYaHei-66" transform="translate(351.855469 0)"/>
    </g>
   </g>
   <g id="text_18">
    <!-- #a1c9f4 -->
    <g transform="translate(72.323906 359.234375) scale(0.08 -0.08)">
     <use xlink:href="#MicrosoftYaHei-23"/>
     <use xlink:href="#MicrosoftYaHei-61" transform="translate(63.818359 0)"/>
     <use xlink:href="#MicrosoftYaHei-31" transform="translate(119.091797 0)"/>
     <use xlink:href="#MicrosoftYaHei-63" transform="translate(177.734375 0)"/>
     <use xlink:href="#MicrosoftYaHei-39" transform="translate(227.880859 0)"/>
     <use xlink:href="#MicrosoftYaHei-66" transform="translate(286.523438 0)"/>
     <use xlink:href="#MicrosoftYaHei-34" transform="translate(321.191406 0)"/>
    </g>
   </g>
   <g id="text_19">
    <!-- #ffb482 -->
    <g transform="translate(128.363906 359.234375) scale(0.08 -0.08)">
     <use xlink:href="#MicrosoftYaHei-23"/>
     <use xlink:href="#MicrosoftYaHei-66" transform="translate(63.818359 0)"/>
     <use xlink:href="#MicrosoftYaHei-66" transform="translate(98.486328 0)"/>
     <use xlink:href="#MicrosoftYaHei-62" transform="translate(134.029297 0)"/>
     <use xlink:href="#MicrosoftYaHei-34" transform="translate(197.896484 0)"/>
     <use xlink:href="#MicrosoftYaHei-38" transform="translate(256.539062 0)"/>
     <use xlink:href="#MicrosoftYaHei-32" transform="translate(315.181641 0)"/>
    </g>
   </g>
   <g id="text_20">
    <!-- #8de5a1 -->
    <g transform="translate(182.488281 359.234375) scale(0.08 -0.08)">
     <use xlink:href="#MicrosoftYaHei-23"/>
     <use xlink:href="#MicrosoftYaHei-38" transform="translate(63.818359 0)"/>
     <use xlink:href="#MicrosoftYaHei-64" transform="translate(122.460938 0)"/>
     <use xlink:href="#MicrosoftYaHei-65" transform="translate(186.425781 0)"/>
     <use xlink:href="#MicrosoftYaHei-35" transform="translate(243.164062 0)"/>
     <use xlink:href="#MicrosoftYaHei-61" transform="translate(301.806641 0)"/>
     <use xlink:href="#MicrosoftYaHei-31" transform="translate(357.080078 0)"/>
    </g>
   </g>
   <g id="text_21">
    <!-- #ff9f9b -->
    <g transform="translate(240.957656 359.234375) scale(0.08 -0.08)">
     <use xlink:href="#MicrosoftYaHei-23"/>
     <use xlink:href="#MicrosoftYaHei-66" transform="translate(63.818359 0)"/>
     <use xlink:href="#MicrosoftYaHei-66" transform="translate(98.486328 0)"/>
     <use xlink:href="#MicrosoftYaHei-39" transform="translate(133.154297 0)"/>
     <use xlink:href="#MicrosoftYaHei-66" transform="translate(191.796875 0)"/>
     <use xlink:href="#MicrosoftYaHei-39" transform="translate(226.464844 0)"/>
     <use xlink:href="#MicrosoftYaHei-62" transform="translate(285.107422 0)"/>
    </g>
   </g>
   <g id="text_22">
    <!-- #d0bbff -->
    <g transform="translate(295.396406 359.234375) scale(0.08 -0.08)">
     <use xlink:href="#MicrosoftYaHei-23"/>
     <use xlink:href="#MicrosoftYaHei-64" transform="translate(63.818359 0)"/>
     <use xlink:href="#MicrosoftYaHei-30" transform="translate(127.783203 0)"/>
     <use xlink:href="#MicrosoftYaHei-62" transform="translate(186.425781 0)"/>
     <use xlink:href="#MicrosoftYaHei-62" transform="translate(250.292969 0)"/>
     <use xlink:href="#MicrosoftYaHei-66" transform="translate(313.660156 0)"/>
     <use xlink:href="#MicrosoftYaHei-66" transform="translate(348.328125 0)"/>
    </g>
   </g>
   <g id="text_23">
    <!-- #debb9b -->
    <g transform="translate(349.125781 359.234375) scale(0.08 -0.08)">
     <use xlink:href="#MicrosoftYaHei-23"/>
     <use xlink:href="#MicrosoftYaHei-64" transform="translate(63.818359 0)"/>
     <use xlink:href="#MicrosoftYaHei-65" transform="translate(127.783203 0)"/>
     <use xlink:href="#MicrosoftYaHei-62" transform="translate(184.521484 0)"/>
     <use xlink:href="#MicrosoftYaHei-62" transform="translate(248.388672 0)"/>
     <use xlink:href="#MicrosoftYaHei-39" transform="translate(312.255859 0)"/>
     <use xlink:href="#MicrosoftYaHei-62" transform="translate(370.898438 0)"/>
    </g>
   </g>
   <g id="text_24">
    <!-- #fab0e4 -->
    <g transform="translate(406.650781 359.234375) scale(0.08 -0.08)">
     <use xlink:href="#MicrosoftYaHei-23"/>
     <use xlink:href="#MicrosoftYaHei-66" transform="translate(63.818359 0)"/>
     <use xlink:href="#MicrosoftYaHei-61" transform="translate(98.486328 0)"/>
     <use xlink:href="#MicrosoftYaHei-62" transform="translate(153.759766 0)"/>
     <use xlink:href="#MicrosoftYaHei-30" transform="translate(217.626953 0)"/>
     <use xlink:href="#MicrosoftYaHei-65" transform="translate(276.269531 0)"/>
     <use xlink:href="#MicrosoftYaHei-34" transform="translate(333.007812 0)"/>
    </g>
   </g>
   <g id="text_25">
    <!-- #cfcfcf -->
    <g transform="translate(465.387031 359.234375) scale(0.08 -0.08)">
     <use xlink:href="#MicrosoftYaHei-23"/>
     <use xlink:href="#MicrosoftYaHei-63" transform="translate(63.818359 0)"/>
     <use xlink:href="#MicrosoftYaHei-66" transform="translate(113.964844 0)"/>
     <use xlink:href="#MicrosoftYaHei-63" transform="translate(148.632812 0)"/>
     <use xlink:href="#MicrosoftYaHei-66" transform="translate(198.779297 0)"/>
     <use xlink:href="#MicrosoftYaHei-63" transform="translate(233.447266 0)"/>
     <use xlink:href="#MicrosoftYaHei-66" transform="translate(283.59375 0)"/>
    </g>
   </g>
   <g id="text_26">
    <!-- #fffea3 -->
    <g transform="translate(520.377656 359.234375) scale(0.08 -0.08)">
     <use xlink:href="#MicrosoftYaHei-23"/>
     <use xlink:href="#MicrosoftYaHei-66" transform="translate(63.818359 0)"/>
     <use xlink:href="#MicrosoftYaHei-66" transform="translate(98.486328 0)"/>
     <use xlink:href="#MicrosoftYaHei-66" transform="translate(133.154297 0)"/>
     <use xlink:href="#MicrosoftYaHei-65" transform="translate(167.822266 0)"/>
     <use xlink:href="#MicrosoftYaHei-61" transform="translate(224.560547 0)"/>
     <use xlink:href="#MicrosoftYaHei-33" transform="translate(279.833984 0)"/>
    </g>
   </g>
   <g id="text_27">
    <!-- #b9f2f0 -->
    <g transform="translate(574.798906 359.234375) scale(0.08 -0.08)">
     <use xlink:href="#MicrosoftYaHei-23"/>
     <use xlink:href="#MicrosoftYaHei-62" transform="translate(63.818359 0)"/>
     <use xlink:href="#MicrosoftYaHei-39" transform="translate(127.685547 0)"/>
     <use xlink:href="#MicrosoftYaHei-66" transform="translate(186.328125 0)"/>
     <use xlink:href="#MicrosoftYaHei-32" transform="translate(220.996094 0)"/>
     <use xlink:href="#MicrosoftYaHei-66" transform="translate(279.638672 0)"/>
     <use xlink:href="#MicrosoftYaHei-30" transform="translate(314.306641 0)"/>
    </g>
   </g>
   <g id="text_28">
    <!-- #0077bb -->
    <g style="fill: #ffffff" transform="translate(70.472031 285.314375) scale(0.08 -0.08)">
     <use xlink:href="#MicrosoftYaHei-23"/>
     <use xlink:href="#MicrosoftYaHei-30" transform="translate(63.818359 0)"/>
     <use xlink:href="#MicrosoftYaHei-30" transform="translate(122.460938 0)"/>
     <use xlink:href="#MicrosoftYaHei-37" transform="translate(181.103516 0)"/>
     <use xlink:href="#MicrosoftYaHei-37" transform="translate(239.746094 0)"/>
     <use xlink:href="#MicrosoftYaHei-62" transform="translate(298.388672 0)"/>
     <use xlink:href="#MicrosoftYaHei-62" transform="translate(362.255859 0)"/>
    </g>
   </g>
   <g id="text_29">
    <!-- #cc3311 -->
    <g style="fill: #ffffff" transform="translate(127.370781 285.314375) scale(0.08 -0.08)">
     <use xlink:href="#MicrosoftYaHei-23"/>
     <use xlink:href="#MicrosoftYaHei-63" transform="translate(63.818359 0)"/>
     <use xlink:href="#MicrosoftYaHei-63" transform="translate(113.964844 0)"/>
     <use xlink:href="#MicrosoftYaHei-33" transform="translate(164.111328 0)"/>
     <use xlink:href="#MicrosoftYaHei-33" transform="translate(222.753906 0)"/>
     <use xlink:href="#MicrosoftYaHei-31" transform="translate(281.396484 0)"/>
     <use xlink:href="#MicrosoftYaHei-31" transform="translate(340.039062 0)"/>
    </g>
   </g>
   <g id="text_30">
    <!-- #009988 -->
    <g style="fill: #ffffff" transform="translate(182.490781 285.314375) scale(0.08 -0.08)">
     <use xlink:href="#MicrosoftYaHei-23"/>
     <use xlink:href="#MicrosoftYaHei-30" transform="translate(63.818359 0)"/>
     <use xlink:href="#MicrosoftYaHei-30" transform="translate(122.460938 0)"/>
     <use xlink:href="#MicrosoftYaHei-39" transform="translate(181.103516 0)"/>
     <use xlink:href="#MicrosoftYaHei-39" transform="translate(239.746094 0)"/>
     <use xlink:href="#MicrosoftYaHei-38" transform="translate(298.388672 0)"/>
     <use xlink:href="#MicrosoftYaHei-38" transform="translate(357.03125 0)"/>
    </g>
   </g>
   <g id="text_31">
    <!-- #ee7733 -->
    <g transform="translate(238.443281 285.314375) scale(0.08 -0.08)">
     <use xlink:href="#MicrosoftYaHei-23"/>
     <use xlink:href="#MicrosoftYaHei-65" transform="translate(63.818359 0)"/>
     <use xlink:href="#MicrosoftYaHei-65" transform="translate(120.556641 0)"/>
     <use xlink:href="#MicrosoftYaHei-37" transform="translate(177.294922 0)"/>
     <use xlink:href="#MicrosoftYaHei-37" transform="translate(235.9375 0)"/>
     <use xlink:href="#MicrosoftYaHei-33" transform="translate(294.580078 0)"/>
     <use xlink:href="#MicrosoftYaHei-33" transform="translate(353.222656 0)"/>
    </g>
   </g>
   <g id="text_32">
    <!-- #33bbee -->
    <g transform="translate(293.824531 285.314375) scale(0.08 -0.08)">
     <use xlink:href="#MicrosoftYaHei-23"/>
     <use xlink:href="#MicrosoftYaHei-33" transform="translate(63.818359 0)"/>
     <use xlink:href="#MicrosoftYaHei-33" transform="translate(122.460938 0)"/>
     <use xlink:href="#MicrosoftYaHei-62" transform="translate(181.103516 0)"/>
     <use xlink:href="#MicrosoftYaHei-62" transform="translate(244.970703 0)"/>
     <use xlink:href="#MicrosoftYaHei-65" transform="translate(308.837891 0)"/>
     <use xlink:href="#MicrosoftYaHei-65" transform="translate(365.576172 0)"/>
    </g>
   </g>
   <g id="text_33">
    <!-- #ee3377 -->
    <g style="fill: #ffffff" transform="translate(350.043281 285.314375) scale(0.08 -0.08)">
     <use xlink:href="#MicrosoftYaHei-23"/>
     <use xlink:href="#MicrosoftYaHei-65" transform="translate(63.818359 0)"/>
     <use xlink:href="#MicrosoftYaHei-65" transform="translate(120.556641 0)"/>
     <use xlink:href="#MicrosoftYaHei-33" transform="translate(177.294922 0)"/>
     <use xlink:href="#MicrosoftYaHei-33" transform="translate(235.9375 0)"/>
     <use xlink:href="#MicrosoftYaHei-37" transform="translate(294.580078 0)"/>
     <use xlink:href="#MicrosoftYaHei-37" transform="translate(353.222656 0)"/>
    </g>
   </g>
   <g id="text_34">
    <!-- #bbbbbb -->
    <g transform="translate(404.434531 285.314375) scale(0.08 -0.08)">
     <use xlink:href="#MicrosoftYaHei-23"/>
     <use xlink:href="#MicrosoftYaHei-62" transform="translate(63.818359 0)"/>
     <use xlink:href="#MicrosoftYaHei-62" transform="translate(127.685547 0)"/>
     <use xlink:href="#MicrosoftYaHei-62" transform="translate(191.552734 0)"/>
     <use xlink:href="#MicrosoftYaHei-62" transform="translate(255.419922 0)"/>
     <use xlink:href="#MicrosoftYaHei-62" transform="translate(319.287109 0)"/>
     <use xlink:href="#MicrosoftYaHei-62" transform="translate(383.154297 0)"/>
    </g>
   </g>
   <g id="text_35">
    <!-- #4878d0 -->
    <g style="fill: #ffffff" transform="translate(70.677656 211.394375) scale(0.08 -0.08)">
     <use xlink:href="#MicrosoftYaHei-23"/>
     <use xlink:href="#MicrosoftYaHei-34" transform="translate(63.818359 0)"/>
     <use xlink:href="#MicrosoftYaHei-38" transform="translate(122.460938 0)"/>
     <use xlink:href="#MicrosoftYaHei-37" transform="translate(181.103516 0)"/>
     <use xlink:href="#MicrosoftYaHei-38" transform="translate(239.746094 0)"/>
     <use xlink:href="#MicrosoftYaHei-64" transform="translate(298.388672 0)"/>
     <use xlink:href="#MicrosoftYaHei-30" transform="translate(362.353516 0)"/>
    </g>
   </g>
   <g id="text_36">
    <!-- #ee854a -->
    <g transform="translate(126.977656 211.394375) scale(0.08 -0.08)">
     <use xlink:href="#MicrosoftYaHei-23"/>
     <use xlink:href="#MicrosoftYaHei-65" transform="translate(63.818359 0)"/>
     <use xlink:href="#MicrosoftYaHei-65" transform="translate(120.556641 0)"/>
     <use xlink:href="#MicrosoftYaHei-38" transform="translate(177.294922 0)"/>
     <use xlink:href="#MicrosoftYaHei-35" transform="translate(235.9375 0)"/>
     <use xlink:href="#MicrosoftYaHei-34" transform="translate(294.580078 0)"/>
     <use xlink:href="#MicrosoftYaHei-61" transform="translate(353.222656 0)"/>
    </g>
   </g>
   <g id="text_37">
    <!-- #6acc64 -->
    <g transform="translate(183.305156 211.394375) scale(0.08 -0.08)">
     <use xlink:href="#MicrosoftYaHei-23"/>
     <use xlink:href="#MicrosoftYaHei-36" transform="translate(63.818359 0)"/>
     <use xlink:href="#MicrosoftYaHei-61" transform="translate(122.460938 0)"/>
     <use xlink:href="#MicrosoftYaHei-63" transform="translate(177.734375 0)"/>
     <use xlink:href="#MicrosoftYaHei-63" transform="translate(227.880859 0)"/>
     <use xlink:href="#MicrosoftYaHei-36" transform="translate(278.027344 0)"/>
     <use xlink:href="#MicrosoftYaHei-34" transform="translate(336.669922 0)"/>
    </g>
   </g>
   <g id="text_38">
    <!-- #d65f5f -->
    <g transform="translate(239.995156 211.394375) scale(0.08 -0.08)">
     <use xlink:href="#MicrosoftYaHei-23"/>
     <use xlink:href="#MicrosoftYaHei-64" transform="translate(63.818359 0)"/>
     <use xlink:href="#MicrosoftYaHei-36" transform="translate(127.783203 0)"/>
     <use xlink:href="#MicrosoftYaHei-35" transform="translate(186.425781 0)"/>
     <use xlink:href="#MicrosoftYaHei-66" transform="translate(245.068359 0)"/>
     <use xlink:href="#MicrosoftYaHei-35" transform="translate(279.736328 0)"/>
     <use xlink:href="#MicrosoftYaHei-66" transform="translate(338.378906 0)"/>
    </g>
   </g>
   <g id="text_39">
    <!-- #956cb4 -->
    <g transform="translate(294.221406 211.394375) scale(0.08 -0.08)">
     <use xlink:href="#MicrosoftYaHei-23"/>
     <use xlink:href="#MicrosoftYaHei-39" transform="translate(63.818359 0)"/>
     <use xlink:href="#MicrosoftYaHei-35" transform="translate(122.460938 0)"/>
     <use xlink:href="#MicrosoftYaHei-36" transform="translate(181.103516 0)"/>
     <use xlink:href="#MicrosoftYaHei-63" transform="translate(239.746094 0)"/>
     <use xlink:href="#MicrosoftYaHei-62" transform="translate(289.892578 0)"/>
     <use xlink:href="#MicrosoftYaHei-34" transform="translate(353.759766 0)"/>
    </g>
   </g>
   <g id="text_40">
    <!-- #8c613c -->
    <g style="fill: #ffffff" transform="translate(350.570781 211.394375) scale(0.08 -0.08)">
     <use xlink:href="#MicrosoftYaHei-23"/>
     <use xlink:href="#MicrosoftYaHei-38" transform="translate(63.818359 0)"/>
     <use xlink:href="#MicrosoftYaHei-63" transform="translate(122.460938 0)"/>
     <use xlink:href="#MicrosoftYaHei-36" transform="translate(172.607422 0)"/>
     <use xlink:href="#MicrosoftYaHei-31" transform="translate(231.25 0)"/>
     <use xlink:href="#MicrosoftYaHei-33" transform="translate(289.892578 0)"/>
     <use xlink:href="#MicrosoftYaHei-63" transform="translate(348.535156 0)"/>
    </g>
   </g>
   <g id="text_41">
    <!-- #dc7ec0 -->
    <g transform="translate(406.233906 211.394375) scale(0.08 -0.08)">
     <use xlink:href="#MicrosoftYaHei-23"/>
     <use xlink:href="#MicrosoftYaHei-64" transform="translate(63.818359 0)"/>
     <use xlink:href="#MicrosoftYaHei-63" transform="translate(127.783203 0)"/>
     <use xlink:href="#MicrosoftYaHei-37" transform="translate(177.929688 0)"/>
     <use xlink:href="#MicrosoftYaHei-65" transform="translate(236.572266 0)"/>
     <use xlink:href="#MicrosoftYaHei-63" transform="translate(293.310547 0)"/>
     <use xlink:href="#MicrosoftYaHei-30" transform="translate(343.457031 0)"/>
    </g>
   </g>
   <g id="text_42">
    <!-- #797979 -->
    <g style="fill: #ffffff" transform="translate(461.490781 211.394375) scale(0.08 -0.08)">
     <use xlink:href="#MicrosoftYaHei-23"/>
     <use xlink:href="#MicrosoftYaHei-37" transform="translate(63.818359 0)"/>
     <use xlink:href="#MicrosoftYaHei-39" transform="translate(122.460938 0)"/>
     <use xlink:href="#MicrosoftYaHei-37" transform="translate(181.103516 0)"/>
     <use xlink:href="#MicrosoftYaHei-39" transform="translate(239.746094 0)"/>
     <use xlink:href="#MicrosoftYaHei-37" transform="translate(298.388672 0)"/>
     <use xlink:href="#MicrosoftYaHei-39" transform="translate(357.03125 0)"/>
    </g>
   </g>
   <g id="text_43">
    <!-- #d5bb67 -->
    <g transform="translate(516.658906 211.394375) scale(0.08 -0.08)">
     <use xlink:href="#MicrosoftYaHei-23"/>
     <use xlink:href="#MicrosoftYaHei-64" transform="translate(63.818359 0)"/>
     <use xlink:href="#MicrosoftYaHei-35" transform="translate(127.783203 0)"/>
     <use xlink:href="#MicrosoftYaHei-62" transform="translate(186.425781 0)"/>
     <use xlink:href="#MicrosoftYaHei-62" transform="translate(250.292969 0)"/>
     <use xlink:href="#MicrosoftYaHei-36" transform="translate(314.160156 0)"/>
     <use xlink:href="#MicrosoftYaHei-37" transform="translate(372.802734 0)"/>
    </g>
   </g>
   <g id="text_44">
    <!-- #82c6e2 -->
    <g transform="translate(573.507031 211.394375) scale(0.08 -0.08)">
     <use xlink:href="#MicrosoftYaHei-23"/>
     <use xlink:href="#MicrosoftYaHei-38" transform="translate(63.818359 0)"/>
     <use xlink:href="#MicrosoftYaHei-32" transform="translate(122.460938 0)"/>
     <use xlink:href="#MicrosoftYaHei-63" transform="translate(181.103516 0)"/>
     <use xlink:href="#MicrosoftYaHei-36" transform="translate(231.25 0)"/>
     <use xlink:href="#MicrosoftYaHei-65" transform="translate(289.892578 0)"/>
     <use xlink:href="#MicrosoftYaHei-32" transform="translate(346.630859 0)"/>
    </g>
   </g>
   <g id="text_45">
    <!-- #0C5DA5 -->
    <g style="fill: #ffffff" transform="translate(69.460781 137.474375) scale(0.08 -0.08)">
     <defs>
      <path id="MicrosoftYaHei-43" d="M 3938 200 
Q 3403 -81 2597 -81 
Q 1556 -81 934 580 
Q 313 1241 313 2328 
Q 313 3497 1013 4209 
Q 1713 4922 2791 4922 
Q 3484 4922 3938 4725 
L 3938 4072 
Q 3419 4359 2797 4359 
Q 1988 4359 1478 3820 
Q 969 3281 969 2366 
Q 969 1497 1444 986 
Q 1919 475 2688 475 
Q 3406 475 3938 800 
L 3938 200 
z
" transform="scale(0.015625)"/>
      <path id="MicrosoftYaHei-44" d="M 625 0 
L 625 4841 
L 2006 4841 
Q 3106 4841 3836 4200 
Q 4566 3559 4566 2481 
Q 4566 1356 3836 678 
Q 3106 0 1956 0 
L 625 0 
z
M 1250 4284 
L 1250 553 
L 1953 553 
Q 2875 553 3392 1056 
Q 3909 1559 3909 2466 
Q 3909 3372 3378 3828 
Q 2847 4284 1981 4284 
L 1250 4284 
z
" transform="scale(0.015625)"/>
      <path id="MicrosoftYaHei-41" d="M 4428 0 
L 3738 0 
L 3244 1325 
L 1228 1325 
L 763 0 
L 72 0 
L 1916 4841 
L 2584 4841 
L 4428 0 
z
M 3050 1872 
L 2319 3884 
Q 2284 3981 2244 4222 
L 2228 4222 
Q 2194 4003 2150 3884 
L 1425 1872 
L 3050 1872 
z
" transform="scale(0.015625)"/>
     </defs>
     <use xlink:href="#MicrosoftYaHei-23"/>
     <use xlink:href="#MicrosoftYaHei-30" transform="translate(63.818359 0)"/>
     <use xlink:href="#MicrosoftYaHei-43" transform="translate(122.460938 0)"/>
     <use xlink:href="#MicrosoftYaHei-35" transform="translate(189.355469 0)"/>
     <use xlink:href="#MicrosoftYaHei-44" transform="translate(247.998047 0)"/>
     <use xlink:href="#MicrosoftYaHei-41" transform="translate(322.419922 0)"/>
     <use xlink:href="#MicrosoftYaHei-35" transform="translate(392.78125 0)"/>
    </g>
   </g>
   <g id="text_46">
    <!-- #00B945 -->
    <g style="fill: #ffffff" transform="translate(126.526406 137.474375) scale(0.08 -0.08)">
     <defs>
      <path id="MicrosoftYaHei-42" d="M 625 0 
L 625 4841 
L 2047 4841 
Q 2684 4841 3065 4536 
Q 3447 4231 3447 3728 
Q 3447 3328 3220 3022 
Q 2994 2716 2597 2588 
L 2597 2575 
Q 3091 2519 3386 2201 
Q 3681 1884 3681 1397 
Q 3681 772 3232 386 
Q 2784 0 2084 0 
L 625 0 
z
M 1250 4294 
L 1250 2778 
L 1819 2778 
Q 2272 2778 2530 2998 
Q 2788 3219 2788 3609 
Q 2788 4294 1875 4294 
L 1250 4294 
z
M 1250 2234 
L 1250 547 
L 2000 547 
Q 2491 547 2758 773 
Q 3025 1000 3025 1403 
Q 3025 2234 1897 2234 
L 1250 2234 
z
" transform="scale(0.015625)"/>
     </defs>
     <use xlink:href="#MicrosoftYaHei-23"/>
     <use xlink:href="#MicrosoftYaHei-30" transform="translate(63.818359 0)"/>
     <use xlink:href="#MicrosoftYaHei-30" transform="translate(122.460938 0)"/>
     <use xlink:href="#MicrosoftYaHei-42" transform="translate(181.103516 0)"/>
     <use xlink:href="#MicrosoftYaHei-39" transform="translate(243.847656 0)"/>
     <use xlink:href="#MicrosoftYaHei-34" transform="translate(302.490234 0)"/>
     <use xlink:href="#MicrosoftYaHei-35" transform="translate(361.132812 0)"/>
    </g>
   </g>
   <g id="text_47">
    <!-- #FF9500 -->
    <g transform="translate(182.932031 137.474375) scale(0.08 -0.08)">
     <defs>
      <path id="MicrosoftYaHei-46" d="M 3119 4284 
L 1250 4284 
L 1250 2666 
L 2981 2666 
L 2981 2116 
L 1250 2116 
L 1250 0 
L 625 0 
L 625 4841 
L 3119 4841 
L 3119 4284 
z
" transform="scale(0.015625)"/>
     </defs>
     <use xlink:href="#MicrosoftYaHei-23"/>
     <use xlink:href="#MicrosoftYaHei-46" transform="translate(63.818359 0)"/>
     <use xlink:href="#MicrosoftYaHei-46" transform="translate(116.943359 0)"/>
     <use xlink:href="#MicrosoftYaHei-39" transform="translate(170.068359 0)"/>
     <use xlink:href="#MicrosoftYaHei-35" transform="translate(228.710938 0)"/>
     <use xlink:href="#MicrosoftYaHei-30" transform="translate(287.353516 0)"/>
     <use xlink:href="#MicrosoftYaHei-30" transform="translate(345.996094 0)"/>
    </g>
   </g>
   <g id="text_48">
    <!-- #FF2C00 -->
    <g style="fill: #ffffff" transform="translate(238.402031 137.474375) scale(0.08 -0.08)">
     <use xlink:href="#MicrosoftYaHei-23"/>
     <use xlink:href="#MicrosoftYaHei-46" transform="translate(63.818359 0)"/>
     <use xlink:href="#MicrosoftYaHei-46" transform="translate(116.943359 0)"/>
     <use xlink:href="#MicrosoftYaHei-32" transform="translate(170.068359 0)"/>
     <use xlink:href="#MicrosoftYaHei-43" transform="translate(228.710938 0)"/>
     <use xlink:href="#MicrosoftYaHei-30" transform="translate(295.605469 0)"/>
     <use xlink:href="#MicrosoftYaHei-30" transform="translate(354.248047 0)"/>
    </g>
   </g>
   <g id="text_49">
    <!-- #845B97 -->
    <g style="fill: #ffffff" transform="translate(293.926406 137.474375) scale(0.08 -0.08)">
     <use xlink:href="#MicrosoftYaHei-23"/>
     <use xlink:href="#MicrosoftYaHei-38" transform="translate(63.818359 0)"/>
     <use xlink:href="#MicrosoftYaHei-34" transform="translate(122.460938 0)"/>
     <use xlink:href="#MicrosoftYaHei-35" transform="translate(181.103516 0)"/>
     <use xlink:href="#MicrosoftYaHei-42" transform="translate(239.746094 0)"/>
     <use xlink:href="#MicrosoftYaHei-39" transform="translate(302.490234 0)"/>
     <use xlink:href="#MicrosoftYaHei-37" transform="translate(361.132812 0)"/>
    </g>
   </g>
   <g id="text_50">
    <!-- #474747 -->
    <g style="fill: #ffffff" transform="translate(349.890781 137.474375) scale(0.08 -0.08)">
     <use xlink:href="#MicrosoftYaHei-23"/>
     <use xlink:href="#MicrosoftYaHei-34" transform="translate(63.818359 0)"/>
     <use xlink:href="#MicrosoftYaHei-37" transform="translate(122.460938 0)"/>
     <use xlink:href="#MicrosoftYaHei-34" transform="translate(181.103516 0)"/>
     <use xlink:href="#MicrosoftYaHei-37" transform="translate(239.746094 0)"/>
     <use xlink:href="#MicrosoftYaHei-34" transform="translate(298.388672 0)"/>
     <use xlink:href="#MicrosoftYaHei-37" transform="translate(357.03125 0)"/>
    </g>
   </g>
   <g id="text_51">
    <!-- #9e9e9e -->
    <g transform="translate(405.919531 137.474375) scale(0.08 -0.08)">
     <use xlink:href="#MicrosoftYaHei-23"/>
     <use xlink:href="#MicrosoftYaHei-39" transform="translate(63.818359 0)"/>
     <use xlink:href="#MicrosoftYaHei-65" transform="translate(122.460938 0)"/>
     <use xlink:href="#MicrosoftYaHei-39" transform="translate(179.199219 0)"/>
     <use xlink:href="#MicrosoftYaHei-65" transform="translate(237.841797 0)"/>
     <use xlink:href="#MicrosoftYaHei-39" transform="translate(294.580078 0)"/>
     <use xlink:href="#MicrosoftYaHei-65" transform="translate(353.222656 0)"/>
    </g>
   </g>
   <g id="text_52">
    <!-- #4477AA -->
    <g style="fill: #ffffff" transform="translate(69.953281 63.554375) scale(0.08 -0.08)">
     <use xlink:href="#MicrosoftYaHei-23"/>
     <use xlink:href="#MicrosoftYaHei-34" transform="translate(63.818359 0)"/>
     <use xlink:href="#MicrosoftYaHei-34" transform="translate(122.460938 0)"/>
     <use xlink:href="#MicrosoftYaHei-37" transform="translate(181.103516 0)"/>
     <use xlink:href="#MicrosoftYaHei-37" transform="translate(239.746094 0)"/>
     <use xlink:href="#MicrosoftYaHei-41" transform="translate(298.388672 0)"/>
     <use xlink:href="#MicrosoftYaHei-41" transform="translate(368.75 0)"/>
    </g>
   </g>
   <g id="text_53">
    <!-- #66CCEE -->
    <g transform="translate(126.438281 63.554375) scale(0.08 -0.08)">
     <defs>
      <path id="MicrosoftYaHei-45" d="M 3228 0 
L 625 0 
L 625 4841 
L 3119 4841 
L 3119 4284 
L 1250 4284 
L 1250 2734 
L 2981 2734 
L 2981 2181 
L 1250 2181 
L 1250 553 
L 3228 553 
L 3228 0 
z
" transform="scale(0.015625)"/>
     </defs>
     <use xlink:href="#MicrosoftYaHei-23"/>
     <use xlink:href="#MicrosoftYaHei-36" transform="translate(63.818359 0)"/>
     <use xlink:href="#MicrosoftYaHei-36" transform="translate(122.460938 0)"/>
     <use xlink:href="#MicrosoftYaHei-43" transform="translate(181.103516 0)"/>
     <use xlink:href="#MicrosoftYaHei-43" transform="translate(245.123047 0)"/>
     <use xlink:href="#MicrosoftYaHei-45" transform="translate(312.017578 0)"/>
     <use xlink:href="#MicrosoftYaHei-45" transform="translate(366.998047 0)"/>
    </g>
   </g>
   <g id="text_54">
    <!-- #228833 -->
    <g style="fill: #ffffff" transform="translate(182.490781 63.554375) scale(0.08 -0.08)">
     <use xlink:href="#MicrosoftYaHei-23"/>
     <use xlink:href="#MicrosoftYaHei-32" transform="translate(63.818359 0)"/>
     <use xlink:href="#MicrosoftYaHei-32" transform="translate(122.460938 0)"/>
     <use xlink:href="#MicrosoftYaHei-38" transform="translate(181.103516 0)"/>
     <use xlink:href="#MicrosoftYaHei-38" transform="translate(239.746094 0)"/>
     <use xlink:href="#MicrosoftYaHei-33" transform="translate(298.388672 0)"/>
     <use xlink:href="#MicrosoftYaHei-33" transform="translate(357.03125 0)"/>
    </g>
   </g>
   <g id="text_55">
    <!-- #CCBB44 -->
    <g transform="translate(237.417031 63.554375) scale(0.08 -0.08)">
     <use xlink:href="#MicrosoftYaHei-23"/>
     <use xlink:href="#MicrosoftYaHei-43" transform="translate(63.818359 0)"/>
     <use xlink:href="#MicrosoftYaHei-43" transform="translate(127.837891 0)"/>
     <use xlink:href="#MicrosoftYaHei-42" transform="translate(194.732422 0)"/>
     <use xlink:href="#MicrosoftYaHei-42" transform="translate(257.476562 0)"/>
     <use xlink:href="#MicrosoftYaHei-34" transform="translate(320.220703 0)"/>
     <use xlink:href="#MicrosoftYaHei-34" transform="translate(378.863281 0)"/>
    </g>
   </g>
   <g id="text_56">
    <!-- #EE6677 -->
    <g transform="translate(294.383281 63.554375) scale(0.08 -0.08)">
     <use xlink:href="#MicrosoftYaHei-23"/>
     <use xlink:href="#MicrosoftYaHei-45" transform="translate(63.818359 0)"/>
     <use xlink:href="#MicrosoftYaHei-45" transform="translate(118.798828 0)"/>
     <use xlink:href="#MicrosoftYaHei-36" transform="translate(173.779297 0)"/>
     <use xlink:href="#MicrosoftYaHei-36" transform="translate(232.421875 0)"/>
     <use xlink:href="#MicrosoftYaHei-37" transform="translate(291.064453 0)"/>
     <use xlink:href="#MicrosoftYaHei-37" transform="translate(349.707031 0)"/>
    </g>
   </g>
   <g id="text_57">
    <!-- #AA3377 -->
    <g style="fill: #ffffff" transform="translate(348.953281 63.554375) scale(0.08 -0.08)">
     <use xlink:href="#MicrosoftYaHei-23"/>
     <use xlink:href="#MicrosoftYaHei-41" transform="translate(63.818359 0)"/>
     <use xlink:href="#MicrosoftYaHei-41" transform="translate(134.179688 0)"/>
     <use xlink:href="#MicrosoftYaHei-33" transform="translate(204.541016 0)"/>
     <use xlink:href="#MicrosoftYaHei-33" transform="translate(263.183594 0)"/>
     <use xlink:href="#MicrosoftYaHei-37" transform="translate(321.826172 0)"/>
     <use xlink:href="#MicrosoftYaHei-37" transform="translate(380.46875 0)"/>
    </g>
   </g>
   <g id="text_58">
    <!-- #BBBBBB -->
    <g transform="translate(404.704531 63.554375) scale(0.08 -0.08)">
     <use xlink:href="#MicrosoftYaHei-23"/>
     <use xlink:href="#MicrosoftYaHei-42" transform="translate(63.818359 0)"/>
     <use xlink:href="#MicrosoftYaHei-42" transform="translate(126.5625 0)"/>
     <use xlink:href="#MicrosoftYaHei-42" transform="translate(189.306641 0)"/>
     <use xlink:href="#MicrosoftYaHei-42" transform="translate(252.050781 0)"/>
     <use xlink:href="#MicrosoftYaHei-42" transform="translate(314.794922 0)"/>
     <use xlink:href="#MicrosoftYaHei-42" transform="translate(377.539062 0)"/>
    </g>
   </g>
   <g id="text_59">
    <!-- 可用调色板 -->
    <g transform="translate(303.617031 18.39125) scale(0.14 -0.14)">
     <defs>
      <path id="MicrosoftYaHei-Bold-53ef" d="M 156 4934 
L 6256 4934 
L 6256 4097 
L 5556 4097 
L 5556 241 
Q 5556 -156 5382 -390 
Q 5209 -625 4878 -697 
Q 4547 -769 3300 -778 
Q 3206 -322 3063 184 
Q 3781 147 4088 147 
Q 4606 147 4606 628 
L 4606 4097 
L 156 4097 
L 156 4934 
z
M 825 3466 
L 3750 3466 
L 3750 791 
L 1700 791 
L 1700 428 
L 825 428 
L 825 3466 
z
M 2875 1534 
L 2875 2722 
L 1700 2722 
L 1700 1534 
L 2875 1534 
z
" transform="scale(0.015625)"/>
      <path id="MicrosoftYaHei-Bold-7528" d="M 5925 134 
Q 5925 -263 5744 -480 
Q 5563 -697 5189 -736 
Q 4816 -775 4206 -766 
Q 4100 -284 3956 141 
Q 4600 103 4656 103 
Q 5050 103 5050 484 
L 5050 1053 
L 3750 1053 
L 3750 -697 
L 2869 -697 
L 2869 1053 
L 1516 1053 
Q 1419 -325 988 -872 
Q 588 -584 181 -347 
Q 688 341 669 2097 
L 669 5041 
L 5925 5041 
L 5925 134 
z
M 1544 3441 
L 2869 3441 
L 2869 4216 
L 1544 4216 
L 1544 3441 
z
M 5050 4216 
L 3750 4216 
L 3750 3441 
L 5050 3441 
L 5050 4216 
z
M 1544 1859 
L 2869 1859 
L 2869 2634 
L 1544 2634 
L 1544 1859 
z
M 3750 1859 
L 5050 1859 
L 5050 2634 
L 3750 2634 
L 3750 1859 
z
" transform="scale(0.015625)"/>
      <path id="MicrosoftYaHei-Bold-8c03" d="M 5225 4341 
L 2644 4341 
L 2644 2078 
Q 2644 184 2088 -884 
Q 1706 -622 1225 -366 
Q 1856 484 1856 1997 
L 1856 5078 
L 6013 5078 
L 6013 84 
Q 6013 -753 5281 -791 
Q 4988 -816 4400 -816 
Q 4313 -384 4213 16 
Q 4631 -16 4900 -9 
Q 5225 -9 5225 303 
L 5225 4341 
z
M 2894 -41 
L 2894 1978 
L 4931 1978 
L 4931 266 
L 3581 266 
L 3581 -41 
L 2894 -41 
z
M 1663 1853 
Q 1656 1372 1738 891 
Q 1369 553 769 -147 
L 325 459 
Q 481 641 488 991 
L 488 2641 
L 100 2641 
L 100 3453 
L 1281 3453 
L 1281 1441 
Q 1406 1578 1663 1853 
z
M 2775 2891 
L 3550 2891 
L 3550 3253 
L 2881 3253 
L 2881 3841 
L 3550 3841 
L 3550 4228 
L 4313 4228 
L 4313 3841 
L 4994 3841 
L 4994 3253 
L 4313 3253 
L 4313 2891 
L 5094 2891 
L 5094 2303 
L 2775 2303 
L 2775 2891 
z
M 938 5247 
Q 1375 4684 1694 4172 
Q 1394 3991 963 3734 
Q 644 4334 263 4853 
L 938 5247 
z
M 4244 1391 
L 3581 1391 
L 3581 853 
L 4244 853 
L 4244 1391 
z
" transform="scale(0.015625)"/>
      <path id="MicrosoftYaHei-Bold-8272" d="M 4919 4853 
L 4919 4166 
L 4378 3566 
L 5669 3566 
L 5669 1241 
L 1619 1241 
L 1619 691 
Q 1619 97 2231 97 
L 4756 97 
Q 5013 97 5163 180 
Q 5313 263 5361 414 
Q 5409 566 5506 1197 
Q 6056 984 6294 909 
Q 6159 263 6056 -51 
Q 5953 -366 5623 -531 
Q 5294 -697 4738 -697 
L 1963 -697 
Q 731 -697 731 453 
L 731 2834 
Q 616 2744 494 2659 
Q 306 3053 63 3453 
Q 1269 4253 1913 5341 
L 2881 5272 
Q 2766 5059 2634 4853 
L 4919 4853 
z
M 1581 3566 
L 3341 3566 
L 3856 4147 
L 2119 4147 
Q 1869 3847 1581 3566 
z
M 1619 1953 
L 2775 1953 
L 2775 2853 
L 1619 2853 
L 1619 1953 
z
M 4794 1953 
L 4794 2853 
L 3638 2853 
L 3638 1953 
L 4794 1953 
z
" transform="scale(0.015625)"/>
      <path id="MicrosoftYaHei-Bold-677f" d="M 94 1559 
Q 653 2478 878 3297 
L 150 3297 
L 150 4116 
L 888 4116 
L 888 5272 
L 1700 5272 
L 1700 4116 
L 2363 4116 
L 2363 3297 
L 1700 3297 
L 1700 2734 
Q 2078 2544 2494 2309 
L 2100 1597 
Q 1916 1722 1700 1847 
L 1700 -828 
L 888 -828 
L 888 1569 
Q 650 1006 319 459 
Q 206 1066 94 1559 
z
M 5963 5191 
L 6238 4353 
Q 5231 4159 3325 4047 
L 3325 3453 
L 6056 3453 
L 6056 2653 
Q 5763 1528 5175 691 
Q 5663 250 6319 72 
Q 6031 -334 5756 -872 
Q 5100 -509 4609 16 
Q 4088 -500 3413 -866 
Q 3175 -428 2931 -66 
Q 3597 259 4072 713 
Q 3688 1328 3456 2103 
L 4063 2653 
L 3325 2653 
L 3325 2128 
Q 3325 359 2375 -872 
Q 2069 -484 1744 -159 
Q 2513 766 2513 2472 
L 2513 4859 
Q 4756 4966 5963 5191 
z
M 4619 1359 
Q 4997 1934 5156 2653 
L 4069 2653 
Q 4278 1903 4619 1359 
z
" transform="scale(0.015625)"/>
     </defs>
     <use xlink:href="#MicrosoftYaHei-Bold-53ef"/>
     <use xlink:href="#MicrosoftYaHei-Bold-7528" transform="translate(100 0)"/>
     <use xlink:href="#MicrosoftYaHei-Bold-8c03" transform="translate(200 0)"/>
     <use xlink:href="#MicrosoftYaHei-Bold-8272" transform="translate(300 0)"/>
     <use xlink:href="#MicrosoftYaHei-Bold-677f" transform="translate(400 0)"/>
    </g>
   </g>
  </g>
 </g>
 <defs>
  <clipPath id="pd242f5f872">
   <rect x="59.617031" y="24.39125" width="558" height="443.52"/>
  </clipPath>
 </defs>
</svg>
