<?xml version="1.0" encoding="utf-8" standalone="no"?>
<!DOCTYPE svg PUBLIC "-//W3C//DTD SVG 1.1//EN"
  "http://www.w3.org/Graphics/SVG/1.1/DTD/svg11.dtd">
<svg xmlns:xlink="http://www.w3.org/1999/xlink" width="493.199375pt" height="338.352813pt" viewBox="0 0 493.199375 338.352813" xmlns="http://www.w3.org/2000/svg" version="1.1">
 <metadata>
  <rdf:RDF xmlns:dc="http://purl.org/dc/elements/1.1/" xmlns:cc="http://creativecommons.org/ns#" xmlns:rdf="http://www.w3.org/1999/02/22-rdf-syntax-ns#">
   <cc:Work>
    <dc:type rdf:resource="http://purl.org/dc/dcmitype/StillImage"/>
    <dc:date>2025-04-28T08:13:23.757206</dc:date>
    <dc:format>image/svg+xml</dc:format>
    <dc:creator>
     <cc:Agent>
      <dc:title>Matplotlib v3.10.1, https://matplotlib.org/</dc:title>
     </cc:Agent>
    </dc:creator>
   </cc:Work>
  </rdf:RDF>
 </metadata>
 <defs>
  <style type="text/css">*{stroke-linejoin: round; stroke-linecap: butt}</style>
 </defs>
 <g id="figure_1">
  <g id="patch_1">
   <path d="M 0 338.352813 
L 493.199375 338.352813 
L 493.199375 0 
L 0 0 
z
" style="fill: #f8f9fa"/>
  </g>
  <g id="axes_1">
   <g id="patch_2">
    <path d="M 39.599375 299.670625 
L 485.999375 299.670625 
L 485.999375 22.470625 
L 39.599375 22.470625 
z
" style="fill: #f8f9fa"/>
   </g>
   <g id="matplotlib.axis_1">
    <g id="xtick_1">
     <g id="line2d_1">
      <path d="M 93.708466 299.670625 
L 93.708466 22.470625 
" clip-path="url(#pa9029fd458)" style="fill: none; stroke: #dddddd; stroke-opacity: 0.3; stroke-width: 0.5; stroke-linecap: square"/>
     </g>
     <g id="line2d_2">
      <defs>
       <path id="m58f5db0737" d="M 0 0 
L 0 4 
" style="stroke: #333333; stroke-width: 0.8"/>
      </defs>
      <g>
       <use xlink:href="#m58f5db0737" x="93.708466" y="299.670625" style="fill: #333333; stroke: #333333; stroke-width: 0.8"/>
      </g>
     </g>
     <g id="text_1">
      <!-- 类别A -->
      <g style="fill: #333333" transform="translate(82.319403 314.114375) scale(0.1 -0.1)">
       <defs>
        <path id="TimesNewRomanPSMT-7c7b" d="M 888 0 
L 888 4000 
L 4088 4000 
L 4088 0 
L 888 0 
z
M 988 100 
L 3988 100 
L 3988 3900 
L 988 3900 
L 988 100 
z
" transform="scale(0.015625)"/>
        <path id="TimesNewRomanPSMT-522b" d="M 888 0 
L 888 4000 
L 4088 4000 
L 4088 0 
L 888 0 
z
M 988 100 
L 3988 100 
L 3988 3900 
L 988 3900 
L 988 100 
z
" transform="scale(0.015625)"/>
        <path id="TimesNewRomanPSMT-41" d="M 2928 1419 
L 1288 1419 
L 1000 750 
Q 894 503 894 381 
Q 894 284 986 211 
Q 1078 138 1384 116 
L 1384 0 
L 50 0 
L 50 116 
Q 316 163 394 238 
Q 553 388 747 847 
L 2238 4334 
L 2347 4334 
L 3822 809 
Q 4000 384 4145 257 
Q 4291 131 4550 116 
L 4550 0 
L 2878 0 
L 2878 116 
Q 3131 128 3220 200 
Q 3309 272 3309 375 
Q 3309 513 3184 809 
L 2928 1419 
z
M 2841 1650 
L 2122 3363 
L 1384 1650 
L 2841 1650 
z
" transform="scale(0.015625)"/>
       </defs>
       <use xlink:href="#TimesNewRomanPSMT-7c7b"/>
       <use xlink:href="#TimesNewRomanPSMT-522b" transform="translate(77.783203 0)"/>
       <use xlink:href="#TimesNewRomanPSMT-41" transform="translate(155.566406 0)"/>
      </g>
     </g>
    </g>
    <g id="xtick_2">
     <g id="line2d_3">
      <path d="M 178.25392 299.670625 
L 178.25392 22.470625 
" clip-path="url(#pa9029fd458)" style="fill: none; stroke: #dddddd; stroke-opacity: 0.3; stroke-width: 0.5; stroke-linecap: square"/>
     </g>
     <g id="line2d_4">
      <g>
       <use xlink:href="#m58f5db0737" x="178.25392" y="299.670625" style="fill: #333333; stroke: #333333; stroke-width: 0.8"/>
      </g>
     </g>
     <g id="text_2">
      <!-- 类别B -->
      <g style="fill: #333333" transform="translate(167.140639 314.114375) scale(0.1 -0.1)">
       <defs>
        <path id="TimesNewRomanPSMT-42" d="M 2956 2163 
Q 3397 2069 3616 1863 
Q 3919 1575 3919 1159 
Q 3919 844 3719 555 
Q 3519 266 3170 133 
Q 2822 0 2106 0 
L 106 0 
L 106 116 
L 266 116 
Q 531 116 647 284 
Q 719 394 719 750 
L 719 3488 
Q 719 3881 628 3984 
Q 506 4122 266 4122 
L 106 4122 
L 106 4238 
L 1938 4238 
Q 2450 4238 2759 4163 
Q 3228 4050 3475 3764 
Q 3722 3478 3722 3106 
Q 3722 2788 3528 2536 
Q 3334 2284 2956 2163 
z
M 1319 2331 
Q 1434 2309 1582 2298 
Q 1731 2288 1909 2288 
Q 2366 2288 2595 2386 
Q 2825 2484 2947 2687 
Q 3069 2891 3069 3131 
Q 3069 3503 2766 3765 
Q 2463 4028 1881 4028 
Q 1569 4028 1319 3959 
L 1319 2331 
z
M 1319 306 
Q 1681 222 2034 222 
Q 2600 222 2897 476 
Q 3194 731 3194 1106 
Q 3194 1353 3059 1581 
Q 2925 1809 2622 1940 
Q 2319 2072 1872 2072 
Q 1678 2072 1540 2065 
Q 1403 2059 1319 2044 
L 1319 306 
z
" transform="scale(0.015625)"/>
       </defs>
       <use xlink:href="#TimesNewRomanPSMT-7c7b"/>
       <use xlink:href="#TimesNewRomanPSMT-522b" transform="translate(77.783203 0)"/>
       <use xlink:href="#TimesNewRomanPSMT-42" transform="translate(155.566406 0)"/>
      </g>
     </g>
    </g>
    <g id="xtick_3">
     <g id="line2d_5">
      <path d="M 262.799375 299.670625 
L 262.799375 22.470625 
" clip-path="url(#pa9029fd458)" style="fill: none; stroke: #dddddd; stroke-opacity: 0.3; stroke-width: 0.5; stroke-linecap: square"/>
     </g>
     <g id="line2d_6">
      <g>
       <use xlink:href="#m58f5db0737" x="262.799375" y="299.670625" style="fill: #333333; stroke: #333333; stroke-width: 0.8"/>
      </g>
     </g>
     <g id="text_3">
      <!-- 类别C -->
      <g style="fill: #333333" transform="translate(251.686094 314.114375) scale(0.1 -0.1)">
       <defs>
        <path id="TimesNewRomanPSMT-43" d="M 3853 4334 
L 3950 2894 
L 3853 2894 
Q 3659 3541 3300 3825 
Q 2941 4109 2438 4109 
Q 2016 4109 1675 3895 
Q 1334 3681 1139 3212 
Q 944 2744 944 2047 
Q 944 1472 1128 1050 
Q 1313 628 1683 403 
Q 2053 178 2528 178 
Q 2941 178 3256 354 
Q 3572 531 3950 1056 
L 4047 994 
Q 3728 428 3303 165 
Q 2878 -97 2294 -97 
Q 1241 -97 663 684 
Q 231 1266 231 2053 
Q 231 2688 515 3219 
Q 800 3750 1298 4042 
Q 1797 4334 2388 4334 
Q 2847 4334 3294 4109 
Q 3425 4041 3481 4041 
Q 3566 4041 3628 4100 
Q 3709 4184 3744 4334 
L 3853 4334 
z
" transform="scale(0.015625)"/>
       </defs>
       <use xlink:href="#TimesNewRomanPSMT-7c7b"/>
       <use xlink:href="#TimesNewRomanPSMT-522b" transform="translate(77.783203 0)"/>
       <use xlink:href="#TimesNewRomanPSMT-43" transform="translate(155.566406 0)"/>
      </g>
     </g>
    </g>
    <g id="xtick_4">
     <g id="line2d_7">
      <path d="M 347.34483 299.670625 
L 347.34483 22.470625 
" clip-path="url(#pa9029fd458)" style="fill: none; stroke: #dddddd; stroke-opacity: 0.3; stroke-width: 0.5; stroke-linecap: square"/>
     </g>
     <g id="line2d_8">
      <g>
       <use xlink:href="#m58f5db0737" x="347.34483" y="299.670625" style="fill: #333333; stroke: #333333; stroke-width: 0.8"/>
      </g>
     </g>
     <g id="text_4">
      <!-- 类别D -->
      <g style="fill: #333333" transform="translate(335.955767 314.114375) scale(0.1 -0.1)">
       <defs>
        <path id="TimesNewRomanPSMT-44" d="M 109 0 
L 109 116 
L 269 116 
Q 538 116 650 288 
Q 719 391 719 750 
L 719 3488 
Q 719 3884 631 3984 
Q 509 4122 269 4122 
L 109 4122 
L 109 4238 
L 1834 4238 
Q 2784 4238 3279 4022 
Q 3775 3806 4076 3303 
Q 4378 2800 4378 2141 
Q 4378 1256 3841 663 
Q 3238 0 2003 0 
L 109 0 
z
M 1319 306 
Q 1716 219 1984 219 
Q 2709 219 3187 728 
Q 3666 1238 3666 2109 
Q 3666 2988 3187 3494 
Q 2709 4000 1959 4000 
Q 1678 4000 1319 3909 
L 1319 306 
z
" transform="scale(0.015625)"/>
       </defs>
       <use xlink:href="#TimesNewRomanPSMT-7c7b"/>
       <use xlink:href="#TimesNewRomanPSMT-522b" transform="translate(77.783203 0)"/>
       <use xlink:href="#TimesNewRomanPSMT-44" transform="translate(155.566406 0)"/>
      </g>
     </g>
    </g>
    <g id="xtick_5">
     <g id="line2d_9">
      <path d="M 431.890284 299.670625 
L 431.890284 22.470625 
" clip-path="url(#pa9029fd458)" style="fill: none; stroke: #dddddd; stroke-opacity: 0.3; stroke-width: 0.5; stroke-linecap: square"/>
     </g>
     <g id="line2d_10">
      <g>
       <use xlink:href="#m58f5db0737" x="431.890284" y="299.670625" style="fill: #333333; stroke: #333333; stroke-width: 0.8"/>
      </g>
     </g>
     <g id="text_5">
      <!-- 类别E -->
      <g style="fill: #333333" transform="translate(421.058253 314.114375) scale(0.1 -0.1)">
       <defs>
        <path id="TimesNewRomanPSMT-45" d="M 1338 4006 
L 1338 2331 
L 2269 2331 
Q 2631 2331 2753 2441 
Q 2916 2584 2934 2947 
L 3050 2947 
L 3050 1472 
L 2934 1472 
Q 2891 1781 2847 1869 
Q 2791 1978 2662 2040 
Q 2534 2103 2269 2103 
L 1338 2103 
L 1338 706 
Q 1338 425 1363 364 
Q 1388 303 1450 267 
Q 1513 231 1688 231 
L 2406 231 
Q 2766 231 2928 281 
Q 3091 331 3241 478 
Q 3434 672 3638 1063 
L 3763 1063 
L 3397 0 
L 131 0 
L 131 116 
L 281 116 
Q 431 116 566 188 
Q 666 238 702 338 
Q 738 438 738 747 
L 738 3500 
Q 738 3903 656 3997 
Q 544 4122 281 4122 
L 131 4122 
L 131 4238 
L 3397 4238 
L 3444 3309 
L 3322 3309 
Q 3256 3644 3176 3769 
Q 3097 3894 2941 3959 
Q 2816 4006 2500 4006 
L 1338 4006 
z
" transform="scale(0.015625)"/>
       </defs>
       <use xlink:href="#TimesNewRomanPSMT-7c7b"/>
       <use xlink:href="#TimesNewRomanPSMT-522b" transform="translate(77.783203 0)"/>
       <use xlink:href="#TimesNewRomanPSMT-45" transform="translate(155.566406 0)"/>
      </g>
     </g>
    </g>
    <g id="text_6">
     <!-- 类别 -->
     <g style="fill: #333333" transform="translate(253.465625 328.585938) scale(0.12 -0.12)">
      <use xlink:href="#TimesNewRomanPSMT-7c7b"/>
      <use xlink:href="#TimesNewRomanPSMT-522b" transform="translate(77.783203 0)"/>
     </g>
    </g>
   </g>
   <g id="matplotlib.axis_2">
    <g id="ytick_1">
     <g id="line2d_11">
      <path d="M 39.599375 299.670625 
L 485.999375 299.670625 
" clip-path="url(#pa9029fd458)" style="fill: none; stroke-dasharray: 1.85,0.8; stroke-dashoffset: 0; stroke: #cccccc; stroke-opacity: 0.7; stroke-width: 0.5"/>
     </g>
     <g id="line2d_12">
      <defs>
       <path id="m9f43bb0c9c" d="M 0 0 
L -4 0 
" style="stroke: #333333; stroke-width: 0.8"/>
      </defs>
      <g>
       <use xlink:href="#m9f43bb0c9c" x="39.599375" y="299.670625" style="fill: #333333; stroke: #333333; stroke-width: 0.8"/>
      </g>
     </g>
     <g id="text_7">
      <!-- 0 -->
      <g style="fill: #333333" transform="translate(27.099375 303.1425) scale(0.1 -0.1)">
       <defs>
        <path id="TimesNewRomanPSMT-30" d="M 231 2094 
Q 231 2819 450 3342 
Q 669 3866 1031 4122 
Q 1313 4325 1613 4325 
Q 2100 4325 2488 3828 
Q 2972 3213 2972 2159 
Q 2972 1422 2759 906 
Q 2547 391 2217 158 
Q 1888 -75 1581 -75 
Q 975 -75 572 641 
Q 231 1244 231 2094 
z
M 844 2016 
Q 844 1141 1059 588 
Q 1238 122 1591 122 
Q 1759 122 1940 273 
Q 2122 425 2216 781 
Q 2359 1319 2359 2297 
Q 2359 3022 2209 3506 
Q 2097 3866 1919 4016 
Q 1791 4119 1609 4119 
Q 1397 4119 1231 3928 
Q 1006 3669 925 3112 
Q 844 2556 844 2016 
z
" transform="scale(0.015625)"/>
       </defs>
       <use xlink:href="#TimesNewRomanPSMT-30"/>
      </g>
     </g>
    </g>
    <g id="ytick_2">
     <g id="line2d_13">
      <path d="M 39.599375 251.670625 
L 485.999375 251.670625 
" clip-path="url(#pa9029fd458)" style="fill: none; stroke-dasharray: 1.85,0.8; stroke-dashoffset: 0; stroke: #cccccc; stroke-opacity: 0.7; stroke-width: 0.5"/>
     </g>
     <g id="line2d_14">
      <g>
       <use xlink:href="#m9f43bb0c9c" x="39.599375" y="251.670625" style="fill: #333333; stroke: #333333; stroke-width: 0.8"/>
      </g>
     </g>
     <g id="text_8">
      <!-- 10 -->
      <g style="fill: #333333" transform="translate(22.099375 255.1425) scale(0.1 -0.1)">
       <defs>
        <path id="TimesNewRomanPSMT-31" d="M 750 3822 
L 1781 4325 
L 1884 4325 
L 1884 747 
Q 1884 391 1914 303 
Q 1944 216 2037 169 
Q 2131 122 2419 116 
L 2419 0 
L 825 0 
L 825 116 
Q 1125 122 1212 167 
Q 1300 213 1334 289 
Q 1369 366 1369 747 
L 1369 3034 
Q 1369 3497 1338 3628 
Q 1316 3728 1258 3775 
Q 1200 3822 1119 3822 
Q 1003 3822 797 3725 
L 750 3822 
z
" transform="scale(0.015625)"/>
       </defs>
       <use xlink:href="#TimesNewRomanPSMT-31"/>
       <use xlink:href="#TimesNewRomanPSMT-30" transform="translate(50 0)"/>
      </g>
     </g>
    </g>
    <g id="ytick_3">
     <g id="line2d_15">
      <path d="M 39.599375 203.670625 
L 485.999375 203.670625 
" clip-path="url(#pa9029fd458)" style="fill: none; stroke-dasharray: 1.85,0.8; stroke-dashoffset: 0; stroke: #cccccc; stroke-opacity: 0.7; stroke-width: 0.5"/>
     </g>
     <g id="line2d_16">
      <g>
       <use xlink:href="#m9f43bb0c9c" x="39.599375" y="203.670625" style="fill: #333333; stroke: #333333; stroke-width: 0.8"/>
      </g>
     </g>
     <g id="text_9">
      <!-- 20 -->
      <g style="fill: #333333" transform="translate(22.099375 207.1425) scale(0.1 -0.1)">
       <defs>
        <path id="TimesNewRomanPSMT-32" d="M 2934 816 
L 2638 0 
L 138 0 
L 138 116 
Q 1241 1122 1691 1759 
Q 2141 2397 2141 2925 
Q 2141 3328 1894 3587 
Q 1647 3847 1303 3847 
Q 991 3847 742 3664 
Q 494 3481 375 3128 
L 259 3128 
Q 338 3706 661 4015 
Q 984 4325 1469 4325 
Q 1984 4325 2329 3994 
Q 2675 3663 2675 3213 
Q 2675 2891 2525 2569 
Q 2294 2063 1775 1497 
Q 997 647 803 472 
L 1909 472 
Q 2247 472 2383 497 
Q 2519 522 2628 598 
Q 2738 675 2819 816 
L 2934 816 
z
" transform="scale(0.015625)"/>
       </defs>
       <use xlink:href="#TimesNewRomanPSMT-32"/>
       <use xlink:href="#TimesNewRomanPSMT-30" transform="translate(50 0)"/>
      </g>
     </g>
    </g>
    <g id="ytick_4">
     <g id="line2d_17">
      <path d="M 39.599375 155.670625 
L 485.999375 155.670625 
" clip-path="url(#pa9029fd458)" style="fill: none; stroke-dasharray: 1.85,0.8; stroke-dashoffset: 0; stroke: #cccccc; stroke-opacity: 0.7; stroke-width: 0.5"/>
     </g>
     <g id="line2d_18">
      <g>
       <use xlink:href="#m9f43bb0c9c" x="39.599375" y="155.670625" style="fill: #333333; stroke: #333333; stroke-width: 0.8"/>
      </g>
     </g>
     <g id="text_10">
      <!-- 30 -->
      <g style="fill: #333333" transform="translate(22.099375 159.1425) scale(0.1 -0.1)">
       <defs>
        <path id="TimesNewRomanPSMT-33" d="M 325 3431 
Q 506 3859 782 4092 
Q 1059 4325 1472 4325 
Q 1981 4325 2253 3994 
Q 2459 3747 2459 3466 
Q 2459 3003 1878 2509 
Q 2269 2356 2469 2072 
Q 2669 1788 2669 1403 
Q 2669 853 2319 450 
Q 1863 -75 997 -75 
Q 569 -75 414 31 
Q 259 138 259 259 
Q 259 350 332 419 
Q 406 488 509 488 
Q 588 488 669 463 
Q 722 447 909 348 
Q 1097 250 1169 231 
Q 1284 197 1416 197 
Q 1734 197 1970 444 
Q 2206 691 2206 1028 
Q 2206 1275 2097 1509 
Q 2016 1684 1919 1775 
Q 1784 1900 1550 2001 
Q 1316 2103 1072 2103 
L 972 2103 
L 972 2197 
Q 1219 2228 1467 2375 
Q 1716 2522 1828 2728 
Q 1941 2934 1941 3181 
Q 1941 3503 1739 3701 
Q 1538 3900 1238 3900 
Q 753 3900 428 3381 
L 325 3431 
z
" transform="scale(0.015625)"/>
       </defs>
       <use xlink:href="#TimesNewRomanPSMT-33"/>
       <use xlink:href="#TimesNewRomanPSMT-30" transform="translate(50 0)"/>
      </g>
     </g>
    </g>
    <g id="ytick_5">
     <g id="line2d_19">
      <path d="M 39.599375 107.670625 
L 485.999375 107.670625 
" clip-path="url(#pa9029fd458)" style="fill: none; stroke-dasharray: 1.85,0.8; stroke-dashoffset: 0; stroke: #cccccc; stroke-opacity: 0.7; stroke-width: 0.5"/>
     </g>
     <g id="line2d_20">
      <g>
       <use xlink:href="#m9f43bb0c9c" x="39.599375" y="107.670625" style="fill: #333333; stroke: #333333; stroke-width: 0.8"/>
      </g>
     </g>
     <g id="text_11">
      <!-- 40 -->
      <g style="fill: #333333" transform="translate(22.099375 111.1425) scale(0.1 -0.1)">
       <defs>
        <path id="TimesNewRomanPSMT-34" d="M 2978 1563 
L 2978 1119 
L 2409 1119 
L 2409 0 
L 1894 0 
L 1894 1119 
L 100 1119 
L 100 1519 
L 2066 4325 
L 2409 4325 
L 2409 1563 
L 2978 1563 
z
M 1894 1563 
L 1894 3666 
L 406 1563 
L 1894 1563 
z
" transform="scale(0.015625)"/>
       </defs>
       <use xlink:href="#TimesNewRomanPSMT-34"/>
       <use xlink:href="#TimesNewRomanPSMT-30" transform="translate(50 0)"/>
      </g>
     </g>
    </g>
    <g id="ytick_6">
     <g id="line2d_21">
      <path d="M 39.599375 59.670625 
L 485.999375 59.670625 
" clip-path="url(#pa9029fd458)" style="fill: none; stroke-dasharray: 1.85,0.8; stroke-dashoffset: 0; stroke: #cccccc; stroke-opacity: 0.7; stroke-width: 0.5"/>
     </g>
     <g id="line2d_22">
      <g>
       <use xlink:href="#m9f43bb0c9c" x="39.599375" y="59.670625" style="fill: #333333; stroke: #333333; stroke-width: 0.8"/>
      </g>
     </g>
     <g id="text_12">
      <!-- 50 -->
      <g style="fill: #333333" transform="translate(22.099375 63.1425) scale(0.1 -0.1)">
       <defs>
        <path id="TimesNewRomanPSMT-35" d="M 2778 4238 
L 2534 3706 
L 1259 3706 
L 981 3138 
Q 1809 3016 2294 2522 
Q 2709 2097 2709 1522 
Q 2709 1188 2573 903 
Q 2438 619 2231 419 
Q 2025 219 1772 97 
Q 1413 -75 1034 -75 
Q 653 -75 479 54 
Q 306 184 306 341 
Q 306 428 378 495 
Q 450 563 559 563 
Q 641 563 702 538 
Q 763 513 909 409 
Q 1144 247 1384 247 
Q 1750 247 2026 523 
Q 2303 800 2303 1197 
Q 2303 1581 2056 1914 
Q 1809 2247 1375 2428 
Q 1034 2569 447 2591 
L 1259 4238 
L 2778 4238 
z
" transform="scale(0.015625)"/>
       </defs>
       <use xlink:href="#TimesNewRomanPSMT-35"/>
       <use xlink:href="#TimesNewRomanPSMT-30" transform="translate(50 0)"/>
      </g>
     </g>
    </g>
    <g id="text_13">
     <!-- 值 -->
     <g style="fill: #333333" transform="translate(15.5325 165.7375) rotate(-90) scale(0.12 -0.12)">
      <defs>
       <path id="TimesNewRomanPSMT-503c" d="M 888 0 
L 888 4000 
L 4088 4000 
L 4088 0 
L 888 0 
z
M 988 100 
L 3988 100 
L 3988 3900 
L 988 3900 
L 988 100 
z
" transform="scale(0.015625)"/>
      </defs>
      <use xlink:href="#TimesNewRomanPSMT-503c"/>
     </g>
    </g>
   </g>
   <g id="patch_3">
    <path d="M 59.890284 299.670625 
L 127.526648 299.670625 
L 127.526648 179.670625 
L 59.890284 179.670625 
z
" clip-path="url(#pa9029fd458)" style="fill: #264653"/>
   </g>
   <g id="patch_4">
    <path d="M 144.435739 299.670625 
L 212.072102 299.670625 
L 212.072102 107.670625 
L 144.435739 107.670625 
z
" clip-path="url(#pa9029fd458)" style="fill: #2a9d8f"/>
   </g>
   <g id="patch_5">
    <path d="M 228.981193 299.670625 
L 296.617557 299.670625 
L 296.617557 155.670625 
L 228.981193 155.670625 
z
" clip-path="url(#pa9029fd458)" style="fill: #e9c46a"/>
   </g>
   <g id="patch_6">
    <path d="M 313.526648 299.670625 
L 381.163011 299.670625 
L 381.163011 35.670625 
L 313.526648 35.670625 
z
" clip-path="url(#pa9029fd458)" style="fill: #f4a261"/>
   </g>
   <g id="patch_7">
    <path d="M 398.072102 299.670625 
L 465.708466 299.670625 
L 465.708466 83.670625 
L 398.072102 83.670625 
z
" clip-path="url(#pa9029fd458)" style="fill: #e76f51"/>
   </g>
   <g id="patch_8">
    <path d="M 39.599375 299.670625 
L 39.599375 22.470625 
" style="fill: none; stroke: #555555; stroke-linejoin: miter; stroke-linecap: square"/>
   </g>
   <g id="patch_9">
    <path d="M 39.599375 299.670625 
L 485.999375 299.670625 
" style="fill: none; stroke: #555555; stroke-linejoin: miter; stroke-linecap: square"/>
   </g>
   <g id="text_14">
    <!-- 25 -->
    <g transform="translate(88.708466 174.531563) scale(0.1 -0.1)">
     <use xlink:href="#TimesNewRomanPSMT-32"/>
     <use xlink:href="#TimesNewRomanPSMT-35" transform="translate(50 0)"/>
    </g>
   </g>
   <g id="text_15">
    <!-- 40 -->
    <g transform="translate(173.25392 102.531563) scale(0.1 -0.1)">
     <use xlink:href="#TimesNewRomanPSMT-34"/>
     <use xlink:href="#TimesNewRomanPSMT-30" transform="translate(50 0)"/>
    </g>
   </g>
   <g id="text_16">
    <!-- 30 -->
    <g transform="translate(257.799375 150.531563) scale(0.1 -0.1)">
     <use xlink:href="#TimesNewRomanPSMT-33"/>
     <use xlink:href="#TimesNewRomanPSMT-30" transform="translate(50 0)"/>
    </g>
   </g>
   <g id="text_17">
    <!-- 55 -->
    <g transform="translate(342.34483 30.531562) scale(0.1 -0.1)">
     <use xlink:href="#TimesNewRomanPSMT-35"/>
     <use xlink:href="#TimesNewRomanPSMT-35" transform="translate(50 0)"/>
    </g>
   </g>
   <g id="text_18">
    <!-- 45 -->
    <g transform="translate(426.890284 78.531562) scale(0.1 -0.1)">
     <use xlink:href="#TimesNewRomanPSMT-34"/>
     <use xlink:href="#TimesNewRomanPSMT-35" transform="translate(50 0)"/>
    </g>
   </g>
   <g id="text_19">
    <!-- 自定义样式示例 -->
    <g transform="translate(224.686562 16.470625) scale(0.14 -0.14)">
     <defs>
      <path id="TimesNewRomanPS-BoldMT-81ea" d="M 888 0 
L 888 4000 
L 4088 4000 
L 4088 0 
L 888 0 
z
M 988 100 
L 3988 100 
L 3988 3900 
L 988 3900 
L 988 100 
z
" transform="scale(0.015625)"/>
      <path id="TimesNewRomanPS-BoldMT-5b9a" d="M 888 0 
L 888 4000 
L 4088 4000 
L 4088 0 
L 888 0 
z
M 988 100 
L 3988 100 
L 3988 3900 
L 988 3900 
L 988 100 
z
" transform="scale(0.015625)"/>
      <path id="TimesNewRomanPS-BoldMT-4e49" d="M 888 0 
L 888 4000 
L 4088 4000 
L 4088 0 
L 888 0 
z
M 988 100 
L 3988 100 
L 3988 3900 
L 988 3900 
L 988 100 
z
" transform="scale(0.015625)"/>
      <path id="TimesNewRomanPS-BoldMT-6837" d="M 888 0 
L 888 4000 
L 4088 4000 
L 4088 0 
L 888 0 
z
M 988 100 
L 3988 100 
L 3988 3900 
L 988 3900 
L 988 100 
z
" transform="scale(0.015625)"/>
      <path id="TimesNewRomanPS-BoldMT-5f0f" d="M 888 0 
L 888 4000 
L 4088 4000 
L 4088 0 
L 888 0 
z
M 988 100 
L 3988 100 
L 3988 3900 
L 988 3900 
L 988 100 
z
" transform="scale(0.015625)"/>
      <path id="TimesNewRomanPS-BoldMT-793a" d="M 888 0 
L 888 4000 
L 4088 4000 
L 4088 0 
L 888 0 
z
M 988 100 
L 3988 100 
L 3988 3900 
L 988 3900 
L 988 100 
z
" transform="scale(0.015625)"/>
      <path id="TimesNewRomanPS-BoldMT-4f8b" d="M 888 0 
L 888 4000 
L 4088 4000 
L 4088 0 
L 888 0 
z
M 988 100 
L 3988 100 
L 3988 3900 
L 988 3900 
L 988 100 
z
" transform="scale(0.015625)"/>
     </defs>
     <use xlink:href="#TimesNewRomanPS-BoldMT-81ea"/>
     <use xlink:href="#TimesNewRomanPS-BoldMT-5b9a" transform="translate(77.783203 0)"/>
     <use xlink:href="#TimesNewRomanPS-BoldMT-4e49" transform="translate(155.566406 0)"/>
     <use xlink:href="#TimesNewRomanPS-BoldMT-6837" transform="translate(233.349609 0)"/>
     <use xlink:href="#TimesNewRomanPS-BoldMT-5f0f" transform="translate(311.132812 0)"/>
     <use xlink:href="#TimesNewRomanPS-BoldMT-793a" transform="translate(388.916016 0)"/>
     <use xlink:href="#TimesNewRomanPS-BoldMT-4f8b" transform="translate(466.699219 0)"/>
    </g>
   </g>
  </g>
  <g id="text_20">
   <!-- 自定义样式 -->
   <g style="fill: #808080; opacity: 0.05" transform="translate(199.299109 201.761954) rotate(-30) scale(0.36 -0.36)">
    <defs>
     <path id="TimesNewRomanPSMT-81ea" d="M 888 0 
L 888 4000 
L 4088 4000 
L 4088 0 
L 888 0 
z
M 988 100 
L 3988 100 
L 3988 3900 
L 988 3900 
L 988 100 
z
" transform="scale(0.015625)"/>
     <path id="TimesNewRomanPSMT-5b9a" d="M 888 0 
L 888 4000 
L 4088 4000 
L 4088 0 
L 888 0 
z
M 988 100 
L 3988 100 
L 3988 3900 
L 988 3900 
L 988 100 
z
" transform="scale(0.015625)"/>
     <path id="TimesNewRomanPSMT-4e49" d="M 888 0 
L 888 4000 
L 4088 4000 
L 4088 0 
L 888 0 
z
M 988 100 
L 3988 100 
L 3988 3900 
L 988 3900 
L 988 100 
z
" transform="scale(0.015625)"/>
     <path id="TimesNewRomanPSMT-6837" d="M 888 0 
L 888 4000 
L 4088 4000 
L 4088 0 
L 888 0 
z
M 988 100 
L 3988 100 
L 3988 3900 
L 988 3900 
L 988 100 
z
" transform="scale(0.015625)"/>
     <path id="TimesNewRomanPSMT-5f0f" d="M 888 0 
L 888 4000 
L 4088 4000 
L 4088 0 
L 888 0 
z
M 988 100 
L 3988 100 
L 3988 3900 
L 988 3900 
L 988 100 
z
" transform="scale(0.015625)"/>
    </defs>
    <use xlink:href="#TimesNewRomanPSMT-81ea"/>
    <use xlink:href="#TimesNewRomanPSMT-5b9a" transform="translate(77.783203 0)"/>
    <use xlink:href="#TimesNewRomanPSMT-4e49" transform="translate(155.566406 0)"/>
    <use xlink:href="#TimesNewRomanPSMT-6837" transform="translate(233.349609 0)"/>
    <use xlink:href="#TimesNewRomanPSMT-5f0f" transform="translate(311.132812 0)"/>
   </g>
  </g>
 </g>
 <defs>
  <clipPath id="pa9029fd458">
   <rect x="39.599375" y="22.470625" width="446.4" height="277.2"/>
  </clipPath>
 </defs>
</svg>
