<?xml version="1.0" encoding="utf-8" standalone="no"?>
<!DOCTYPE svg PUBLIC "-//W3C//DTD SVG 1.1//EN"
  "http://www.w3.org/Graphics/SVG/1.1/DTD/svg11.dtd">
<svg xmlns:xlink="http://www.w3.org/1999/xlink" width="855.725937pt" height="708.231406pt" viewBox="0 0 855.725937 708.231406" xmlns="http://www.w3.org/2000/svg" version="1.1">
 <metadata>
  <rdf:RDF xmlns:dc="http://purl.org/dc/elements/1.1/" xmlns:cc="http://creativecommons.org/ns#" xmlns:rdf="http://www.w3.org/1999/02/22-rdf-syntax-ns#">
   <cc:Work>
    <dc:type rdf:resource="http://purl.org/dc/dcmitype/StillImage"/>
    <dc:date>2025-04-28T07:01:53.133709</dc:date>
    <dc:format>image/svg+xml</dc:format>
    <dc:creator>
     <cc:Agent>
      <dc:title>Matplotlib v3.10.1, https://matplotlib.org/</dc:title>
     </cc:Agent>
    </dc:creator>
   </cc:Work>
  </rdf:RDF>
 </metadata>
 <defs>
  <style type="text/css">*{stroke-linejoin: round; stroke-linecap: butt}</style>
 </defs>
 <g id="figure_1">
  <g id="patch_1">
   <path d="M 0 708.231406 
L 855.725937 708.231406 
L 855.725937 0 
L 0 0 
z
" style="fill: #ffffff"/>
  </g>
  <g id="axes_1">
   <g id="patch_2">
    <path d="M 45.795938 328.34 
L 423.925937 328.34 
L 423.925937 46.32 
L 45.795938 46.32 
z
" style="fill: #ffffff"/>
   </g>
   <g id="matplotlib.axis_1">
    <g id="xtick_1">
     <g id="line2d_1">
      <path d="M 62.983665 328.34 
L 62.983665 46.32 
" clip-path="url(#p39f3c3c7de)" style="fill: none; stroke: #dddddd; stroke-opacity: 0.5; stroke-width: 0.5; stroke-linecap: square"/>
     </g>
     <g id="line2d_2">
      <defs>
       <path id="m5eb194835a" d="M 0 0 
L 0 4 
" style="stroke: #333333; stroke-width: 0.8"/>
      </defs>
      <g>
       <use xlink:href="#m5eb194835a" x="62.983665" y="328.34" style="fill: #333333; stroke: #333333; stroke-width: 0.8"/>
      </g>
     </g>
     <g id="text_1">
      <!-- 0 -->
      <g style="fill: #333333" transform="translate(60.344837 343.034375) scale(0.09 -0.09)">
       <defs>
        <path id="MicrosoftYaHei-30" d="M 284 2325 
Q 284 3606 709 4264 
Q 1134 4922 1941 4922 
Q 3478 4922 3478 2441 
Q 3478 1216 3045 567 
Q 2613 -81 1831 -81 
Q 1094 -81 689 534 
Q 284 1150 284 2325 
z
M 909 2353 
Q 909 425 1888 425 
Q 2850 425 2850 2384 
Q 2850 4413 1906 4413 
Q 909 4413 909 2353 
z
" transform="scale(0.015625)"/>
       </defs>
       <use xlink:href="#MicrosoftYaHei-30"/>
      </g>
     </g>
    </g>
    <g id="xtick_2">
     <g id="line2d_3">
      <path d="M 131.734574 328.34 
L 131.734574 46.32 
" clip-path="url(#p39f3c3c7de)" style="fill: none; stroke: #dddddd; stroke-opacity: 0.5; stroke-width: 0.5; stroke-linecap: square"/>
     </g>
     <g id="line2d_4">
      <g>
       <use xlink:href="#m5eb194835a" x="131.734574" y="328.34" style="fill: #333333; stroke: #333333; stroke-width: 0.8"/>
      </g>
     </g>
     <g id="text_2">
      <!-- 2 -->
      <g style="fill: #333333" transform="translate(129.095746 343.034375) scale(0.09 -0.09)">
       <defs>
        <path id="MicrosoftYaHei-32" d="M 2666 3572 
Q 2666 3963 2419 4186 
Q 2172 4409 1747 4409 
Q 1447 4409 1140 4256 
Q 834 4103 569 3819 
L 569 4413 
Q 806 4659 1107 4790 
Q 1409 4922 1816 4922 
Q 2472 4922 2872 4570 
Q 3272 4219 3272 3619 
Q 3272 3084 3026 2693 
Q 2781 2303 2188 1894 
Q 1581 1475 1376 1294 
Q 1172 1113 1090 947 
Q 1009 781 1009 544 
L 3416 544 
L 3416 0 
L 372 0 
L 372 241 
Q 372 659 486 951 
Q 600 1244 862 1520 
Q 1125 1797 1681 2184 
Q 2250 2584 2458 2886 
Q 2666 3188 2666 3572 
z
" transform="scale(0.015625)"/>
       </defs>
       <use xlink:href="#MicrosoftYaHei-32"/>
      </g>
     </g>
    </g>
    <g id="xtick_3">
     <g id="line2d_5">
      <path d="M 200.485483 328.34 
L 200.485483 46.32 
" clip-path="url(#p39f3c3c7de)" style="fill: none; stroke: #dddddd; stroke-opacity: 0.5; stroke-width: 0.5; stroke-linecap: square"/>
     </g>
     <g id="line2d_6">
      <g>
       <use xlink:href="#m5eb194835a" x="200.485483" y="328.34" style="fill: #333333; stroke: #333333; stroke-width: 0.8"/>
      </g>
     </g>
     <g id="text_3">
      <!-- 4 -->
      <g style="fill: #333333" transform="translate(197.846655 343.034375) scale(0.09 -0.09)">
       <defs>
        <path id="MicrosoftYaHei-34" d="M 2906 4841 
L 2906 1644 
L 3631 1644 
L 3631 1138 
L 2906 1138 
L 2906 0 
L 2313 0 
L 2313 1138 
L 53 1138 
L 53 1616 
Q 656 2294 1265 3178 
Q 1875 4063 2272 4841 
L 2906 4841 
z
M 741 1644 
L 2313 1644 
L 2313 3950 
Q 1988 3366 1616 2817 
Q 1244 2269 741 1644 
z
" transform="scale(0.015625)"/>
       </defs>
       <use xlink:href="#MicrosoftYaHei-34"/>
      </g>
     </g>
    </g>
    <g id="xtick_4">
     <g id="line2d_7">
      <path d="M 269.236392 328.34 
L 269.236392 46.32 
" clip-path="url(#p39f3c3c7de)" style="fill: none; stroke: #dddddd; stroke-opacity: 0.5; stroke-width: 0.5; stroke-linecap: square"/>
     </g>
     <g id="line2d_8">
      <g>
       <use xlink:href="#m5eb194835a" x="269.236392" y="328.34" style="fill: #333333; stroke: #333333; stroke-width: 0.8"/>
      </g>
     </g>
     <g id="text_4">
      <!-- 6 -->
      <g style="fill: #333333" transform="translate(266.597564 343.034375) scale(0.09 -0.09)">
       <defs>
        <path id="MicrosoftYaHei-36" d="M 3181 4219 
Q 2803 4413 2391 4413 
Q 1763 4413 1381 3866 
Q 1000 3319 994 2372 
L 1009 2372 
Q 1353 3038 2106 3038 
Q 2734 3038 3109 2628 
Q 3484 2219 3484 1541 
Q 3484 831 3051 375 
Q 2619 -81 1947 -81 
Q 1209 -81 789 495 
Q 369 1072 369 2131 
Q 369 3413 920 4167 
Q 1472 4922 2372 4922 
Q 2888 4922 3181 4781 
L 3181 4219 
z
M 1031 1584 
Q 1031 1106 1286 765 
Q 1541 425 1963 425 
Q 2363 425 2613 719 
Q 2863 1013 2863 1475 
Q 2863 1975 2627 2253 
Q 2391 2531 1956 2531 
Q 1544 2531 1287 2250 
Q 1031 1969 1031 1584 
z
" transform="scale(0.015625)"/>
       </defs>
       <use xlink:href="#MicrosoftYaHei-36"/>
      </g>
     </g>
    </g>
    <g id="xtick_5">
     <g id="line2d_9">
      <path d="M 337.987301 328.34 
L 337.987301 46.32 
" clip-path="url(#p39f3c3c7de)" style="fill: none; stroke: #dddddd; stroke-opacity: 0.5; stroke-width: 0.5; stroke-linecap: square"/>
     </g>
     <g id="line2d_10">
      <g>
       <use xlink:href="#m5eb194835a" x="337.987301" y="328.34" style="fill: #333333; stroke: #333333; stroke-width: 0.8"/>
      </g>
     </g>
     <g id="text_5">
      <!-- 8 -->
      <g style="fill: #333333" transform="translate(335.348473 343.034375) scale(0.09 -0.09)">
       <defs>
        <path id="MicrosoftYaHei-38" d="M 306 1350 
Q 306 1769 556 2122 
Q 806 2475 1200 2625 
Q 884 2803 700 3081 
Q 516 3359 516 3684 
Q 516 4028 692 4312 
Q 869 4597 1183 4759 
Q 1497 4922 1875 4922 
Q 2256 4922 2572 4761 
Q 2888 4600 3063 4315 
Q 3238 4031 3238 3684 
Q 3238 3366 3058 3086 
Q 2878 2806 2559 2625 
Q 2953 2472 3200 2119 
Q 3447 1766 3447 1350 
Q 3447 938 3250 611 
Q 3053 284 2690 103 
Q 2328 -78 1875 -78 
Q 1425 -78 1065 103 
Q 706 284 506 612 
Q 306 941 306 1350 
z
M 906 1378 
Q 906 947 1172 687 
Q 1438 428 1878 428 
Q 2309 428 2582 692 
Q 2856 956 2856 1378 
Q 2856 1778 2579 2051 
Q 2303 2325 1878 2325 
Q 1456 2325 1181 2058 
Q 906 1791 906 1378 
z
M 1081 3634 
Q 1081 3309 1312 3076 
Q 1544 2844 1878 2844 
Q 2206 2844 2445 3078 
Q 2684 3313 2684 3634 
Q 2684 3963 2454 4191 
Q 2225 4419 1878 4419 
Q 1534 4419 1307 4195 
Q 1081 3972 1081 3634 
z
" transform="scale(0.015625)"/>
       </defs>
       <use xlink:href="#MicrosoftYaHei-38"/>
      </g>
     </g>
    </g>
    <g id="xtick_6">
     <g id="line2d_11">
      <path d="M 406.73821 328.34 
L 406.73821 46.32 
" clip-path="url(#p39f3c3c7de)" style="fill: none; stroke: #dddddd; stroke-opacity: 0.5; stroke-width: 0.5; stroke-linecap: square"/>
     </g>
     <g id="line2d_12">
      <g>
       <use xlink:href="#m5eb194835a" x="406.73821" y="328.34" style="fill: #333333; stroke: #333333; stroke-width: 0.8"/>
      </g>
     </g>
     <g id="text_6">
      <!-- 10 -->
      <g style="fill: #333333" transform="translate(401.460554 343.034375) scale(0.09 -0.09)">
       <defs>
        <path id="MicrosoftYaHei-31" d="M 1781 0 
L 1781 4141 
Q 1638 3997 1295 3819 
Q 953 3641 663 3569 
L 663 4169 
Q 1047 4275 1484 4508 
Q 1922 4741 2156 4947 
L 2388 4947 
L 2388 0 
L 1781 0 
z
" transform="scale(0.015625)"/>
       </defs>
       <use xlink:href="#MicrosoftYaHei-31"/>
       <use xlink:href="#MicrosoftYaHei-30" transform="translate(58.642578 0)"/>
      </g>
     </g>
    </g>
    <g id="text_7">
     <!-- X -->
     <g style="fill: #333333" transform="translate(231.635938 357.265469) scale(0.1 -0.1)">
      <defs>
       <path id="MicrosoftYaHei-58" d="M 4034 0 
L 3275 0 
L 2194 1822 
Q 2156 1884 2084 2072 
L 2069 2072 
Q 2063 2047 1956 1819 
L 844 0 
L 81 0 
L 1691 2431 
L 209 4841 
L 975 4841 
L 1931 3166 
Q 2016 3019 2100 2822 
L 2113 2822 
Q 2188 2991 2297 3181 
L 3297 4841 
L 4013 4841 
L 2500 2441 
L 4034 0 
z
" transform="scale(0.015625)"/>
      </defs>
      <use xlink:href="#MicrosoftYaHei-58"/>
     </g>
    </g>
   </g>
   <g id="matplotlib.axis_2">
    <g id="ytick_1">
     <g id="line2d_13">
      <path d="M 45.795938 311.610712 
L 423.925937 311.610712 
" clip-path="url(#p39f3c3c7de)" style="fill: none; stroke: #dddddd; stroke-opacity: 0.5; stroke-width: 0.5; stroke-linecap: square"/>
     </g>
     <g id="line2d_14">
      <defs>
       <path id="m16f584e0cc" d="M 0 0 
L -4 0 
" style="stroke: #333333; stroke-width: 0.8"/>
      </defs>
      <g>
       <use xlink:href="#m16f584e0cc" x="45.795938" y="311.610712" style="fill: #333333; stroke: #333333; stroke-width: 0.8"/>
      </g>
     </g>
     <g id="text_8">
      <!-- -0.6 -->
      <g style="fill: #333333" transform="translate(21.679688 315.207899) scale(0.09 -0.09)">
       <defs>
        <path id="MicrosoftYaHei-2d" d="M 2328 1681 
L 488 1681 
L 488 2153 
L 2328 2153 
L 2328 1681 
z
" transform="scale(0.015625)"/>
        <path id="MicrosoftYaHei-2e" d="M 372 322 
Q 372 491 487 606 
Q 603 722 775 722 
Q 950 722 1065 605 
Q 1181 488 1181 322 
Q 1181 159 1065 42 
Q 950 -75 772 -75 
Q 600 -75 486 42 
Q 372 159 372 322 
z
" transform="scale(0.015625)"/>
       </defs>
       <use xlink:href="#MicrosoftYaHei-2d"/>
       <use xlink:href="#MicrosoftYaHei-30" transform="translate(43.261719 0)"/>
       <use xlink:href="#MicrosoftYaHei-2e" transform="translate(101.904297 0)"/>
       <use xlink:href="#MicrosoftYaHei-36" transform="translate(125.976562 0)"/>
      </g>
     </g>
    </g>
    <g id="ytick_2">
     <g id="line2d_15">
      <path d="M 45.795938 276.880722 
L 423.925937 276.880722 
" clip-path="url(#p39f3c3c7de)" style="fill: none; stroke: #dddddd; stroke-opacity: 0.5; stroke-width: 0.5; stroke-linecap: square"/>
     </g>
     <g id="line2d_16">
      <g>
       <use xlink:href="#m16f584e0cc" x="45.795938" y="276.880722" style="fill: #333333; stroke: #333333; stroke-width: 0.8"/>
      </g>
     </g>
     <g id="text_9">
      <!-- -0.4 -->
      <g style="fill: #333333" transform="translate(21.679688 280.47791) scale(0.09 -0.09)">
       <use xlink:href="#MicrosoftYaHei-2d"/>
       <use xlink:href="#MicrosoftYaHei-30" transform="translate(43.261719 0)"/>
       <use xlink:href="#MicrosoftYaHei-2e" transform="translate(101.904297 0)"/>
       <use xlink:href="#MicrosoftYaHei-34" transform="translate(125.976562 0)"/>
      </g>
     </g>
    </g>
    <g id="ytick_3">
     <g id="line2d_17">
      <path d="M 45.795938 242.150733 
L 423.925937 242.150733 
" clip-path="url(#p39f3c3c7de)" style="fill: none; stroke: #dddddd; stroke-opacity: 0.5; stroke-width: 0.5; stroke-linecap: square"/>
     </g>
     <g id="line2d_18">
      <g>
       <use xlink:href="#m16f584e0cc" x="45.795938" y="242.150733" style="fill: #333333; stroke: #333333; stroke-width: 0.8"/>
      </g>
     </g>
     <g id="text_10">
      <!-- -0.2 -->
      <g style="fill: #333333" transform="translate(21.679688 245.74792) scale(0.09 -0.09)">
       <use xlink:href="#MicrosoftYaHei-2d"/>
       <use xlink:href="#MicrosoftYaHei-30" transform="translate(43.261719 0)"/>
       <use xlink:href="#MicrosoftYaHei-2e" transform="translate(101.904297 0)"/>
       <use xlink:href="#MicrosoftYaHei-32" transform="translate(125.976562 0)"/>
      </g>
     </g>
    </g>
    <g id="ytick_4">
     <g id="line2d_19">
      <path d="M 45.795938 207.420743 
L 423.925937 207.420743 
" clip-path="url(#p39f3c3c7de)" style="fill: none; stroke: #dddddd; stroke-opacity: 0.5; stroke-width: 0.5; stroke-linecap: square"/>
     </g>
     <g id="line2d_20">
      <g>
       <use xlink:href="#m16f584e0cc" x="45.795938" y="207.420743" style="fill: #333333; stroke: #333333; stroke-width: 0.8"/>
      </g>
     </g>
     <g id="text_11">
      <!-- 0.0 -->
      <g style="fill: #333333" transform="translate(25.573594 211.017931) scale(0.09 -0.09)">
       <use xlink:href="#MicrosoftYaHei-30"/>
       <use xlink:href="#MicrosoftYaHei-2e" transform="translate(58.642578 0)"/>
       <use xlink:href="#MicrosoftYaHei-30" transform="translate(82.714844 0)"/>
      </g>
     </g>
    </g>
    <g id="ytick_5">
     <g id="line2d_21">
      <path d="M 45.795938 172.690754 
L 423.925937 172.690754 
" clip-path="url(#p39f3c3c7de)" style="fill: none; stroke: #dddddd; stroke-opacity: 0.5; stroke-width: 0.5; stroke-linecap: square"/>
     </g>
     <g id="line2d_22">
      <g>
       <use xlink:href="#m16f584e0cc" x="45.795938" y="172.690754" style="fill: #333333; stroke: #333333; stroke-width: 0.8"/>
      </g>
     </g>
     <g id="text_12">
      <!-- 0.2 -->
      <g style="fill: #333333" transform="translate(25.573594 176.287941) scale(0.09 -0.09)">
       <use xlink:href="#MicrosoftYaHei-30"/>
       <use xlink:href="#MicrosoftYaHei-2e" transform="translate(58.642578 0)"/>
       <use xlink:href="#MicrosoftYaHei-32" transform="translate(82.714844 0)"/>
      </g>
     </g>
    </g>
    <g id="ytick_6">
     <g id="line2d_23">
      <path d="M 45.795938 137.960764 
L 423.925937 137.960764 
" clip-path="url(#p39f3c3c7de)" style="fill: none; stroke: #dddddd; stroke-opacity: 0.5; stroke-width: 0.5; stroke-linecap: square"/>
     </g>
     <g id="line2d_24">
      <g>
       <use xlink:href="#m16f584e0cc" x="45.795938" y="137.960764" style="fill: #333333; stroke: #333333; stroke-width: 0.8"/>
      </g>
     </g>
     <g id="text_13">
      <!-- 0.4 -->
      <g style="fill: #333333" transform="translate(25.573594 141.557952) scale(0.09 -0.09)">
       <use xlink:href="#MicrosoftYaHei-30"/>
       <use xlink:href="#MicrosoftYaHei-2e" transform="translate(58.642578 0)"/>
       <use xlink:href="#MicrosoftYaHei-34" transform="translate(82.714844 0)"/>
      </g>
     </g>
    </g>
    <g id="ytick_7">
     <g id="line2d_25">
      <path d="M 45.795938 103.230775 
L 423.925937 103.230775 
" clip-path="url(#p39f3c3c7de)" style="fill: none; stroke: #dddddd; stroke-opacity: 0.5; stroke-width: 0.5; stroke-linecap: square"/>
     </g>
     <g id="line2d_26">
      <g>
       <use xlink:href="#m16f584e0cc" x="45.795938" y="103.230775" style="fill: #333333; stroke: #333333; stroke-width: 0.8"/>
      </g>
     </g>
     <g id="text_14">
      <!-- 0.6 -->
      <g style="fill: #333333" transform="translate(25.573594 106.827962) scale(0.09 -0.09)">
       <use xlink:href="#MicrosoftYaHei-30"/>
       <use xlink:href="#MicrosoftYaHei-2e" transform="translate(58.642578 0)"/>
       <use xlink:href="#MicrosoftYaHei-36" transform="translate(82.714844 0)"/>
      </g>
     </g>
    </g>
    <g id="ytick_8">
     <g id="line2d_27">
      <path d="M 45.795938 68.500785 
L 423.925937 68.500785 
" clip-path="url(#p39f3c3c7de)" style="fill: none; stroke: #dddddd; stroke-opacity: 0.5; stroke-width: 0.5; stroke-linecap: square"/>
     </g>
     <g id="line2d_28">
      <g>
       <use xlink:href="#m16f584e0cc" x="45.795938" y="68.500785" style="fill: #333333; stroke: #333333; stroke-width: 0.8"/>
      </g>
     </g>
     <g id="text_15">
      <!-- 0.8 -->
      <g style="fill: #333333" transform="translate(25.573594 72.097973) scale(0.09 -0.09)">
       <use xlink:href="#MicrosoftYaHei-30"/>
       <use xlink:href="#MicrosoftYaHei-2e" transform="translate(58.642578 0)"/>
       <use xlink:href="#MicrosoftYaHei-38" transform="translate(82.714844 0)"/>
      </g>
     </g>
    </g>
    <g id="text_16">
     <!-- Y -->
     <g style="fill: #333333" transform="translate(15.19375 190.347969) rotate(-90) scale(0.1 -0.1)">
      <defs>
       <path id="MicrosoftYaHei-59" d="M 3828 4841 
L 2234 1781 
L 2234 0 
L 1606 0 
L 1606 1766 
L 53 4841 
L 769 4841 
L 1816 2697 
Q 1819 2694 1931 2388 
L 1941 2388 
Q 1978 2519 2069 2694 
L 3163 4841 
L 3828 4841 
z
" transform="scale(0.015625)"/>
      </defs>
      <use xlink:href="#MicrosoftYaHei-59"/>
     </g>
    </g>
   </g>
   <g id="line2d_29">
    <path d="M 62.983665 207.420743 
L 81.076009 124.659986 
L 99.168354 71.638157 
L 117.260698 59.139091 
L 135.353043 86.356617 
L 153.445387 142.261683 
L 171.537732 209.484948 
L 189.630076 269.456274 
L 207.722421 307.342233 
L 225.814765 315.520909 
L 243.90711 294.838685 
L 261.999454 253.544582 
L 280.091799 204.410653 
L 298.184143 160.966699 
L 316.276488 133.914616 
L 334.368832 128.634605 
L 352.461177 144.321127 
L 370.553521 174.809909 
L 388.645866 210.712509 
L 406.73821 242.174033 
" clip-path="url(#p39f3c3c7de)" style="fill: none; stroke: #1f77b4; stroke-width: 2; stroke-linecap: square"/>
   </g>
   <g id="patch_3">
    <path d="M 45.795938 328.34 
L 45.795938 46.32 
" style="fill: none; stroke: #333333; stroke-linejoin: miter; stroke-linecap: square"/>
   </g>
   <g id="patch_4">
    <path d="M 45.795938 328.34 
L 423.925937 328.34 
" style="fill: none; stroke: #333333; stroke-linejoin: miter; stroke-linecap: square"/>
   </g>
   <g id="text_17">
    <!-- 线图预设 -->
    <g style="fill: #333333" transform="translate(210.860938 40.32) scale(0.12 -0.12)">
     <defs>
      <path id="MicrosoftYaHei-7ebf" d="M 1969 -347 
Q 3144 75 4003 631 
Q 3781 1197 3653 1972 
L 2319 1784 
L 2244 2234 
L 3591 2422 
Q 3538 2859 3513 3356 
L 2381 3228 
L 2306 3678 
L 3488 3809 
Q 3453 4459 3425 5303 
L 3938 5303 
Q 3953 4497 3978 3866 
L 6069 4103 
L 6125 3659 
L 3997 3413 
Q 4019 2919 4069 2488 
L 6225 2791 
L 6281 2347 
L 4128 2041 
Q 4234 1394 4416 916 
Q 5078 1416 5519 2009 
L 5925 1703 
Q 5363 1025 4619 475 
Q 4859 44 5194 -184 
Q 5606 -428 5725 66 
Q 5806 466 5856 953 
Q 6144 828 6338 772 
Q 6231 97 6125 -247 
Q 5944 -778 5506 -778 
Q 5050 -778 4663 -403 
Q 4409 -163 4209 194 
Q 3350 -363 2281 -772 
Q 2169 -597 1969 -347 
z
M 900 1541 
Q 1456 1622 2213 1753 
Q 2175 1522 2156 1272 
Q 1113 1109 325 978 
L 225 1447 
Q 659 1913 1178 2775 
Q 672 2747 225 2703 
L 106 3128 
Q 688 3922 1300 5353 
L 1775 5166 
Q 1131 3897 669 3166 
Q 1041 3178 1422 3194 
Q 1638 3578 1869 4028 
L 2331 3797 
Q 1569 2478 900 1541 
z
M 106 97 
Q 1206 334 2331 616 
Q 2313 366 2313 141 
Q 1269 -103 244 -378 
L 106 97 
z
M 4463 4972 
L 4731 5284 
Q 5175 5003 5681 4609 
L 5381 4247 
Q 4863 4691 4463 4972 
z
" transform="scale(0.015625)"/>
      <path id="MicrosoftYaHei-56fe" d="M 431 5072 
L 5944 5072 
L 5944 -809 
L 5475 -809 
L 5475 -509 
L 900 -509 
L 900 -809 
L 431 -809 
L 431 5072 
z
M 5475 4622 
L 900 4622 
L 900 -59 
L 5475 -59 
L 5475 4622 
z
M 1113 3091 
Q 1969 3709 2519 4547 
L 2931 4353 
Q 2816 4181 2681 4016 
L 4894 4016 
L 4894 3647 
Q 4434 3091 3722 2644 
Q 4381 2422 5338 2297 
Q 5194 2016 5131 1828 
Q 4022 2081 3256 2400 
Q 2491 2056 1225 1728 
Q 1138 1934 1013 2128 
Q 2109 2353 2825 2644 
Q 2384 2947 2066 3341 
Q 1769 3056 1419 2784 
Q 1294 2916 1113 3091 
z
M 1563 672 
L 1694 1103 
Q 3256 897 4700 622 
L 4531 147 
Q 3150 453 1563 672 
z
M 4275 3628 
L 2347 3628 
Q 2338 3616 2328 3606 
Q 2691 3141 3244 2841 
Q 3891 3188 4275 3628 
z
M 2219 1503 
L 2344 1922 
Q 3263 1784 4275 1609 
L 4144 1172 
Q 3119 1378 2219 1503 
z
" transform="scale(0.015625)"/>
      <path id="MicrosoftYaHei-9884" d="M 531 3872 
L 844 4147 
Q 1069 3947 1275 3747 
L 1938 4553 
L 175 4553 
L 175 4991 
L 2513 4991 
L 2513 4553 
L 1588 3434 
Q 1694 3322 1794 3216 
L 1544 2997 
L 2681 2997 
L 2681 2578 
Q 2581 2097 2369 1466 
Q 2175 1534 1938 1609 
Q 2094 2003 2213 2559 
L 1588 2559 
L 1588 -72 
Q 1588 -784 888 -784 
L 225 -784 
Q 194 -559 138 -278 
Q 450 -316 769 -316 
Q 1119 -316 1119 84 
L 1119 2559 
L 113 2559 
L 113 2997 
L 1344 2997 
Q 938 3484 531 3872 
z
M 2969 3716 
L 4025 3716 
L 4181 4572 
L 2744 4572 
L 2744 5009 
L 6294 5009 
L 6294 4572 
L 4688 4572 
L 4506 3716 
L 6006 3716 
L 6006 641 
L 5550 641 
L 5550 3284 
L 3425 3284 
L 3425 641 
L 2969 641 
L 2969 3716 
z
M 4244 3028 
L 4706 3028 
L 4706 2097 
Q 4706 1366 4519 841 
Q 5500 184 6306 -441 
L 5963 -847 
Q 5200 -197 4325 428 
Q 4263 334 4200 247 
Q 3694 -397 2613 -897 
Q 2413 -641 2263 -484 
Q 3381 -22 3831 572 
Q 4244 1109 4244 2128 
L 4244 3028 
z
" transform="scale(0.015625)"/>
      <path id="MicrosoftYaHei-8bbe" d="M 2231 2116 
L 2231 2547 
L 5638 2547 
L 5638 2116 
Q 5144 1031 4419 416 
Q 5216 -109 6338 -316 
Q 6119 -597 5956 -822 
Q 4841 -500 4013 113 
Q 3163 -463 1863 -872 
Q 1700 -641 1538 -422 
Q 2778 -88 3613 431 
Q 2888 1131 2559 2116 
L 2231 2116 
z
M 4856 4553 
L 3294 4553 
L 3294 4372 
Q 3294 3222 2244 2659 
Q 2075 2866 1881 3047 
Q 2806 3522 2806 4359 
L 2806 5016 
L 5344 5016 
L 5344 3741 
Q 5344 3459 5631 3459 
L 6319 3459 
Q 6288 3203 6269 2997 
L 5444 2997 
Q 4856 2997 4856 3647 
L 4856 4553 
z
M 2250 1028 
Q 2263 734 2294 472 
Q 1438 -84 1019 -422 
L 719 -9 
Q 931 197 931 553 
L 931 2778 
L 138 2778 
L 138 3228 
L 1406 3228 
L 1406 453 
Q 1813 722 2250 1028 
z
M 988 5128 
Q 1469 4653 1906 4166 
L 1469 3803 
Q 1013 4391 613 4803 
L 988 5128 
z
M 3031 2116 
Q 3347 1319 4022 713 
Q 4684 1225 5081 2116 
L 3031 2116 
z
" transform="scale(0.015625)"/>
     </defs>
     <use xlink:href="#MicrosoftYaHei-7ebf"/>
     <use xlink:href="#MicrosoftYaHei-56fe" transform="translate(100 0)"/>
     <use xlink:href="#MicrosoftYaHei-9884" transform="translate(200 0)"/>
     <use xlink:href="#MicrosoftYaHei-8bbe" transform="translate(300 0)"/>
    </g>
   </g>
   <g id="legend_1">
    <g id="patch_5">
     <path d="M 414.025937 58.02 
L 417.625938 58.02 
Q 419.425938 58.02 419.425938 56.22 
L 419.425938 52.62 
Q 419.425938 50.82 417.625938 50.82 
L 414.025937 50.82 
Q 412.225937 50.82 412.225937 52.62 
L 412.225937 56.22 
Q 412.225937 58.02 414.025937 58.02 
z
" style="fill: #ffffff; opacity: 0.8"/>
    </g>
   </g>
  </g>
  <g id="axes_2">
   <g id="patch_6">
    <path d="M 470.395937 328.34 
L 848.525937 328.34 
L 848.525937 46.32 
L 470.395937 46.32 
z
" style="fill: #ffffff"/>
   </g>
   <g id="matplotlib.axis_3">
    <g id="xtick_7">
     <g id="line2d_30">
      <path d="M 516.229877 328.34 
L 516.229877 46.32 
" clip-path="url(#pef1c651d5f)" style="fill: none; stroke: #dddddd; stroke-opacity: 0.5; stroke-width: 0.5; stroke-linecap: square"/>
     </g>
     <g id="line2d_31">
      <g>
       <use xlink:href="#m5eb194835a" x="516.229877" y="328.34" style="fill: #333333; stroke: #333333; stroke-width: 0.8"/>
      </g>
     </g>
     <g id="text_18">
      <!-- A -->
      <g style="fill: #333333" transform="translate(513.063705 343.034375) scale(0.09 -0.09)">
       <defs>
        <path id="MicrosoftYaHei-41" d="M 4428 0 
L 3738 0 
L 3244 1325 
L 1228 1325 
L 763 0 
L 72 0 
L 1916 4841 
L 2584 4841 
L 4428 0 
z
M 3050 1872 
L 2319 3884 
Q 2284 3981 2244 4222 
L 2228 4222 
Q 2194 4003 2150 3884 
L 1425 1872 
L 3050 1872 
z
" transform="scale(0.015625)"/>
       </defs>
       <use xlink:href="#MicrosoftYaHei-41"/>
      </g>
     </g>
    </g>
    <g id="xtick_8">
     <g id="line2d_32">
      <path d="M 587.845407 328.34 
L 587.845407 46.32 
" clip-path="url(#pef1c651d5f)" style="fill: none; stroke: #dddddd; stroke-opacity: 0.5; stroke-width: 0.5; stroke-linecap: square"/>
     </g>
     <g id="line2d_33">
      <g>
       <use xlink:href="#m5eb194835a" x="587.845407" y="328.34" style="fill: #333333; stroke: #333333; stroke-width: 0.8"/>
      </g>
     </g>
     <g id="text_19">
      <!-- B -->
      <g style="fill: #333333" transform="translate(585.021657 343.034375) scale(0.09 -0.09)">
       <defs>
        <path id="MicrosoftYaHei-42" d="M 625 0 
L 625 4841 
L 2047 4841 
Q 2684 4841 3065 4536 
Q 3447 4231 3447 3728 
Q 3447 3328 3220 3022 
Q 2994 2716 2597 2588 
L 2597 2575 
Q 3091 2519 3386 2201 
Q 3681 1884 3681 1397 
Q 3681 772 3232 386 
Q 2784 0 2084 0 
L 625 0 
z
M 1250 4294 
L 1250 2778 
L 1819 2778 
Q 2272 2778 2530 2998 
Q 2788 3219 2788 3609 
Q 2788 4294 1875 4294 
L 1250 4294 
z
M 1250 2234 
L 1250 547 
L 2000 547 
Q 2491 547 2758 773 
Q 3025 1000 3025 1403 
Q 3025 2234 1897 2234 
L 1250 2234 
z
" transform="scale(0.015625)"/>
       </defs>
       <use xlink:href="#MicrosoftYaHei-42"/>
      </g>
     </g>
    </g>
    <g id="xtick_9">
     <g id="line2d_34">
      <path d="M 659.460938 328.34 
L 659.460938 46.32 
" clip-path="url(#pef1c651d5f)" style="fill: none; stroke: #dddddd; stroke-opacity: 0.5; stroke-width: 0.5; stroke-linecap: square"/>
     </g>
     <g id="line2d_35">
      <g>
       <use xlink:href="#m5eb194835a" x="659.460938" y="328.34" style="fill: #333333; stroke: #333333; stroke-width: 0.8"/>
      </g>
     </g>
     <g id="text_20">
      <!-- C -->
      <g style="fill: #333333" transform="translate(656.450859 343.034375) scale(0.09 -0.09)">
       <defs>
        <path id="MicrosoftYaHei-43" d="M 3938 200 
Q 3403 -81 2597 -81 
Q 1556 -81 934 580 
Q 313 1241 313 2328 
Q 313 3497 1013 4209 
Q 1713 4922 2791 4922 
Q 3484 4922 3938 4725 
L 3938 4072 
Q 3419 4359 2797 4359 
Q 1988 4359 1478 3820 
Q 969 3281 969 2366 
Q 969 1497 1444 986 
Q 1919 475 2688 475 
Q 3406 475 3938 800 
L 3938 200 
z
" transform="scale(0.015625)"/>
       </defs>
       <use xlink:href="#MicrosoftYaHei-43"/>
      </g>
     </g>
    </g>
    <g id="xtick_10">
     <g id="line2d_36">
      <path d="M 731.076468 328.34 
L 731.076468 46.32 
" clip-path="url(#pef1c651d5f)" style="fill: none; stroke: #dddddd; stroke-opacity: 0.5; stroke-width: 0.5; stroke-linecap: square"/>
     </g>
     <g id="line2d_37">
      <g>
       <use xlink:href="#m5eb194835a" x="731.076468" y="328.34" style="fill: #333333; stroke: #333333; stroke-width: 0.8"/>
      </g>
     </g>
     <g id="text_21">
      <!-- D -->
      <g style="fill: #333333" transform="translate(727.648733 343.034375) scale(0.09 -0.09)">
       <defs>
        <path id="MicrosoftYaHei-44" d="M 625 0 
L 625 4841 
L 2006 4841 
Q 3106 4841 3836 4200 
Q 4566 3559 4566 2481 
Q 4566 1356 3836 678 
Q 3106 0 1956 0 
L 625 0 
z
M 1250 4284 
L 1250 553 
L 1953 553 
Q 2875 553 3392 1056 
Q 3909 1559 3909 2466 
Q 3909 3372 3378 3828 
Q 2847 4284 1981 4284 
L 1250 4284 
z
" transform="scale(0.015625)"/>
       </defs>
       <use xlink:href="#MicrosoftYaHei-44"/>
      </g>
     </g>
    </g>
    <g id="xtick_11">
     <g id="line2d_38">
      <path d="M 802.691998 328.34 
L 802.691998 46.32 
" clip-path="url(#pef1c651d5f)" style="fill: none; stroke: #dddddd; stroke-opacity: 0.5; stroke-width: 0.5; stroke-linecap: square"/>
     </g>
     <g id="line2d_39">
      <g>
       <use xlink:href="#m5eb194835a" x="802.691998" y="328.34" style="fill: #333333; stroke: #333333; stroke-width: 0.8"/>
      </g>
     </g>
     <g id="text_22">
      <!-- E -->
      <g style="fill: #333333" transform="translate(800.217701 343.034375) scale(0.09 -0.09)">
       <defs>
        <path id="MicrosoftYaHei-45" d="M 3228 0 
L 625 0 
L 625 4841 
L 3119 4841 
L 3119 4284 
L 1250 4284 
L 1250 2734 
L 2981 2734 
L 2981 2181 
L 1250 2181 
L 1250 553 
L 3228 553 
L 3228 0 
z
" transform="scale(0.015625)"/>
       </defs>
       <use xlink:href="#MicrosoftYaHei-45"/>
      </g>
     </g>
    </g>
    <g id="text_23">
     <!-- 类别 -->
     <g style="fill: #333333" transform="translate(649.460938 357.265469) scale(0.1 -0.1)">
      <defs>
       <path id="MicrosoftYaHei-7c7b" d="M 6338 -359 
Q 6213 -503 6006 -853 
Q 3975 -459 3200 884 
Q 2644 -497 400 -897 
Q 288 -684 131 -434 
Q 2244 -147 2744 1047 
L 275 1047 
L 275 1484 
L 2875 1484 
Q 2925 1691 2956 1978 
L 3456 1978 
Q 3413 1697 3369 1484 
L 6125 1484 
L 6125 1047 
L 3619 1047 
Q 4450 -159 6338 -359 
z
M 325 3741 
L 2975 3741 
L 2975 5303 
L 3450 5303 
L 3450 3741 
L 6075 3741 
L 6075 3322 
L 3450 3322 
L 3450 2953 
L 3625 3191 
Q 5325 2528 6231 2128 
L 6013 1722 
Q 4956 2266 3450 2847 
L 3450 2197 
L 2975 2197 
L 2975 3241 
Q 1863 2191 450 1741 
Q 319 1934 144 2153 
Q 1569 2553 2538 3322 
L 325 3322 
L 325 3741 
z
M 5550 4784 
Q 5163 4459 4394 3891 
L 4069 4222 
Q 4569 4578 5194 5122 
L 5550 4784 
z
M 900 4791 
L 1206 5122 
Q 1875 4647 2306 4266 
L 1969 3897 
Q 1581 4284 900 4791 
z
" transform="scale(0.015625)"/>
       <path id="MicrosoftYaHei-522b" d="M 538 4959 
L 3375 4959 
L 3375 2772 
L 2888 2772 
L 2888 3028 
L 1025 3028 
L 1025 2772 
L 538 2772 
L 538 4959 
z
M 300 2116 
L 1316 2116 
Q 1331 2431 1338 2822 
L 1825 2822 
Q 1816 2431 1797 2116 
L 3431 2116 
Q 3413 1028 3363 328 
Q 3319 -684 2431 -678 
Q 2006 -678 1563 -641 
Q 1531 -347 1469 -122 
Q 1963 -203 2350 -203 
Q 2850 -209 2875 378 
Q 2925 891 2938 1666 
L 1769 1666 
Q 1688 53 431 -859 
Q 300 -666 88 -441 
Q 1238 366 1288 1666 
L 300 1666 
L 300 2116 
z
M 5425 5278 
L 5944 5278 
L 5944 53 
Q 5944 -747 5163 -747 
Q 4756 -747 4175 -741 
Q 4138 -484 4081 -178 
Q 4725 -228 4994 -228 
Q 5425 -228 5425 191 
L 5425 5278 
z
M 4138 4647 
L 4644 4647 
L 4644 666 
L 4138 666 
L 4138 4647 
z
M 2888 4509 
L 1025 4509 
L 1025 3478 
L 2888 3478 
L 2888 4509 
z
" transform="scale(0.015625)"/>
      </defs>
      <use xlink:href="#MicrosoftYaHei-7c7b"/>
      <use xlink:href="#MicrosoftYaHei-522b" transform="translate(100 0)"/>
     </g>
    </g>
   </g>
   <g id="matplotlib.axis_4">
    <g id="ytick_9">
     <g id="line2d_40">
      <path d="M 470.395937 328.34 
L 848.525937 328.34 
" clip-path="url(#pef1c651d5f)" style="fill: none; stroke: #dddddd; stroke-opacity: 0.5; stroke-width: 0.5; stroke-linecap: square"/>
     </g>
     <g id="line2d_41">
      <g>
       <use xlink:href="#m16f584e0cc" x="470.395937" y="328.34" style="fill: #333333; stroke: #333333; stroke-width: 0.8"/>
      </g>
     </g>
     <g id="text_24">
      <!-- 0 -->
      <g style="fill: #333333" transform="translate(457.618281 331.937187) scale(0.09 -0.09)">
       <use xlink:href="#MicrosoftYaHei-30"/>
      </g>
     </g>
    </g>
    <g id="ytick_10">
     <g id="line2d_42">
      <path d="M 470.395937 268.653228 
L 848.525937 268.653228 
" clip-path="url(#pef1c651d5f)" style="fill: none; stroke: #dddddd; stroke-opacity: 0.5; stroke-width: 0.5; stroke-linecap: square"/>
     </g>
     <g id="line2d_43">
      <g>
       <use xlink:href="#m16f584e0cc" x="470.395937" y="268.653228" style="fill: #333333; stroke: #333333; stroke-width: 0.8"/>
      </g>
     </g>
     <g id="text_25">
      <!-- 2 -->
      <g style="fill: #333333" transform="translate(457.618281 272.250415) scale(0.09 -0.09)">
       <use xlink:href="#MicrosoftYaHei-32"/>
      </g>
     </g>
    </g>
    <g id="ytick_11">
     <g id="line2d_44">
      <path d="M 470.395937 208.966455 
L 848.525937 208.966455 
" clip-path="url(#pef1c651d5f)" style="fill: none; stroke: #dddddd; stroke-opacity: 0.5; stroke-width: 0.5; stroke-linecap: square"/>
     </g>
     <g id="line2d_45">
      <g>
       <use xlink:href="#m16f584e0cc" x="470.395937" y="208.966455" style="fill: #333333; stroke: #333333; stroke-width: 0.8"/>
      </g>
     </g>
     <g id="text_26">
      <!-- 4 -->
      <g style="fill: #333333" transform="translate(457.618281 212.563643) scale(0.09 -0.09)">
       <use xlink:href="#MicrosoftYaHei-34"/>
      </g>
     </g>
    </g>
    <g id="ytick_12">
     <g id="line2d_46">
      <path d="M 470.395937 149.279683 
L 848.525937 149.279683 
" clip-path="url(#pef1c651d5f)" style="fill: none; stroke: #dddddd; stroke-opacity: 0.5; stroke-width: 0.5; stroke-linecap: square"/>
     </g>
     <g id="line2d_47">
      <g>
       <use xlink:href="#m16f584e0cc" x="470.395937" y="149.279683" style="fill: #333333; stroke: #333333; stroke-width: 0.8"/>
      </g>
     </g>
     <g id="text_27">
      <!-- 6 -->
      <g style="fill: #333333" transform="translate(457.618281 152.87687) scale(0.09 -0.09)">
       <use xlink:href="#MicrosoftYaHei-36"/>
      </g>
     </g>
    </g>
    <g id="ytick_13">
     <g id="line2d_48">
      <path d="M 470.395937 89.59291 
L 848.525937 89.59291 
" clip-path="url(#pef1c651d5f)" style="fill: none; stroke: #dddddd; stroke-opacity: 0.5; stroke-width: 0.5; stroke-linecap: square"/>
     </g>
     <g id="line2d_49">
      <g>
       <use xlink:href="#m16f584e0cc" x="470.395937" y="89.59291" style="fill: #333333; stroke: #333333; stroke-width: 0.8"/>
      </g>
     </g>
     <g id="text_28">
      <!-- 8 -->
      <g style="fill: #333333" transform="translate(457.618281 93.190098) scale(0.09 -0.09)">
       <use xlink:href="#MicrosoftYaHei-38"/>
      </g>
     </g>
    </g>
    <g id="text_29">
     <!-- 值 -->
     <g style="fill: #333333" transform="translate(451.132344 192.33) rotate(-90) scale(0.1 -0.1)">
      <defs>
       <path id="MicrosoftYaHei-503c" d="M 1619 -216 
L 2250 -216 
L 2250 3653 
L 3725 3653 
L 3725 4222 
L 1913 4222 
L 1913 4647 
L 3725 4647 
L 3725 5309 
L 4200 5309 
L 4200 4647 
L 6169 4647 
L 6169 4222 
L 4200 4222 
L 4200 3653 
L 5713 3653 
L 5713 -216 
L 6306 -216 
L 6306 -641 
L 1619 -641 
L 1619 -216 
z
M 69 2247 
Q 906 3497 1369 5278 
L 1831 5141 
Q 1581 4334 1288 3628 
L 1288 -816 
L 831 -816 
L 831 2666 
Q 563 2166 263 1734 
Q 175 1997 69 2247 
z
M 2713 -216 
L 5250 -216 
L 5250 353 
L 2713 353 
L 2713 -216 
z
M 5250 3241 
L 2713 3241 
L 2713 2678 
L 5250 2678 
L 5250 3241 
z
M 2713 1716 
L 5250 1716 
L 5250 2278 
L 2713 2278 
L 2713 1716 
z
M 2713 753 
L 5250 753 
L 5250 1316 
L 2713 1316 
L 2713 753 
z
" transform="scale(0.015625)"/>
      </defs>
      <use xlink:href="#MicrosoftYaHei-503c"/>
     </g>
    </g>
   </g>
   <g id="patch_7">
    <path d="M 487.583665 328.34 
L 544.876089 328.34 
L 544.876089 238.809841 
L 487.583665 238.809841 
z
" clip-path="url(#pef1c651d5f)" style="fill: #1f77b4"/>
   </g>
   <g id="patch_8">
    <path d="M 559.199195 328.34 
L 616.491619 328.34 
L 616.491619 119.436296 
L 559.199195 119.436296 
z
" clip-path="url(#pef1c651d5f)" style="fill: #1f77b4"/>
   </g>
   <g id="patch_9">
    <path d="M 630.814725 328.34 
L 688.10715 328.34 
L 688.10715 179.123069 
L 630.814725 179.123069 
z
" clip-path="url(#pef1c651d5f)" style="fill: #1f77b4"/>
   </g>
   <g id="patch_10">
    <path d="M 702.430256 328.34 
L 759.72268 328.34 
L 759.72268 59.749524 
L 702.430256 59.749524 
z
" clip-path="url(#pef1c651d5f)" style="fill: #1f77b4"/>
   </g>
   <g id="patch_11">
    <path d="M 774.045786 328.34 
L 831.33821 328.34 
L 831.33821 208.966455 
L 774.045786 208.966455 
z
" clip-path="url(#pef1c651d5f)" style="fill: #1f77b4"/>
   </g>
   <g id="patch_12">
    <path d="M 470.395937 328.34 
L 470.395937 46.32 
" style="fill: none; stroke: #333333; stroke-linejoin: miter; stroke-linecap: square"/>
   </g>
   <g id="patch_13">
    <path d="M 470.395938 328.34 
L 848.525938 328.34 
" style="fill: none; stroke: #333333; stroke-linejoin: miter; stroke-linecap: square"/>
   </g>
   <g id="text_30">
    <!-- 柱状图预设 -->
    <g style="fill: #333333" transform="translate(629.460938 40.32) scale(0.12 -0.12)">
     <defs>
      <path id="MicrosoftYaHei-67f1" d="M 2188 -16 
L 3988 -16 
L 3988 1809 
L 2588 1809 
L 2588 2259 
L 3988 2259 
L 3988 3747 
L 2400 3747 
L 2400 4197 
L 6119 4197 
L 6119 3747 
L 4500 3747 
L 4500 2259 
L 5919 2259 
L 5919 1809 
L 4500 1809 
L 4500 -16 
L 6319 -16 
L 6319 -466 
L 2188 -466 
L 2188 -16 
z
M 63 1403 
Q 641 2338 947 3584 
L 156 3584 
L 156 4016 
L 981 4016 
L 981 5291 
L 1463 5291 
L 1463 4016 
L 2213 4016 
L 2213 3584 
L 1463 3584 
L 1463 2503 
L 1669 2697 
Q 2019 2366 2375 1978 
L 2025 1666 
Q 1750 2009 1463 2316 
L 1463 -816 
L 981 -816 
L 981 2450 
Q 678 1478 263 853 
Q 175 1122 63 1403 
z
M 3631 5116 
L 4044 5372 
Q 4381 4972 4644 4572 
L 4206 4284 
Q 3981 4672 3631 5116 
z
" transform="scale(0.015625)"/>
      <path id="MicrosoftYaHei-72b6" d="M 2213 3516 
L 3791 3516 
Q 3825 4369 3825 5297 
L 4325 5297 
Q 4325 4338 4294 3516 
L 6175 3516 
L 6175 3047 
L 4309 3047 
Q 4884 628 6313 -228 
Q 6069 -491 5906 -703 
Q 4638 266 4119 2106 
Q 3766 413 2363 -809 
Q 2169 -541 2013 -384 
Q 3600 853 3766 3047 
L 2213 3047 
L 2213 3516 
z
M 1494 5316 
L 1994 5316 
L 1994 -834 
L 1494 -834 
L 1494 1606 
Q 916 1119 400 691 
L 75 1122 
Q 769 1628 1494 2222 
L 1494 5316 
z
M 219 4134 
L 644 4334 
Q 1019 3672 1306 2884 
L 831 2666 
Q 519 3541 219 4134 
z
M 5006 5053 
Q 5550 4641 5950 4278 
Q 5775 4078 5606 3884 
Q 5150 4328 4681 4716 
L 5006 5053 
z
" transform="scale(0.015625)"/>
     </defs>
     <use xlink:href="#MicrosoftYaHei-67f1"/>
     <use xlink:href="#MicrosoftYaHei-72b6" transform="translate(100 0)"/>
     <use xlink:href="#MicrosoftYaHei-56fe" transform="translate(200 0)"/>
     <use xlink:href="#MicrosoftYaHei-9884" transform="translate(300 0)"/>
     <use xlink:href="#MicrosoftYaHei-8bbe" transform="translate(400 0)"/>
    </g>
   </g>
   <g id="legend_2">
    <g id="patch_14">
     <path d="M 838.625937 58.02 
L 842.225938 58.02 
Q 844.025938 58.02 844.025938 56.22 
L 844.025938 52.62 
Q 844.025938 50.82 842.225938 50.82 
L 838.625937 50.82 
Q 836.825938 50.82 836.825938 52.62 
L 836.825938 56.22 
Q 836.825938 58.02 838.625937 58.02 
z
" style="fill: #ffffff; opacity: 0.8"/>
    </g>
   </g>
  </g>
  <g id="axes_3">
   <g id="patch_15">
    <path d="M 45.795938 669.62 
L 423.925937 669.62 
L 423.925937 387.6 
L 45.795938 387.6 
z
" style="fill: #ffffff"/>
   </g>
   <g id="matplotlib.axis_5">
    <g id="xtick_12">
     <g id="line2d_50">
      <path d="M 62.983665 669.62 
L 62.983665 387.6 
" clip-path="url(#pa56ab0e851)" style="fill: none; stroke-dasharray: 1.85,0.8; stroke-dashoffset: 0; stroke: #cccccc; stroke-opacity: 0.7; stroke-width: 0.5"/>
     </g>
     <g id="line2d_51">
      <g>
       <use xlink:href="#m5eb194835a" x="62.983665" y="669.62" style="fill: #333333; stroke: #333333; stroke-width: 0.8"/>
      </g>
     </g>
     <g id="text_31">
      <!-- 0 -->
      <g style="fill: #333333" transform="translate(60.344837 684.314375) scale(0.09 -0.09)">
       <use xlink:href="#MicrosoftYaHei-30"/>
      </g>
     </g>
    </g>
    <g id="xtick_13">
     <g id="line2d_52">
      <path d="M 131.734574 669.62 
L 131.734574 387.6 
" clip-path="url(#pa56ab0e851)" style="fill: none; stroke-dasharray: 1.85,0.8; stroke-dashoffset: 0; stroke: #cccccc; stroke-opacity: 0.7; stroke-width: 0.5"/>
     </g>
     <g id="line2d_53">
      <g>
       <use xlink:href="#m5eb194835a" x="131.734574" y="669.62" style="fill: #333333; stroke: #333333; stroke-width: 0.8"/>
      </g>
     </g>
     <g id="text_32">
      <!-- 2 -->
      <g style="fill: #333333" transform="translate(129.095746 684.314375) scale(0.09 -0.09)">
       <use xlink:href="#MicrosoftYaHei-32"/>
      </g>
     </g>
    </g>
    <g id="xtick_14">
     <g id="line2d_54">
      <path d="M 200.485483 669.62 
L 200.485483 387.6 
" clip-path="url(#pa56ab0e851)" style="fill: none; stroke-dasharray: 1.85,0.8; stroke-dashoffset: 0; stroke: #cccccc; stroke-opacity: 0.7; stroke-width: 0.5"/>
     </g>
     <g id="line2d_55">
      <g>
       <use xlink:href="#m5eb194835a" x="200.485483" y="669.62" style="fill: #333333; stroke: #333333; stroke-width: 0.8"/>
      </g>
     </g>
     <g id="text_33">
      <!-- 4 -->
      <g style="fill: #333333" transform="translate(197.846655 684.314375) scale(0.09 -0.09)">
       <use xlink:href="#MicrosoftYaHei-34"/>
      </g>
     </g>
    </g>
    <g id="xtick_15">
     <g id="line2d_56">
      <path d="M 269.236392 669.62 
L 269.236392 387.6 
" clip-path="url(#pa56ab0e851)" style="fill: none; stroke-dasharray: 1.85,0.8; stroke-dashoffset: 0; stroke: #cccccc; stroke-opacity: 0.7; stroke-width: 0.5"/>
     </g>
     <g id="line2d_57">
      <g>
       <use xlink:href="#m5eb194835a" x="269.236392" y="669.62" style="fill: #333333; stroke: #333333; stroke-width: 0.8"/>
      </g>
     </g>
     <g id="text_34">
      <!-- 6 -->
      <g style="fill: #333333" transform="translate(266.597564 684.314375) scale(0.09 -0.09)">
       <use xlink:href="#MicrosoftYaHei-36"/>
      </g>
     </g>
    </g>
    <g id="xtick_16">
     <g id="line2d_58">
      <path d="M 337.987301 669.62 
L 337.987301 387.6 
" clip-path="url(#pa56ab0e851)" style="fill: none; stroke-dasharray: 1.85,0.8; stroke-dashoffset: 0; stroke: #cccccc; stroke-opacity: 0.7; stroke-width: 0.5"/>
     </g>
     <g id="line2d_59">
      <g>
       <use xlink:href="#m5eb194835a" x="337.987301" y="669.62" style="fill: #333333; stroke: #333333; stroke-width: 0.8"/>
      </g>
     </g>
     <g id="text_35">
      <!-- 8 -->
      <g style="fill: #333333" transform="translate(335.348473 684.314375) scale(0.09 -0.09)">
       <use xlink:href="#MicrosoftYaHei-38"/>
      </g>
     </g>
    </g>
    <g id="xtick_17">
     <g id="line2d_60">
      <path d="M 406.73821 669.62 
L 406.73821 387.6 
" clip-path="url(#pa56ab0e851)" style="fill: none; stroke-dasharray: 1.85,0.8; stroke-dashoffset: 0; stroke: #cccccc; stroke-opacity: 0.7; stroke-width: 0.5"/>
     </g>
     <g id="line2d_61">
      <g>
       <use xlink:href="#m5eb194835a" x="406.73821" y="669.62" style="fill: #333333; stroke: #333333; stroke-width: 0.8"/>
      </g>
     </g>
     <g id="text_36">
      <!-- 10 -->
      <g style="fill: #333333" transform="translate(401.460554 684.314375) scale(0.09 -0.09)">
       <use xlink:href="#MicrosoftYaHei-31"/>
       <use xlink:href="#MicrosoftYaHei-30" transform="translate(58.642578 0)"/>
      </g>
     </g>
    </g>
    <g id="text_37">
     <!-- X -->
     <g style="fill: #333333" transform="translate(231.635938 698.545469) scale(0.1 -0.1)">
      <use xlink:href="#MicrosoftYaHei-58"/>
     </g>
    </g>
   </g>
   <g id="matplotlib.axis_6">
    <g id="ytick_14">
     <g id="line2d_62">
      <path d="M 45.795938 662.399362 
L 423.925937 662.399362 
" clip-path="url(#pa56ab0e851)" style="fill: none; stroke-dasharray: 1.85,0.8; stroke-dashoffset: 0; stroke: #cccccc; stroke-opacity: 0.7; stroke-width: 0.5"/>
     </g>
     <g id="line2d_63">
      <g>
       <use xlink:href="#m16f584e0cc" x="45.795938" y="662.399362" style="fill: #333333; stroke: #333333; stroke-width: 0.8"/>
      </g>
     </g>
     <g id="text_38">
      <!-- -0.8 -->
      <g style="fill: #333333" transform="translate(21.679688 665.996549) scale(0.09 -0.09)">
       <use xlink:href="#MicrosoftYaHei-2d"/>
       <use xlink:href="#MicrosoftYaHei-30" transform="translate(43.261719 0)"/>
       <use xlink:href="#MicrosoftYaHei-2e" transform="translate(101.904297 0)"/>
       <use xlink:href="#MicrosoftYaHei-38" transform="translate(125.976562 0)"/>
      </g>
     </g>
    </g>
    <g id="ytick_15">
     <g id="line2d_64">
      <path d="M 45.795938 630.172383 
L 423.925937 630.172383 
" clip-path="url(#pa56ab0e851)" style="fill: none; stroke-dasharray: 1.85,0.8; stroke-dashoffset: 0; stroke: #cccccc; stroke-opacity: 0.7; stroke-width: 0.5"/>
     </g>
     <g id="line2d_65">
      <g>
       <use xlink:href="#m16f584e0cc" x="45.795938" y="630.172383" style="fill: #333333; stroke: #333333; stroke-width: 0.8"/>
      </g>
     </g>
     <g id="text_39">
      <!-- -0.6 -->
      <g style="fill: #333333" transform="translate(21.679688 633.76957) scale(0.09 -0.09)">
       <use xlink:href="#MicrosoftYaHei-2d"/>
       <use xlink:href="#MicrosoftYaHei-30" transform="translate(43.261719 0)"/>
       <use xlink:href="#MicrosoftYaHei-2e" transform="translate(101.904297 0)"/>
       <use xlink:href="#MicrosoftYaHei-36" transform="translate(125.976562 0)"/>
      </g>
     </g>
    </g>
    <g id="ytick_16">
     <g id="line2d_66">
      <path d="M 45.795938 597.945404 
L 423.925937 597.945404 
" clip-path="url(#pa56ab0e851)" style="fill: none; stroke-dasharray: 1.85,0.8; stroke-dashoffset: 0; stroke: #cccccc; stroke-opacity: 0.7; stroke-width: 0.5"/>
     </g>
     <g id="line2d_67">
      <g>
       <use xlink:href="#m16f584e0cc" x="45.795938" y="597.945404" style="fill: #333333; stroke: #333333; stroke-width: 0.8"/>
      </g>
     </g>
     <g id="text_40">
      <!-- -0.4 -->
      <g style="fill: #333333" transform="translate(21.679688 601.542592) scale(0.09 -0.09)">
       <use xlink:href="#MicrosoftYaHei-2d"/>
       <use xlink:href="#MicrosoftYaHei-30" transform="translate(43.261719 0)"/>
       <use xlink:href="#MicrosoftYaHei-2e" transform="translate(101.904297 0)"/>
       <use xlink:href="#MicrosoftYaHei-34" transform="translate(125.976562 0)"/>
      </g>
     </g>
    </g>
    <g id="ytick_17">
     <g id="line2d_68">
      <path d="M 45.795938 565.718425 
L 423.925937 565.718425 
" clip-path="url(#pa56ab0e851)" style="fill: none; stroke-dasharray: 1.85,0.8; stroke-dashoffset: 0; stroke: #cccccc; stroke-opacity: 0.7; stroke-width: 0.5"/>
     </g>
     <g id="line2d_69">
      <g>
       <use xlink:href="#m16f584e0cc" x="45.795938" y="565.718425" style="fill: #333333; stroke: #333333; stroke-width: 0.8"/>
      </g>
     </g>
     <g id="text_41">
      <!-- -0.2 -->
      <g style="fill: #333333" transform="translate(21.679688 569.315613) scale(0.09 -0.09)">
       <use xlink:href="#MicrosoftYaHei-2d"/>
       <use xlink:href="#MicrosoftYaHei-30" transform="translate(43.261719 0)"/>
       <use xlink:href="#MicrosoftYaHei-2e" transform="translate(101.904297 0)"/>
       <use xlink:href="#MicrosoftYaHei-32" transform="translate(125.976562 0)"/>
      </g>
     </g>
    </g>
    <g id="ytick_18">
     <g id="line2d_70">
      <path d="M 45.795938 533.491446 
L 423.925937 533.491446 
" clip-path="url(#pa56ab0e851)" style="fill: none; stroke-dasharray: 1.85,0.8; stroke-dashoffset: 0; stroke: #cccccc; stroke-opacity: 0.7; stroke-width: 0.5"/>
     </g>
     <g id="line2d_71">
      <g>
       <use xlink:href="#m16f584e0cc" x="45.795938" y="533.491446" style="fill: #333333; stroke: #333333; stroke-width: 0.8"/>
      </g>
     </g>
     <g id="text_42">
      <!-- 0.0 -->
      <g style="fill: #333333" transform="translate(25.573594 537.088634) scale(0.09 -0.09)">
       <use xlink:href="#MicrosoftYaHei-30"/>
       <use xlink:href="#MicrosoftYaHei-2e" transform="translate(58.642578 0)"/>
       <use xlink:href="#MicrosoftYaHei-30" transform="translate(82.714844 0)"/>
      </g>
     </g>
    </g>
    <g id="ytick_19">
     <g id="line2d_72">
      <path d="M 45.795938 501.264467 
L 423.925937 501.264467 
" clip-path="url(#pa56ab0e851)" style="fill: none; stroke-dasharray: 1.85,0.8; stroke-dashoffset: 0; stroke: #cccccc; stroke-opacity: 0.7; stroke-width: 0.5"/>
     </g>
     <g id="line2d_73">
      <g>
       <use xlink:href="#m16f584e0cc" x="45.795938" y="501.264467" style="fill: #333333; stroke: #333333; stroke-width: 0.8"/>
      </g>
     </g>
     <g id="text_43">
      <!-- 0.2 -->
      <g style="fill: #333333" transform="translate(25.573594 504.861655) scale(0.09 -0.09)">
       <use xlink:href="#MicrosoftYaHei-30"/>
       <use xlink:href="#MicrosoftYaHei-2e" transform="translate(58.642578 0)"/>
       <use xlink:href="#MicrosoftYaHei-32" transform="translate(82.714844 0)"/>
      </g>
     </g>
    </g>
    <g id="ytick_20">
     <g id="line2d_74">
      <path d="M 45.795938 469.037488 
L 423.925937 469.037488 
" clip-path="url(#pa56ab0e851)" style="fill: none; stroke-dasharray: 1.85,0.8; stroke-dashoffset: 0; stroke: #cccccc; stroke-opacity: 0.7; stroke-width: 0.5"/>
     </g>
     <g id="line2d_75">
      <g>
       <use xlink:href="#m16f584e0cc" x="45.795938" y="469.037488" style="fill: #333333; stroke: #333333; stroke-width: 0.8"/>
      </g>
     </g>
     <g id="text_44">
      <!-- 0.4 -->
      <g style="fill: #333333" transform="translate(25.573594 472.634676) scale(0.09 -0.09)">
       <use xlink:href="#MicrosoftYaHei-30"/>
       <use xlink:href="#MicrosoftYaHei-2e" transform="translate(58.642578 0)"/>
       <use xlink:href="#MicrosoftYaHei-34" transform="translate(82.714844 0)"/>
      </g>
     </g>
    </g>
    <g id="ytick_21">
     <g id="line2d_76">
      <path d="M 45.795938 436.810509 
L 423.925937 436.810509 
" clip-path="url(#pa56ab0e851)" style="fill: none; stroke-dasharray: 1.85,0.8; stroke-dashoffset: 0; stroke: #cccccc; stroke-opacity: 0.7; stroke-width: 0.5"/>
     </g>
     <g id="line2d_77">
      <g>
       <use xlink:href="#m16f584e0cc" x="45.795938" y="436.810509" style="fill: #333333; stroke: #333333; stroke-width: 0.8"/>
      </g>
     </g>
     <g id="text_45">
      <!-- 0.6 -->
      <g style="fill: #333333" transform="translate(25.573594 440.407697) scale(0.09 -0.09)">
       <use xlink:href="#MicrosoftYaHei-30"/>
       <use xlink:href="#MicrosoftYaHei-2e" transform="translate(58.642578 0)"/>
       <use xlink:href="#MicrosoftYaHei-36" transform="translate(82.714844 0)"/>
      </g>
     </g>
    </g>
    <g id="ytick_22">
     <g id="line2d_78">
      <path d="M 45.795938 404.58353 
L 423.925937 404.58353 
" clip-path="url(#pa56ab0e851)" style="fill: none; stroke-dasharray: 1.85,0.8; stroke-dashoffset: 0; stroke: #cccccc; stroke-opacity: 0.7; stroke-width: 0.5"/>
     </g>
     <g id="line2d_79">
      <g>
       <use xlink:href="#m16f584e0cc" x="45.795938" y="404.58353" style="fill: #333333; stroke: #333333; stroke-width: 0.8"/>
      </g>
     </g>
     <g id="text_46">
      <!-- 0.8 -->
      <g style="fill: #333333" transform="translate(25.573594 408.180718) scale(0.09 -0.09)">
       <use xlink:href="#MicrosoftYaHei-30"/>
       <use xlink:href="#MicrosoftYaHei-2e" transform="translate(58.642578 0)"/>
       <use xlink:href="#MicrosoftYaHei-38" transform="translate(82.714844 0)"/>
      </g>
     </g>
    </g>
    <g id="text_47">
     <!-- Y -->
     <g style="fill: #333333" transform="translate(15.19375 531.627969) rotate(-90) scale(0.1 -0.1)">
      <use xlink:href="#MicrosoftYaHei-59"/>
     </g>
    </g>
   </g>
   <g id="PathCollection_1">
    <defs>
     <path id="m0501d0b6a0" d="M 0 3.535534 
C 0.937635 3.535534 1.836992 3.163008 2.5 2.5 
C 3.163008 1.836992 3.535534 0.937635 3.535534 0 
C 3.535534 -0.937635 3.163008 -1.836992 2.5 -2.5 
C 1.836992 -3.163008 0.937635 -3.535534 0 -3.535534 
C -0.937635 -3.535534 -1.836992 -3.163008 -2.5 -2.5 
C -3.163008 -1.836992 -3.535534 -0.937635 -3.535534 0 
C -3.535534 0.937635 -3.163008 1.836992 -2.5 2.5 
C -1.836992 3.163008 -0.937635 3.535534 0 3.535534 
z
"/>
    </defs>
    <g clip-path="url(#pa56ab0e851)">
     <use xlink:href="#m0501d0b6a0" x="62.983665" y="493.822177" style="fill: #1f77b4; fill-opacity: 0.7"/>
     <use xlink:href="#m0501d0b6a0" x="81.076009" y="488.06019" style="fill: #1f77b4; fill-opacity: 0.7"/>
     <use xlink:href="#m0501d0b6a0" x="99.168354" y="410.796493" style="fill: #1f77b4; fill-opacity: 0.7"/>
     <use xlink:href="#m0501d0b6a0" x="117.260698" y="400.419091" style="fill: #1f77b4; fill-opacity: 0.7"/>
     <use xlink:href="#m0501d0b6a0" x="135.353043" y="464.347816" style="fill: #1f77b4; fill-opacity: 0.7"/>
     <use xlink:href="#m0501d0b6a0" x="153.445387" y="530.808559" style="fill: #1f77b4; fill-opacity: 0.7"/>
     <use xlink:href="#m0501d0b6a0" x="171.537732" y="502.032906" style="fill: #1f77b4; fill-opacity: 0.7"/>
     <use xlink:href="#m0501d0b6a0" x="189.630076" y="642.679718" style="fill: #1f77b4; fill-opacity: 0.7"/>
     <use xlink:href="#m0501d0b6a0" x="207.722421" y="656.800909" style="fill: #1f77b4; fill-opacity: 0.7"/>
     <use xlink:href="#m0501d0b6a0" x="225.814765" y="617.333799" style="fill: #1f77b4; fill-opacity: 0.7"/>
     <use xlink:href="#m0501d0b6a0" x="243.90711" y="603.856446" style="fill: #1f77b4; fill-opacity: 0.7"/>
     <use xlink:href="#m0501d0b6a0" x="261.999454" y="581.765817" style="fill: #1f77b4; fill-opacity: 0.7"/>
     <use xlink:href="#m0501d0b6a0" x="280.091799" y="580.929182" style="fill: #1f77b4; fill-opacity: 0.7"/>
     <use xlink:href="#m0501d0b6a0" x="298.184143" y="517.404881" style="fill: #1f77b4; fill-opacity: 0.7"/>
     <use xlink:href="#m0501d0b6a0" x="316.276488" y="439.573562" style="fill: #1f77b4; fill-opacity: 0.7"/>
     <use xlink:href="#m0501d0b6a0" x="334.368832" y="490.955513" style="fill: #1f77b4; fill-opacity: 0.7"/>
     <use xlink:href="#m0501d0b6a0" x="352.461177" y="531.647488" style="fill: #1f77b4; fill-opacity: 0.7"/>
     <use xlink:href="#m0501d0b6a0" x="370.553521" y="517.980306" style="fill: #1f77b4; fill-opacity: 0.7"/>
     <use xlink:href="#m0501d0b6a0" x="388.645866" y="559.608506" style="fill: #1f77b4; fill-opacity: 0.7"/>
     <use xlink:href="#m0501d0b6a0" x="406.73821" y="543.154283" style="fill: #1f77b4; fill-opacity: 0.7"/>
    </g>
   </g>
   <g id="patch_16">
    <path d="M 45.795938 669.62 
L 45.795938 387.6 
" style="fill: none; stroke: #333333; stroke-linejoin: miter; stroke-linecap: square"/>
   </g>
   <g id="patch_17">
    <path d="M 45.795938 669.62 
L 423.925937 669.62 
" style="fill: none; stroke: #333333; stroke-linejoin: miter; stroke-linecap: square"/>
   </g>
   <g id="text_48">
    <!-- 散点图预设 -->
    <g style="fill: #333333" transform="translate(204.860938 381.6) scale(0.12 -0.12)">
     <defs>
      <path id="MicrosoftYaHei-6563" d="M 4175 5328 
L 4675 5253 
Q 4531 4647 4356 4122 
L 6281 4122 
L 6281 3697 
L 5841 3697 
Q 5706 1819 5088 756 
Q 5584 131 6356 -303 
Q 6156 -566 6019 -784 
Q 5294 -288 4800 328 
Q 4291 -328 3475 -878 
Q 3338 -697 3144 -497 
Q 3994 78 4503 756 
Q 3972 1644 3809 2828 
Q 3650 2531 3475 2272 
Q 3350 2453 3163 2647 
Q 3288 2844 3400 3059 
L 125 3059 
L 125 3459 
L 919 3459 
L 919 4197 
L 250 4197 
L 250 4597 
L 919 4597 
L 919 5309 
L 1369 5309 
L 1369 4597 
L 2250 4597 
L 2250 5309 
L 2700 5309 
L 2700 4597 
L 3313 4597 
L 3313 4197 
L 2700 4197 
L 2700 3459 
L 3425 3459 
L 3425 3106 
Q 3919 4069 4175 5328 
z
M 950 -834 
L 500 -834 
L 500 2584 
L 3100 2584 
L 3100 -41 
Q 3100 -759 2425 -759 
Q 2150 -759 1825 -753 
Q 1788 -509 1738 -291 
Q 2056 -316 2325 -316 
Q 2650 -316 2650 34 
L 2650 372 
L 950 372 
L 950 -834 
z
M 5378 3697 
L 4200 3697 
Q 4175 3625 4147 3556 
Q 4281 2116 4788 1206 
Q 5275 2119 5378 3697 
z
M 950 766 
L 2650 766 
L 2650 1278 
L 950 1278 
L 950 766 
z
M 2650 2184 
L 950 2184 
L 950 1672 
L 2650 1672 
L 2650 2184 
z
M 1369 3459 
L 2250 3459 
L 2250 4197 
L 1369 4197 
L 1369 3459 
z
" transform="scale(0.015625)"/>
      <path id="MicrosoftYaHei-70b9" d="M 900 3378 
L 2863 3378 
L 2863 5341 
L 3388 5341 
L 3388 4591 
L 6181 4591 
L 6181 4141 
L 3388 4141 
L 3388 3378 
L 5600 3378 
L 5600 991 
L 5088 991 
L 5088 1253 
L 1413 1253 
L 1413 991 
L 900 991 
L 900 3378 
z
M 5088 2928 
L 1413 2928 
L 1413 1703 
L 5088 1703 
L 5088 2928 
z
M 5425 847 
Q 5925 91 6225 -516 
L 5750 -772 
Q 5438 -134 4994 622 
L 5425 847 
z
M 1369 553 
Q 894 -303 531 -791 
L 100 -484 
Q 506 53 931 803 
L 1369 553 
z
M 2413 828 
Q 2700 197 2913 -503 
L 2406 -678 
Q 2213 3 1963 666 
L 2413 828 
z
M 3906 872 
Q 4206 253 4450 -422 
L 3956 -616 
Q 3781 -53 3450 697 
L 3906 872 
z
" transform="scale(0.015625)"/>
     </defs>
     <use xlink:href="#MicrosoftYaHei-6563"/>
     <use xlink:href="#MicrosoftYaHei-70b9" transform="translate(100 0)"/>
     <use xlink:href="#MicrosoftYaHei-56fe" transform="translate(200 0)"/>
     <use xlink:href="#MicrosoftYaHei-9884" transform="translate(300 0)"/>
     <use xlink:href="#MicrosoftYaHei-8bbe" transform="translate(400 0)"/>
    </g>
   </g>
  </g>
  <g id="axes_4">
   <g id="patch_18">
    <path d="M 470.395937 669.62 
L 848.525937 669.62 
L 848.525937 387.6 
L 470.395937 387.6 
z
" style="fill: #ffffff"/>
   </g>
   <g id="matplotlib.axis_7">
    <g id="xtick_18">
     <g id="text_49">
      <!-- 0 -->
      <g style="fill: #333333" transform="translate(484.944837 680.314375) scale(0.09 -0.09)">
       <use xlink:href="#MicrosoftYaHei-30"/>
      </g>
     </g>
    </g>
    <g id="xtick_19">
     <g id="text_50">
      <!-- 2 -->
      <g style="fill: #333333" transform="translate(553.695746 680.314375) scale(0.09 -0.09)">
       <use xlink:href="#MicrosoftYaHei-32"/>
      </g>
     </g>
    </g>
    <g id="xtick_20">
     <g id="text_51">
      <!-- 4 -->
      <g style="fill: #333333" transform="translate(622.446655 680.314375) scale(0.09 -0.09)">
       <use xlink:href="#MicrosoftYaHei-34"/>
      </g>
     </g>
    </g>
    <g id="xtick_21">
     <g id="text_52">
      <!-- 6 -->
      <g style="fill: #333333" transform="translate(691.197564 680.314375) scale(0.09 -0.09)">
       <use xlink:href="#MicrosoftYaHei-36"/>
      </g>
     </g>
    </g>
    <g id="xtick_22">
     <g id="text_53">
      <!-- 8 -->
      <g style="fill: #333333" transform="translate(759.948473 680.314375) scale(0.09 -0.09)">
       <use xlink:href="#MicrosoftYaHei-38"/>
      </g>
     </g>
    </g>
    <g id="xtick_23">
     <g id="text_54">
      <!-- 10 -->
      <g style="fill: #333333" transform="translate(826.060554 680.314375) scale(0.09 -0.09)">
       <use xlink:href="#MicrosoftYaHei-31"/>
       <use xlink:href="#MicrosoftYaHei-30" transform="translate(58.642578 0)"/>
      </g>
     </g>
    </g>
    <g id="text_55">
     <!-- X -->
     <g style="fill: #333333" transform="translate(656.235937 694.545469) scale(0.1 -0.1)">
      <use xlink:href="#MicrosoftYaHei-58"/>
     </g>
    </g>
   </g>
   <g id="matplotlib.axis_8">
    <g id="ytick_23">
     <g id="text_56">
      <!-- -0.6 -->
      <g style="fill: #333333" transform="translate(450.279687 656.487899) scale(0.09 -0.09)">
       <use xlink:href="#MicrosoftYaHei-2d"/>
       <use xlink:href="#MicrosoftYaHei-30" transform="translate(43.261719 0)"/>
       <use xlink:href="#MicrosoftYaHei-2e" transform="translate(101.904297 0)"/>
       <use xlink:href="#MicrosoftYaHei-36" transform="translate(125.976562 0)"/>
      </g>
     </g>
    </g>
    <g id="ytick_24">
     <g id="text_57">
      <!-- -0.4 -->
      <g style="fill: #333333" transform="translate(450.279687 621.75791) scale(0.09 -0.09)">
       <use xlink:href="#MicrosoftYaHei-2d"/>
       <use xlink:href="#MicrosoftYaHei-30" transform="translate(43.261719 0)"/>
       <use xlink:href="#MicrosoftYaHei-2e" transform="translate(101.904297 0)"/>
       <use xlink:href="#MicrosoftYaHei-34" transform="translate(125.976562 0)"/>
      </g>
     </g>
    </g>
    <g id="ytick_25">
     <g id="text_58">
      <!-- -0.2 -->
      <g style="fill: #333333" transform="translate(450.279687 587.02792) scale(0.09 -0.09)">
       <use xlink:href="#MicrosoftYaHei-2d"/>
       <use xlink:href="#MicrosoftYaHei-30" transform="translate(43.261719 0)"/>
       <use xlink:href="#MicrosoftYaHei-2e" transform="translate(101.904297 0)"/>
       <use xlink:href="#MicrosoftYaHei-32" transform="translate(125.976562 0)"/>
      </g>
     </g>
    </g>
    <g id="ytick_26">
     <g id="text_59">
      <!-- 0.0 -->
      <g style="fill: #333333" transform="translate(454.173594 552.297931) scale(0.09 -0.09)">
       <use xlink:href="#MicrosoftYaHei-30"/>
       <use xlink:href="#MicrosoftYaHei-2e" transform="translate(58.642578 0)"/>
       <use xlink:href="#MicrosoftYaHei-30" transform="translate(82.714844 0)"/>
      </g>
     </g>
    </g>
    <g id="ytick_27">
     <g id="text_60">
      <!-- 0.2 -->
      <g style="fill: #333333" transform="translate(454.173594 517.567941) scale(0.09 -0.09)">
       <use xlink:href="#MicrosoftYaHei-30"/>
       <use xlink:href="#MicrosoftYaHei-2e" transform="translate(58.642578 0)"/>
       <use xlink:href="#MicrosoftYaHei-32" transform="translate(82.714844 0)"/>
      </g>
     </g>
    </g>
    <g id="ytick_28">
     <g id="text_61">
      <!-- 0.4 -->
      <g style="fill: #333333" transform="translate(454.173594 482.837952) scale(0.09 -0.09)">
       <use xlink:href="#MicrosoftYaHei-30"/>
       <use xlink:href="#MicrosoftYaHei-2e" transform="translate(58.642578 0)"/>
       <use xlink:href="#MicrosoftYaHei-34" transform="translate(82.714844 0)"/>
      </g>
     </g>
    </g>
    <g id="ytick_29">
     <g id="text_62">
      <!-- 0.6 -->
      <g style="fill: #333333" transform="translate(454.173594 448.107962) scale(0.09 -0.09)">
       <use xlink:href="#MicrosoftYaHei-30"/>
       <use xlink:href="#MicrosoftYaHei-2e" transform="translate(58.642578 0)"/>
       <use xlink:href="#MicrosoftYaHei-36" transform="translate(82.714844 0)"/>
      </g>
     </g>
    </g>
    <g id="ytick_30">
     <g id="text_63">
      <!-- 0.8 -->
      <g style="fill: #333333" transform="translate(454.173594 413.377973) scale(0.09 -0.09)">
       <use xlink:href="#MicrosoftYaHei-30"/>
       <use xlink:href="#MicrosoftYaHei-2e" transform="translate(58.642578 0)"/>
       <use xlink:href="#MicrosoftYaHei-38" transform="translate(82.714844 0)"/>
      </g>
     </g>
    </g>
    <g id="text_64">
     <!-- Y -->
     <g style="fill: #333333" transform="translate(443.79375 531.627969) rotate(-90) scale(0.1 -0.1)">
      <use xlink:href="#MicrosoftYaHei-59"/>
     </g>
    </g>
   </g>
   <g id="line2d_80">
    <path d="M 487.583665 548.700743 
L 505.676009 465.939986 
L 523.768354 412.918157 
L 541.860698 400.419091 
L 559.953043 427.636617 
L 578.045387 483.541683 
L 596.137732 550.764948 
L 614.230076 610.736274 
L 632.322421 648.622233 
L 650.414765 656.800909 
L 668.50711 636.118685 
L 686.599454 594.824582 
L 704.691799 545.690653 
L 722.784143 502.246699 
L 740.876488 475.194616 
L 758.968832 469.914605 
L 777.061177 485.601127 
L 795.153521 516.089909 
L 813.245866 551.992509 
L 831.33821 583.454033 
" clip-path="url(#p1334abad56)" style="fill: none; stroke: #1f77b4; stroke-width: 2; stroke-linecap: square"/>
   </g>
   <g id="text_65">
    <!-- 简洁风格预设 -->
    <g style="fill: #333333" transform="translate(623.460938 381.6) scale(0.12 -0.12)">
     <defs>
      <path id="MicrosoftYaHei-7b80" d="M 1894 2441 
L 4525 2441 
L 4525 103 
L 2331 103 
L 2331 -147 
L 1894 -147 
L 1894 2441 
z
M 2300 3009 
L 2300 3403 
L 5881 3403 
L 5881 -16 
Q 5881 -822 5081 -822 
Q 4713 -822 4325 -803 
Q 4300 -622 4231 -328 
Q 4681 -366 5050 -366 
Q 5419 -366 5419 3 
L 5419 3009 
L 2300 3009 
z
M 1306 5322 
L 1831 5322 
Q 1681 5016 1513 4734 
L 3288 4734 
L 3288 4341 
L 1250 4341 
Q 875 3816 413 3397 
Q 288 3547 88 3734 
Q 856 4409 1306 5322 
z
M 4019 5322 
L 4544 5322 
Q 4400 5016 4231 4734 
L 6225 4734 
L 6225 4341 
L 4000 4341 
Q 3719 3903 3400 3509 
Q 3231 3628 2994 3772 
Q 3588 4441 4019 5322 
z
M 569 2791 
L 1031 2791 
L 1031 -834 
L 569 -834 
L 569 2791 
z
M 2331 478 
L 4088 478 
L 4088 1097 
L 2331 1097 
L 2331 478 
z
M 4088 2066 
L 2331 2066 
L 2331 1459 
L 4088 1459 
L 4088 2066 
z
M 919 3484 
L 1225 3753 
Q 1613 3416 1944 3053 
L 1594 2734 
Q 1300 3103 919 3484 
z
M 4825 3434 
Q 4706 3622 4319 4072 
L 4644 4303 
Q 4981 3978 5194 3716 
L 4825 3434 
z
M 2169 3441 
Q 1944 3753 1675 4059 
L 2000 4297 
Q 2281 4034 2538 3722 
L 2169 3441 
z
" transform="scale(0.015625)"/>
      <path id="MicrosoftYaHei-6d01" d="M 2275 1759 
L 5800 1759 
L 5800 -834 
L 5325 -834 
L 5325 -403 
L 2750 -403 
L 2750 -834 
L 2275 -834 
L 2275 1759 
z
M 2175 2941 
L 3769 2941 
L 3769 3916 
L 1963 3916 
L 1963 4366 
L 3769 4366 
L 3769 5284 
L 4275 5284 
L 4275 4366 
L 6263 4366 
L 6263 3916 
L 4275 3916 
L 4275 2941 
L 5950 2941 
L 5950 2491 
L 2175 2491 
L 2175 2941 
z
M 5325 1309 
L 2750 1309 
L 2750 47 
L 5325 47 
L 5325 1309 
z
M 1075 1797 
Q 1375 1666 1581 1603 
Q 1238 359 900 -803 
L 356 -609 
Q 769 484 1075 1797 
z
M 688 5241 
Q 1475 4616 1763 4328 
Q 1550 4109 1394 3941 
Q 969 4378 369 4897 
L 688 5241 
z
M 400 3516 
Q 975 3097 1488 2666 
Q 1294 2459 1138 2272 
Q 463 2878 88 3159 
L 400 3516 
z
" transform="scale(0.015625)"/>
      <path id="MicrosoftYaHei-98ce" d="M 1206 4466 
L 1206 2709 
Q 1206 1297 1056 572 
Q 900 -178 450 -853 
Q 200 -559 75 -422 
Q 425 141 569 816 
Q 700 1447 700 2684 
L 700 4928 
L 5325 4928 
L 5325 1516 
Q 5325 391 5469 -53 
Q 5531 -197 5625 -197 
Q 5725 -197 5756 22 
Q 5806 353 5844 1078 
Q 6131 966 6319 909 
Q 6256 253 6188 -147 
Q 6075 -766 5606 -766 
Q 5256 -766 5025 -297 
Q 4819 134 4819 1503 
L 4819 4466 
L 1206 4466 
z
M 1594 3734 
L 1981 4022 
Q 2497 3313 3038 2534 
Q 3513 3309 3938 4147 
L 4363 3941 
Q 3897 2991 3344 2097 
Q 3956 1206 4600 234 
L 4163 -66 
Q 3584 834 3050 1634 
Q 2438 703 1731 -166 
Q 1575 -28 1325 141 
Q 2084 1053 2750 2078 
Q 2141 2975 1594 3734 
z
" transform="scale(0.015625)"/>
      <path id="MicrosoftYaHei-683c" d="M 2250 3278 
Q 3063 4309 3438 5341 
L 3906 5184 
Q 3788 4903 3644 4628 
L 5906 4628 
L 5906 4184 
Q 5481 3447 4731 2809 
Q 5450 2409 6313 2247 
Q 6169 1947 6106 1703 
Q 5163 1991 4313 2503 
Q 3481 1972 2306 1528 
Q 2206 1759 2094 1966 
Q 3088 2284 3919 2816 
Q 3450 3253 3163 3791 
Q 2888 3366 2563 2947 
Q 2444 3084 2250 3278 
z
M 2713 1559 
L 5800 1559 
L 5800 -872 
L 5319 -872 
L 5319 -559 
L 3194 -559 
L 3194 -872 
L 2713 -872 
L 2713 1559 
z
M 88 1378 
Q 756 2422 1025 3641 
L 131 3641 
L 131 4078 
L 1031 4078 
L 1031 5297 
L 1500 5297 
L 1500 4078 
L 2300 4078 
L 2300 3641 
L 1500 3641 
L 1500 2953 
L 1675 3122 
Q 2013 2797 2419 2384 
L 2094 2078 
Q 1763 2466 1500 2747 
L 1500 -866 
L 1031 -866 
L 1031 2453 
Q 713 1422 288 828 
Q 206 1097 88 1378 
z
M 5319 1109 
L 3194 1109 
L 3194 -109 
L 5319 -109 
L 5319 1109 
z
M 5338 4203 
L 3413 4203 
Q 3775 3491 4300 3078 
Q 4938 3566 5338 4203 
z
" transform="scale(0.015625)"/>
     </defs>
     <use xlink:href="#MicrosoftYaHei-7b80"/>
     <use xlink:href="#MicrosoftYaHei-6d01" transform="translate(100 0)"/>
     <use xlink:href="#MicrosoftYaHei-98ce" transform="translate(200 0)"/>
     <use xlink:href="#MicrosoftYaHei-683c" transform="translate(300 0)"/>
     <use xlink:href="#MicrosoftYaHei-9884" transform="translate(400 0)"/>
     <use xlink:href="#MicrosoftYaHei-8bbe" transform="translate(500 0)"/>
    </g>
   </g>
   <g id="legend_3"/>
  </g>
  <g id="text_66">
   <!-- 预设样式展示 -->
   <g transform="translate(379.325938 19.99) scale(0.16 -0.16)">
    <defs>
     <path id="MicrosoftYaHei-6837" d="M 2150 1197 
L 3981 1197 
L 3981 2222 
L 2619 2222 
L 2619 2659 
L 3981 2659 
L 3981 3641 
L 2475 3641 
L 2475 4078 
L 4406 4078 
Q 4925 4828 5188 5316 
L 5650 5022 
Q 5325 4578 4931 4078 
L 6075 4078 
L 6075 3641 
L 4469 3641 
L 4469 2659 
L 5900 2659 
L 5900 2222 
L 4469 2222 
L 4469 1197 
L 6275 1197 
L 6275 759 
L 4469 759 
L 4469 -872 
L 3981 -872 
L 3981 759 
L 2150 759 
L 2150 1197 
z
M 94 1384 
Q 700 2316 1038 3603 
L 163 3603 
L 163 4022 
L 1088 4022 
L 1088 5259 
L 1544 5259 
L 1544 4022 
L 2275 4022 
L 2275 3603 
L 1544 3603 
L 1544 2622 
L 1794 2847 
Q 2200 2447 2594 2022 
L 2238 1697 
Q 1756 2247 1544 2472 
L 1544 -872 
L 1088 -872 
L 1088 2559 
Q 750 1547 319 841 
Q 225 1109 94 1384 
z
M 2831 5047 
L 3200 5322 
Q 3694 4766 3906 4466 
L 3481 4172 
Q 3113 4703 2831 5047 
z
" transform="scale(0.015625)"/>
     <path id="MicrosoftYaHei-5f0f" d="M 94 4122 
L 3569 4122 
Q 3544 4700 3531 5347 
L 4063 5347 
Q 4059 4728 4081 4122 
L 6231 4122 
L 6231 3653 
L 4103 3653 
Q 4225 503 5156 -172 
Q 5494 -447 5631 -22 
Q 5725 303 5800 941 
Q 6094 834 6306 778 
Q 6188 47 6050 -403 
Q 5900 -834 5475 -834 
Q 5044 -834 4619 -397 
Q 3725 553 3597 3653 
L 94 3653 
L 94 4122 
z
M 119 159 
Q 825 244 1569 344 
L 1569 2097 
L 350 2097 
L 350 2566 
L 3288 2566 
L 3288 2097 
L 2081 2097 
L 2081 416 
Q 2809 519 3575 634 
Q 3563 391 3563 128 
Q 1681 -141 244 -366 
L 119 159 
z
M 4544 4978 
L 4844 5297 
Q 5294 4972 5756 4559 
L 5400 4191 
Q 5000 4597 4544 4978 
z
" transform="scale(0.015625)"/>
     <path id="MicrosoftYaHei-5c55" d="M 1463 2897 
L 2488 2897 
L 2488 3441 
L 2950 3441 
L 2950 2897 
L 4244 2897 
L 4244 3441 
L 4706 3441 
L 4706 2897 
L 5875 2897 
L 5875 2484 
L 4706 2484 
L 4706 1797 
L 6169 1797 
L 6169 1384 
L 3534 1384 
Q 3819 922 4228 588 
Q 4716 822 5494 1247 
L 5756 791 
Q 5097 516 4622 316 
Q 5322 -94 6300 -216 
Q 6106 -466 5950 -691 
Q 3900 -266 3047 1384 
L 2381 1384 
L 2381 -184 
Q 2463 -159 3625 209 
Q 3613 -28 3625 -291 
Q 3056 -453 2494 -653 
Q 2350 -709 2044 -859 
L 1769 -478 
Q 1919 -378 1919 -47 
L 1919 1384 
L 1178 1384 
Q 1125 103 456 -847 
Q 300 -634 100 -403 
Q 750 441 750 2341 
L 750 5028 
L 5850 5028 
L 5850 3384 
L 5375 3384 
L 5375 3597 
L 1225 3597 
L 1225 2766 
Q 1225 2234 1203 1797 
L 2488 1797 
L 2488 2484 
L 1463 2484 
L 1463 2897 
z
M 5375 4616 
L 1225 4616 
L 1225 4009 
L 5375 4009 
L 5375 4616 
z
M 2950 1797 
L 4244 1797 
L 4244 2484 
L 2950 2484 
L 2950 1797 
z
" transform="scale(0.015625)"/>
     <path id="MicrosoftYaHei-793a" d="M 100 3072 
L 6300 3072 
L 6300 2603 
L 3619 2603 
L 3619 78 
Q 3619 -703 2800 -709 
Q 2366 -709 1825 -703 
Q 1788 -447 1731 -128 
Q 2225 -178 2663 -178 
Q 3088 -178 3088 241 
L 3088 2603 
L 100 2603 
L 100 3072 
z
M 675 4916 
L 5744 4916 
L 5744 4447 
L 675 4447 
L 675 4916 
z
M 4413 1847 
L 4831 2128 
Q 5600 1184 6319 159 
L 5863 -141 
Q 5088 991 4413 1847 
z
M 1481 2141 
L 1938 1884 
Q 1281 747 538 -278 
Q 344 -134 125 16 
Q 825 922 1481 2141 
z
" transform="scale(0.015625)"/>
    </defs>
    <use xlink:href="#MicrosoftYaHei-9884"/>
    <use xlink:href="#MicrosoftYaHei-8bbe" transform="translate(100 0)"/>
    <use xlink:href="#MicrosoftYaHei-6837" transform="translate(200 0)"/>
    <use xlink:href="#MicrosoftYaHei-5f0f" transform="translate(300 0)"/>
    <use xlink:href="#MicrosoftYaHei-5c55" transform="translate(400 0)"/>
    <use xlink:href="#MicrosoftYaHei-793a" transform="translate(500 0)"/>
   </g>
  </g>
 </g>
 <defs>
  <clipPath id="p39f3c3c7de">
   <rect x="45.795938" y="46.32" width="378.13" height="282.02"/>
  </clipPath>
  <clipPath id="pef1c651d5f">
   <rect x="470.395937" y="46.32" width="378.13" height="282.02"/>
  </clipPath>
  <clipPath id="pa56ab0e851">
   <rect x="45.795938" y="387.6" width="378.13" height="282.02"/>
  </clipPath>
  <clipPath id="p1334abad56">
   <rect x="470.395937" y="387.6" width="378.13" height="282.02"/>
  </clipPath>
 </defs>
</svg>
