<?xml version="1.0" encoding="utf-8" standalone="no"?>
<!DOCTYPE svg PUBLIC "-//W3C//DTD SVG 1.1//EN"
  "http://www.w3.org/Graphics/SVG/1.1/DTD/svg11.dtd">
<svg xmlns:xlink="http://www.w3.org/1999/xlink" width="855.725937pt" height="708.231406pt" viewBox="0 0 855.725937 708.231406" xmlns="http://www.w3.org/2000/svg" version="1.1">
 <metadata>
  <rdf:RDF xmlns:dc="http://purl.org/dc/elements/1.1/" xmlns:cc="http://creativecommons.org/ns#" xmlns:rdf="http://www.w3.org/1999/02/22-rdf-syntax-ns#">
   <cc:Work>
    <dc:type rdf:resource="http://purl.org/dc/dcmitype/StillImage"/>
    <dc:date>2025-04-28T08:13:14.265522</dc:date>
    <dc:format>image/svg+xml</dc:format>
    <dc:creator>
     <cc:Agent>
      <dc:title>Matplotlib v3.10.1, https://matplotlib.org/</dc:title>
     </cc:Agent>
    </dc:creator>
   </cc:Work>
  </rdf:RDF>
 </metadata>
 <defs>
  <style type="text/css">*{stroke-linejoin: round; stroke-linecap: butt}</style>
 </defs>
 <g id="figure_1">
  <g id="patch_1">
   <path d="M 0 708.231406 
L 855.725937 708.231406 
L 855.725937 0 
L 0 0 
z
" style="fill: #ffffff"/>
  </g>
  <g id="axes_1">
   <g id="patch_2">
    <path d="M 45.795938 326.669375 
L 421.925937 326.669375 
L 421.925937 47.9625 
L 45.795938 47.9625 
z
" style="fill: #ffffff"/>
   </g>
   <g id="matplotlib.axis_1">
    <g id="xtick_1">
     <g id="line2d_1">
      <path d="M 62.892756 326.669375 
L 62.892756 47.9625 
" clip-path="url(#p17ab9162ec)" style="fill: none; stroke: #dddddd; stroke-opacity: 0.5; stroke-width: 0.5; stroke-linecap: square"/>
     </g>
     <g id="line2d_2">
      <defs>
       <path id="m43e45a8109" d="M 0 0 
L 0 4 
" style="stroke: #333333; stroke-width: 0.8"/>
      </defs>
      <g>
       <use xlink:href="#m43e45a8109" x="62.892756" y="326.669375" style="fill: #333333; stroke: #333333; stroke-width: 0.8"/>
      </g>
     </g>
     <g id="text_1">
      <!-- 0 -->
      <g style="fill: #333333" transform="translate(60.253928 341.36375) scale(0.09 -0.09)">
       <defs>
        <path id="MicrosoftYaHei-30" d="M 284 2325 
Q 284 3606 709 4264 
Q 1134 4922 1941 4922 
Q 3478 4922 3478 2441 
Q 3478 1216 3045 567 
Q 2613 -81 1831 -81 
Q 1094 -81 689 534 
Q 284 1150 284 2325 
z
M 909 2353 
Q 909 425 1888 425 
Q 2850 425 2850 2384 
Q 2850 4413 1906 4413 
Q 909 4413 909 2353 
z
" transform="scale(0.015625)"/>
       </defs>
       <use xlink:href="#MicrosoftYaHei-30"/>
      </g>
     </g>
    </g>
    <g id="xtick_2">
     <g id="line2d_3">
      <path d="M 131.280028 326.669375 
L 131.280028 47.9625 
" clip-path="url(#p17ab9162ec)" style="fill: none; stroke: #dddddd; stroke-opacity: 0.5; stroke-width: 0.5; stroke-linecap: square"/>
     </g>
     <g id="line2d_4">
      <g>
       <use xlink:href="#m43e45a8109" x="131.280028" y="326.669375" style="fill: #333333; stroke: #333333; stroke-width: 0.8"/>
      </g>
     </g>
     <g id="text_2">
      <!-- 2 -->
      <g style="fill: #333333" transform="translate(128.6412 341.36375) scale(0.09 -0.09)">
       <defs>
        <path id="MicrosoftYaHei-32" d="M 2666 3572 
Q 2666 3963 2419 4186 
Q 2172 4409 1747 4409 
Q 1447 4409 1140 4256 
Q 834 4103 569 3819 
L 569 4413 
Q 806 4659 1107 4790 
Q 1409 4922 1816 4922 
Q 2472 4922 2872 4570 
Q 3272 4219 3272 3619 
Q 3272 3084 3026 2693 
Q 2781 2303 2188 1894 
Q 1581 1475 1376 1294 
Q 1172 1113 1090 947 
Q 1009 781 1009 544 
L 3416 544 
L 3416 0 
L 372 0 
L 372 241 
Q 372 659 486 951 
Q 600 1244 862 1520 
Q 1125 1797 1681 2184 
Q 2250 2584 2458 2886 
Q 2666 3188 2666 3572 
z
" transform="scale(0.015625)"/>
       </defs>
       <use xlink:href="#MicrosoftYaHei-32"/>
      </g>
     </g>
    </g>
    <g id="xtick_3">
     <g id="line2d_5">
      <path d="M 199.667301 326.669375 
L 199.667301 47.9625 
" clip-path="url(#p17ab9162ec)" style="fill: none; stroke: #dddddd; stroke-opacity: 0.5; stroke-width: 0.5; stroke-linecap: square"/>
     </g>
     <g id="line2d_6">
      <g>
       <use xlink:href="#m43e45a8109" x="199.667301" y="326.669375" style="fill: #333333; stroke: #333333; stroke-width: 0.8"/>
      </g>
     </g>
     <g id="text_3">
      <!-- 4 -->
      <g style="fill: #333333" transform="translate(197.028473 341.36375) scale(0.09 -0.09)">
       <defs>
        <path id="MicrosoftYaHei-34" d="M 2906 4841 
L 2906 1644 
L 3631 1644 
L 3631 1138 
L 2906 1138 
L 2906 0 
L 2313 0 
L 2313 1138 
L 53 1138 
L 53 1616 
Q 656 2294 1265 3178 
Q 1875 4063 2272 4841 
L 2906 4841 
z
M 741 1644 
L 2313 1644 
L 2313 3950 
Q 1988 3366 1616 2817 
Q 1244 2269 741 1644 
z
" transform="scale(0.015625)"/>
       </defs>
       <use xlink:href="#MicrosoftYaHei-34"/>
      </g>
     </g>
    </g>
    <g id="xtick_4">
     <g id="line2d_7">
      <path d="M 268.054574 326.669375 
L 268.054574 47.9625 
" clip-path="url(#p17ab9162ec)" style="fill: none; stroke: #dddddd; stroke-opacity: 0.5; stroke-width: 0.5; stroke-linecap: square"/>
     </g>
     <g id="line2d_8">
      <g>
       <use xlink:href="#m43e45a8109" x="268.054574" y="326.669375" style="fill: #333333; stroke: #333333; stroke-width: 0.8"/>
      </g>
     </g>
     <g id="text_4">
      <!-- 6 -->
      <g style="fill: #333333" transform="translate(265.415746 341.36375) scale(0.09 -0.09)">
       <defs>
        <path id="MicrosoftYaHei-36" d="M 3181 4219 
Q 2803 4413 2391 4413 
Q 1763 4413 1381 3866 
Q 1000 3319 994 2372 
L 1009 2372 
Q 1353 3038 2106 3038 
Q 2734 3038 3109 2628 
Q 3484 2219 3484 1541 
Q 3484 831 3051 375 
Q 2619 -81 1947 -81 
Q 1209 -81 789 495 
Q 369 1072 369 2131 
Q 369 3413 920 4167 
Q 1472 4922 2372 4922 
Q 2888 4922 3181 4781 
L 3181 4219 
z
M 1031 1584 
Q 1031 1106 1286 765 
Q 1541 425 1963 425 
Q 2363 425 2613 719 
Q 2863 1013 2863 1475 
Q 2863 1975 2627 2253 
Q 2391 2531 1956 2531 
Q 1544 2531 1287 2250 
Q 1031 1969 1031 1584 
z
" transform="scale(0.015625)"/>
       </defs>
       <use xlink:href="#MicrosoftYaHei-36"/>
      </g>
     </g>
    </g>
    <g id="xtick_5">
     <g id="line2d_9">
      <path d="M 336.441847 326.669375 
L 336.441847 47.9625 
" clip-path="url(#p17ab9162ec)" style="fill: none; stroke: #dddddd; stroke-opacity: 0.5; stroke-width: 0.5; stroke-linecap: square"/>
     </g>
     <g id="line2d_10">
      <g>
       <use xlink:href="#m43e45a8109" x="336.441847" y="326.669375" style="fill: #333333; stroke: #333333; stroke-width: 0.8"/>
      </g>
     </g>
     <g id="text_5">
      <!-- 8 -->
      <g style="fill: #333333" transform="translate(333.803018 341.36375) scale(0.09 -0.09)">
       <defs>
        <path id="MicrosoftYaHei-38" d="M 306 1350 
Q 306 1769 556 2122 
Q 806 2475 1200 2625 
Q 884 2803 700 3081 
Q 516 3359 516 3684 
Q 516 4028 692 4312 
Q 869 4597 1183 4759 
Q 1497 4922 1875 4922 
Q 2256 4922 2572 4761 
Q 2888 4600 3063 4315 
Q 3238 4031 3238 3684 
Q 3238 3366 3058 3086 
Q 2878 2806 2559 2625 
Q 2953 2472 3200 2119 
Q 3447 1766 3447 1350 
Q 3447 938 3250 611 
Q 3053 284 2690 103 
Q 2328 -78 1875 -78 
Q 1425 -78 1065 103 
Q 706 284 506 612 
Q 306 941 306 1350 
z
M 906 1378 
Q 906 947 1172 687 
Q 1438 428 1878 428 
Q 2309 428 2582 692 
Q 2856 956 2856 1378 
Q 2856 1778 2579 2051 
Q 2303 2325 1878 2325 
Q 1456 2325 1181 2058 
Q 906 1791 906 1378 
z
M 1081 3634 
Q 1081 3309 1312 3076 
Q 1544 2844 1878 2844 
Q 2206 2844 2445 3078 
Q 2684 3313 2684 3634 
Q 2684 3963 2454 4191 
Q 2225 4419 1878 4419 
Q 1534 4419 1307 4195 
Q 1081 3972 1081 3634 
z
" transform="scale(0.015625)"/>
       </defs>
       <use xlink:href="#MicrosoftYaHei-38"/>
      </g>
     </g>
    </g>
    <g id="xtick_6">
     <g id="line2d_11">
      <path d="M 404.829119 326.669375 
L 404.829119 47.9625 
" clip-path="url(#p17ab9162ec)" style="fill: none; stroke: #dddddd; stroke-opacity: 0.5; stroke-width: 0.5; stroke-linecap: square"/>
     </g>
     <g id="line2d_12">
      <g>
       <use xlink:href="#m43e45a8109" x="404.829119" y="326.669375" style="fill: #333333; stroke: #333333; stroke-width: 0.8"/>
      </g>
     </g>
     <g id="text_6">
      <!-- 10 -->
      <g style="fill: #333333" transform="translate(399.551463 341.36375) scale(0.09 -0.09)">
       <defs>
        <path id="MicrosoftYaHei-31" d="M 1781 0 
L 1781 4141 
Q 1638 3997 1295 3819 
Q 953 3641 663 3569 
L 663 4169 
Q 1047 4275 1484 4508 
Q 1922 4741 2156 4947 
L 2388 4947 
L 2388 0 
L 1781 0 
z
" transform="scale(0.015625)"/>
       </defs>
       <use xlink:href="#MicrosoftYaHei-31"/>
       <use xlink:href="#MicrosoftYaHei-30" transform="translate(58.642578 0)"/>
      </g>
     </g>
    </g>
    <g id="text_7">
     <!-- X -->
     <g style="fill: #333333" transform="translate(230.635938 355.594844) scale(0.1 -0.1)">
      <defs>
       <path id="MicrosoftYaHei-58" d="M 4034 0 
L 3275 0 
L 2194 1822 
Q 2156 1884 2084 2072 
L 2069 2072 
Q 2063 2047 1956 1819 
L 844 0 
L 81 0 
L 1691 2431 
L 209 4841 
L 975 4841 
L 1931 3166 
Q 2016 3019 2100 2822 
L 2113 2822 
Q 2188 2991 2297 3181 
L 3297 4841 
L 4013 4841 
L 2500 2441 
L 4034 0 
z
" transform="scale(0.015625)"/>
      </defs>
      <use xlink:href="#MicrosoftYaHei-58"/>
     </g>
    </g>
   </g>
   <g id="matplotlib.axis_2">
    <g id="ytick_1">
     <g id="line2d_13">
      <path d="M 45.795938 309.39568 
L 421.925937 309.39568 
" clip-path="url(#p17ab9162ec)" style="fill: none; stroke: #dddddd; stroke-opacity: 0.5; stroke-width: 0.5; stroke-linecap: square"/>
     </g>
     <g id="line2d_14">
      <defs>
       <path id="med5eab2dde" d="M 0 0 
L -4 0 
" style="stroke: #333333; stroke-width: 0.8"/>
      </defs>
      <g>
       <use xlink:href="#med5eab2dde" x="45.795938" y="309.39568" style="fill: #333333; stroke: #333333; stroke-width: 0.8"/>
      </g>
     </g>
     <g id="text_8">
      <!-- -0.6 -->
      <g style="fill: #333333" transform="translate(21.679688 312.992868) scale(0.09 -0.09)">
       <defs>
        <path id="MicrosoftYaHei-2d" d="M 2328 1681 
L 488 1681 
L 488 2153 
L 2328 2153 
L 2328 1681 
z
" transform="scale(0.015625)"/>
        <path id="MicrosoftYaHei-2e" d="M 372 322 
Q 372 491 487 606 
Q 603 722 775 722 
Q 950 722 1065 605 
Q 1181 488 1181 322 
Q 1181 159 1065 42 
Q 950 -75 772 -75 
Q 600 -75 486 42 
Q 372 159 372 322 
z
" transform="scale(0.015625)"/>
       </defs>
       <use xlink:href="#MicrosoftYaHei-2d"/>
       <use xlink:href="#MicrosoftYaHei-30" transform="translate(43.261719 0)"/>
       <use xlink:href="#MicrosoftYaHei-2e" transform="translate(101.904297 0)"/>
       <use xlink:href="#MicrosoftYaHei-36" transform="translate(125.976562 0)"/>
      </g>
     </g>
    </g>
    <g id="ytick_2">
     <g id="line2d_15">
      <path d="M 45.795938 275.273329 
L 421.925937 275.273329 
" clip-path="url(#p17ab9162ec)" style="fill: none; stroke: #dddddd; stroke-opacity: 0.5; stroke-width: 0.5; stroke-linecap: square"/>
     </g>
     <g id="line2d_16">
      <g>
       <use xlink:href="#med5eab2dde" x="45.795938" y="275.273329" style="fill: #333333; stroke: #333333; stroke-width: 0.8"/>
      </g>
     </g>
     <g id="text_9">
      <!-- -0.4 -->
      <g style="fill: #333333" transform="translate(21.679688 278.870516) scale(0.09 -0.09)">
       <use xlink:href="#MicrosoftYaHei-2d"/>
       <use xlink:href="#MicrosoftYaHei-30" transform="translate(43.261719 0)"/>
       <use xlink:href="#MicrosoftYaHei-2e" transform="translate(101.904297 0)"/>
       <use xlink:href="#MicrosoftYaHei-34" transform="translate(125.976562 0)"/>
      </g>
     </g>
    </g>
    <g id="ytick_3">
     <g id="line2d_17">
      <path d="M 45.795938 241.150977 
L 421.925937 241.150977 
" clip-path="url(#p17ab9162ec)" style="fill: none; stroke: #dddddd; stroke-opacity: 0.5; stroke-width: 0.5; stroke-linecap: square"/>
     </g>
     <g id="line2d_18">
      <g>
       <use xlink:href="#med5eab2dde" x="45.795938" y="241.150977" style="fill: #333333; stroke: #333333; stroke-width: 0.8"/>
      </g>
     </g>
     <g id="text_10">
      <!-- -0.2 -->
      <g style="fill: #333333" transform="translate(21.679688 244.748165) scale(0.09 -0.09)">
       <use xlink:href="#MicrosoftYaHei-2d"/>
       <use xlink:href="#MicrosoftYaHei-30" transform="translate(43.261719 0)"/>
       <use xlink:href="#MicrosoftYaHei-2e" transform="translate(101.904297 0)"/>
       <use xlink:href="#MicrosoftYaHei-32" transform="translate(125.976562 0)"/>
      </g>
     </g>
    </g>
    <g id="ytick_4">
     <g id="line2d_19">
      <path d="M 45.795938 207.028626 
L 421.925937 207.028626 
" clip-path="url(#p17ab9162ec)" style="fill: none; stroke: #dddddd; stroke-opacity: 0.5; stroke-width: 0.5; stroke-linecap: square"/>
     </g>
     <g id="line2d_20">
      <g>
       <use xlink:href="#med5eab2dde" x="45.795938" y="207.028626" style="fill: #333333; stroke: #333333; stroke-width: 0.8"/>
      </g>
     </g>
     <g id="text_11">
      <!-- 0.0 -->
      <g style="fill: #333333" transform="translate(25.573594 210.625814) scale(0.09 -0.09)">
       <use xlink:href="#MicrosoftYaHei-30"/>
       <use xlink:href="#MicrosoftYaHei-2e" transform="translate(58.642578 0)"/>
       <use xlink:href="#MicrosoftYaHei-30" transform="translate(82.714844 0)"/>
      </g>
     </g>
    </g>
    <g id="ytick_5">
     <g id="line2d_21">
      <path d="M 45.795938 172.906275 
L 421.925937 172.906275 
" clip-path="url(#p17ab9162ec)" style="fill: none; stroke: #dddddd; stroke-opacity: 0.5; stroke-width: 0.5; stroke-linecap: square"/>
     </g>
     <g id="line2d_22">
      <g>
       <use xlink:href="#med5eab2dde" x="45.795938" y="172.906275" style="fill: #333333; stroke: #333333; stroke-width: 0.8"/>
      </g>
     </g>
     <g id="text_12">
      <!-- 0.2 -->
      <g style="fill: #333333" transform="translate(25.573594 176.503462) scale(0.09 -0.09)">
       <use xlink:href="#MicrosoftYaHei-30"/>
       <use xlink:href="#MicrosoftYaHei-2e" transform="translate(58.642578 0)"/>
       <use xlink:href="#MicrosoftYaHei-32" transform="translate(82.714844 0)"/>
      </g>
     </g>
    </g>
    <g id="ytick_6">
     <g id="line2d_23">
      <path d="M 45.795938 138.783923 
L 421.925937 138.783923 
" clip-path="url(#p17ab9162ec)" style="fill: none; stroke: #dddddd; stroke-opacity: 0.5; stroke-width: 0.5; stroke-linecap: square"/>
     </g>
     <g id="line2d_24">
      <g>
       <use xlink:href="#med5eab2dde" x="45.795938" y="138.783923" style="fill: #333333; stroke: #333333; stroke-width: 0.8"/>
      </g>
     </g>
     <g id="text_13">
      <!-- 0.4 -->
      <g style="fill: #333333" transform="translate(25.573594 142.381111) scale(0.09 -0.09)">
       <use xlink:href="#MicrosoftYaHei-30"/>
       <use xlink:href="#MicrosoftYaHei-2e" transform="translate(58.642578 0)"/>
       <use xlink:href="#MicrosoftYaHei-34" transform="translate(82.714844 0)"/>
      </g>
     </g>
    </g>
    <g id="ytick_7">
     <g id="line2d_25">
      <path d="M 45.795938 104.661572 
L 421.925937 104.661572 
" clip-path="url(#p17ab9162ec)" style="fill: none; stroke: #dddddd; stroke-opacity: 0.5; stroke-width: 0.5; stroke-linecap: square"/>
     </g>
     <g id="line2d_26">
      <g>
       <use xlink:href="#med5eab2dde" x="45.795938" y="104.661572" style="fill: #333333; stroke: #333333; stroke-width: 0.8"/>
      </g>
     </g>
     <g id="text_14">
      <!-- 0.6 -->
      <g style="fill: #333333" transform="translate(25.573594 108.258759) scale(0.09 -0.09)">
       <use xlink:href="#MicrosoftYaHei-30"/>
       <use xlink:href="#MicrosoftYaHei-2e" transform="translate(58.642578 0)"/>
       <use xlink:href="#MicrosoftYaHei-36" transform="translate(82.714844 0)"/>
      </g>
     </g>
    </g>
    <g id="ytick_8">
     <g id="line2d_27">
      <path d="M 45.795938 70.53922 
L 421.925937 70.53922 
" clip-path="url(#p17ab9162ec)" style="fill: none; stroke: #dddddd; stroke-opacity: 0.5; stroke-width: 0.5; stroke-linecap: square"/>
     </g>
     <g id="line2d_28">
      <g>
       <use xlink:href="#med5eab2dde" x="45.795938" y="70.53922" style="fill: #333333; stroke: #333333; stroke-width: 0.8"/>
      </g>
     </g>
     <g id="text_15">
      <!-- 0.8 -->
      <g style="fill: #333333" transform="translate(25.573594 74.136408) scale(0.09 -0.09)">
       <use xlink:href="#MicrosoftYaHei-30"/>
       <use xlink:href="#MicrosoftYaHei-2e" transform="translate(58.642578 0)"/>
       <use xlink:href="#MicrosoftYaHei-38" transform="translate(82.714844 0)"/>
      </g>
     </g>
    </g>
    <g id="text_16">
     <!-- Y -->
     <g style="fill: #333333" transform="translate(15.19375 190.333906) rotate(-90) scale(0.1 -0.1)">
      <defs>
       <path id="MicrosoftYaHei-59" d="M 3828 4841 
L 2234 1781 
L 2234 0 
L 1606 0 
L 1606 1766 
L 53 4841 
L 769 4841 
L 1816 2697 
Q 1819 2694 1931 2388 
L 1941 2388 
Q 1978 2519 2069 2694 
L 3163 4841 
L 3828 4841 
z
" transform="scale(0.015625)"/>
      </defs>
      <use xlink:href="#MicrosoftYaHei-59"/>
     </g>
    </g>
   </g>
   <g id="line2d_29">
    <path d="M 62.892756 207.028626 
L 66.346658 189.997311 
L 69.800561 173.48021 
L 73.254464 157.635396 
L 76.708366 142.610929 
L 80.162269 128.543545 
L 83.616172 115.557492 
L 87.070074 103.763509 
L 90.523977 93.257971 
L 93.97788 84.122191 
L 97.431782 76.421896 
L 100.885685 70.206866 
L 104.339588 65.510745 
L 107.79349 62.351024 
L 111.247393 60.729182 
L 114.701296 60.630994 
L 118.155198 62.02699 
L 121.609101 64.873056 
L 125.063004 69.111183 
L 128.516906 74.670331 
L 131.970809 81.467418 
L 135.424712 89.408403 
L 138.878614 98.389467 
L 142.332517 108.298266 
L 145.78642 119.015246 
L 149.240322 130.415007 
L 152.694225 142.367697 
L 156.148128 154.740424 
L 159.60203 167.398675 
L 163.055933 180.207714 
L 166.509836 193.033965 
L 169.963738 205.746346 
L 173.417641 218.217557 
L 176.871544 230.325305 
L 180.325446 241.953445 
L 183.779349 252.993044 
L 187.233252 263.343348 
L 190.687154 272.91264 
L 194.141057 281.619003 
L 197.59496 289.39095 
L 201.048862 296.167952 
L 204.502765 301.900828 
L 207.956668 306.552026 
L 211.41057 310.095769 
L 214.864473 312.518084 
L 218.318376 313.816709 
L 221.772278 314.000881 
L 225.226181 313.091009 
L 228.680084 311.118249 
L 232.133986 308.123966 
L 235.587889 304.15911 
L 239.041791 299.283505 
L 242.495694 293.565062 
L 245.949597 287.078926 
L 249.403499 279.906562 
L 252.857402 272.134801 
L 256.311305 263.854848 
L 259.765207 255.161264 
L 263.21911 246.150933 
L 266.673013 236.922033 
L 270.126915 227.573003 
L 273.580818 218.20154 
L 277.034721 208.903616 
L 280.488623 199.772532 
L 283.942526 190.898024 
L 287.396429 182.365419 
L 290.850331 174.25485 
L 294.304234 166.640548 
L 297.758137 159.590198 
L 301.212039 153.164387 
L 304.665942 147.416122 
L 308.119845 142.390444 
L 311.573747 138.124127 
L 315.02765 134.645472 
L 318.481553 131.974184 
L 321.935455 130.121343 
L 325.389358 129.089467 
L 328.843261 128.872656 
L 332.297163 129.456819 
L 335.751066 130.819981 
L 339.204969 132.93267 
L 342.658871 135.758361 
L 346.112774 139.253992 
L 349.566677 143.370533 
L 353.020579 148.053609 
L 356.474482 153.244154 
L 359.928385 158.879112 
L 363.382287 164.892159 
L 366.83619 171.214442 
L 370.290093 177.775336 
L 373.743995 184.503192 
L 377.197898 191.326095 
L 380.651801 198.1726 
L 384.105703 204.972448 
L 387.559606 211.657262 
L 391.013509 218.161205 
L 394.467411 224.4216 
L 397.921314 230.379506 
L 401.375217 235.980245 
L 404.829119 241.17387 
" clip-path="url(#p17ab9162ec)" style="fill: none; stroke: #1f77b4; stroke-width: 2; stroke-linecap: square"/>
   </g>
   <g id="patch_3">
    <path d="M 45.795938 326.669375 
L 45.795938 47.9625 
" style="fill: none; stroke: #333333; stroke-linejoin: miter; stroke-linecap: square"/>
   </g>
   <g id="patch_4">
    <path d="M 45.795938 326.669375 
L 421.925938 326.669375 
" style="fill: none; stroke: #333333; stroke-linejoin: miter; stroke-linecap: square"/>
   </g>
   <g id="text_17">
    <!-- 主题: clean -->
    <g transform="translate(197.435781 41.9625) scale(0.14 -0.14)">
     <defs>
      <path id="MicrosoftYaHei-Bold-4e3b" d="M 138 241 
L 2725 241 
L 2725 1409 
L 800 1409 
L 800 2222 
L 2725 2222 
L 2725 3353 
L 500 3353 
L 500 4178 
L 2922 4178 
Q 2713 4591 2450 4991 
L 3306 5378 
Q 3588 4966 3869 4459 
L 3266 4178 
L 5925 4178 
L 5925 3353 
L 3669 3353 
L 3669 2222 
L 5638 2222 
L 5638 1409 
L 3669 1409 
L 3669 241 
L 6263 241 
L 6263 -597 
L 138 -597 
L 138 241 
z
" transform="scale(0.015625)"/>
      <path id="MicrosoftYaHei-Bold-9898" d="M 406 5091 
L 2856 5091 
L 2856 2666 
L 406 2666 
L 406 5091 
z
M 2131 4503 
L 1131 4503 
L 1131 4141 
L 2131 4141 
L 2131 4503 
z
M 2131 3253 
L 2131 3616 
L 1131 3616 
L 1131 3253 
L 2131 3253 
z
M 3213 3966 
L 4041 3966 
Q 4084 4219 4116 4453 
L 3100 4453 
L 3100 5078 
L 6169 5078 
L 6169 4453 
L 4906 4453 
Q 4866 4206 4819 3966 
L 5981 3966 
L 5981 1341 
L 5269 1341 
L 5269 3341 
L 3925 3341 
L 3925 1347 
L 3213 1347 
L 3213 3966 
z
M 425 1491 
L 1106 1491 
Q 1109 1134 1094 822 
Q 1238 688 1394 575 
L 1394 1753 
L 138 1753 
L 138 2378 
L 3000 2378 
L 3000 1753 
L 2163 1753 
L 2163 1353 
L 2906 1353 
L 2906 741 
L 2163 741 
L 2163 178 
Q 2594 28 3172 19 
Q 2953 347 2713 609 
Q 3400 797 3831 1211 
Q 4263 1625 4263 2509 
L 4263 3072 
L 4938 3072 
L 4938 2472 
Q 4938 1956 4825 1541 
Q 5659 1050 6306 591 
L 5828 25 
L 6319 34 
Q 6175 -303 6094 -691 
Q 4706 -691 3689 -680 
Q 2672 -669 2331 -597 
Q 1991 -525 1653 -358 
Q 1316 -191 1013 66 
Q 909 -544 688 -909 
Q 463 -628 75 -266 
Q 431 278 425 1491 
z
M 3428 16 
L 5744 25 
Q 5163 506 4544 909 
Q 4166 369 3428 16 
z
" transform="scale(0.015625)"/>
      <path id="MicrosoftYaHei-Bold-3a" d="M 313 2969 
Q 313 3200 491 3350 
Q 669 3500 916 3500 
Q 1166 3500 1337 3350 
Q 1509 3200 1509 2969 
Q 1509 2728 1337 2579 
Q 1166 2431 903 2431 
Q 653 2431 483 2584 
Q 313 2738 313 2969 
z
M 313 453 
Q 313 688 491 838 
Q 669 988 916 988 
Q 1166 988 1337 834 
Q 1509 681 1509 453 
Q 1509 213 1337 64 
Q 1166 -84 903 -84 
Q 659 -84 486 69 
Q 313 222 313 453 
z
" transform="scale(0.015625)"/>
      <path id="MicrosoftYaHei-Bold-20" transform="scale(0.015625)"/>
      <path id="MicrosoftYaHei-Bold-63" d="M 3050 128 
Q 2688 -84 2019 -84 
Q 1228 -84 740 397 
Q 253 878 253 1644 
Q 253 2525 778 3033 
Q 1303 3541 2178 3541 
Q 2769 3541 3053 3378 
L 3053 2513 
Q 2706 2766 2297 2766 
Q 1834 2766 1554 2484 
Q 1275 2203 1275 1713 
Q 1275 1238 1540 964 
Q 1806 691 2263 691 
Q 2666 691 3050 947 
L 3050 128 
z
" transform="scale(0.015625)"/>
      <path id="MicrosoftYaHei-Bold-6c" d="M 444 0 
L 444 5116 
L 1450 5116 
L 1450 0 
L 444 0 
z
" transform="scale(0.015625)"/>
      <path id="MicrosoftYaHei-Bold-65" d="M 3528 1444 
L 1253 1444 
Q 1306 641 2222 641 
Q 2794 641 3231 922 
L 3231 181 
Q 2759 -84 1994 -84 
Q 1169 -84 711 381 
Q 253 847 253 1678 
Q 253 2506 740 3023 
Q 1228 3541 1966 3541 
Q 2700 3541 3114 3095 
Q 3528 2650 3528 1872 
L 3528 1444 
z
M 2588 2075 
Q 2588 2850 1959 2850 
Q 1700 2850 1500 2637 
Q 1300 2425 1250 2075 
L 2588 2075 
z
" transform="scale(0.015625)"/>
      <path id="MicrosoftYaHei-Bold-61" d="M 544 3247 
Q 778 3378 1170 3459 
Q 1563 3541 1841 3541 
Q 3291 3541 3291 2088 
L 3291 0 
L 2331 0 
L 2331 503 
L 2319 503 
Q 1966 -84 1284 -84 
Q 794 -84 498 195 
Q 203 475 203 956 
Q 203 1950 1388 2113 
L 2338 2241 
Q 2338 2844 1709 2844 
Q 1091 2844 544 2469 
L 544 3247 
z
M 1684 1566 
Q 1138 1494 1138 1072 
Q 1138 878 1270 759 
Q 1403 641 1628 641 
Q 1938 641 2138 859 
Q 2338 1078 2338 1403 
L 2338 1650 
L 1684 1566 
z
" transform="scale(0.015625)"/>
      <path id="MicrosoftYaHei-Bold-6e" d="M 3744 0 
L 2741 0 
L 2741 1928 
Q 2741 2766 2138 2766 
Q 1850 2766 1659 2542 
Q 1469 2319 1469 1972 
L 1469 0 
L 459 0 
L 459 3456 
L 1469 3456 
L 1469 2906 
L 1481 2906 
Q 1859 3541 2594 3541 
Q 3744 3541 3744 2116 
L 3744 0 
z
" transform="scale(0.015625)"/>
     </defs>
     <use xlink:href="#MicrosoftYaHei-Bold-4e3b"/>
     <use xlink:href="#MicrosoftYaHei-Bold-9898" transform="translate(100 0)"/>
     <use xlink:href="#MicrosoftYaHei-Bold-3a" transform="translate(200 0)"/>
     <use xlink:href="#MicrosoftYaHei-Bold-20" transform="translate(228.564453 0)"/>
     <use xlink:href="#MicrosoftYaHei-Bold-63" transform="translate(258.349609 0)"/>
     <use xlink:href="#MicrosoftYaHei-Bold-6c" transform="translate(310.009766 0)"/>
     <use xlink:href="#MicrosoftYaHei-Bold-65" transform="translate(339.599609 0)"/>
     <use xlink:href="#MicrosoftYaHei-Bold-61" transform="translate(397.802734 0)"/>
     <use xlink:href="#MicrosoftYaHei-Bold-6e" transform="translate(455.566406 0)"/>
    </g>
   </g>
  </g>
  <g id="axes_2">
   <g id="patch_5">
    <path d="M 472.395938 326.669375 
L 848.525937 326.669375 
L 848.525937 47.9625 
L 472.395938 47.9625 
z
" style="fill: #ffffff"/>
   </g>
   <g id="matplotlib.axis_3">
    <g id="xtick_7">
     <g id="line2d_30">
      <path d="M 489.492756 326.669375 
L 489.492756 47.9625 
" clip-path="url(#pde8942e8d5)" style="fill: none; stroke: #dddddd; stroke-opacity: 0.5; stroke-width: 0.5; stroke-linecap: square"/>
     </g>
     <g id="line2d_31">
      <g>
       <use xlink:href="#m43e45a8109" x="489.492756" y="326.669375" style="fill: #333333; stroke: #333333; stroke-width: 0.8"/>
      </g>
     </g>
     <g id="text_18">
      <!-- 0 -->
      <g style="fill: #333333" transform="translate(486.853928 341.36375) scale(0.09 -0.09)">
       <use xlink:href="#MicrosoftYaHei-30"/>
      </g>
     </g>
    </g>
    <g id="xtick_8">
     <g id="line2d_32">
      <path d="M 557.880028 326.669375 
L 557.880028 47.9625 
" clip-path="url(#pde8942e8d5)" style="fill: none; stroke: #dddddd; stroke-opacity: 0.5; stroke-width: 0.5; stroke-linecap: square"/>
     </g>
     <g id="line2d_33">
      <g>
       <use xlink:href="#m43e45a8109" x="557.880028" y="326.669375" style="fill: #333333; stroke: #333333; stroke-width: 0.8"/>
      </g>
     </g>
     <g id="text_19">
      <!-- 2 -->
      <g style="fill: #333333" transform="translate(555.2412 341.36375) scale(0.09 -0.09)">
       <use xlink:href="#MicrosoftYaHei-32"/>
      </g>
     </g>
    </g>
    <g id="xtick_9">
     <g id="line2d_34">
      <path d="M 626.267301 326.669375 
L 626.267301 47.9625 
" clip-path="url(#pde8942e8d5)" style="fill: none; stroke: #dddddd; stroke-opacity: 0.5; stroke-width: 0.5; stroke-linecap: square"/>
     </g>
     <g id="line2d_35">
      <g>
       <use xlink:href="#m43e45a8109" x="626.267301" y="326.669375" style="fill: #333333; stroke: #333333; stroke-width: 0.8"/>
      </g>
     </g>
     <g id="text_20">
      <!-- 4 -->
      <g style="fill: #333333" transform="translate(623.628473 341.36375) scale(0.09 -0.09)">
       <use xlink:href="#MicrosoftYaHei-34"/>
      </g>
     </g>
    </g>
    <g id="xtick_10">
     <g id="line2d_36">
      <path d="M 694.654574 326.669375 
L 694.654574 47.9625 
" clip-path="url(#pde8942e8d5)" style="fill: none; stroke: #dddddd; stroke-opacity: 0.5; stroke-width: 0.5; stroke-linecap: square"/>
     </g>
     <g id="line2d_37">
      <g>
       <use xlink:href="#m43e45a8109" x="694.654574" y="326.669375" style="fill: #333333; stroke: #333333; stroke-width: 0.8"/>
      </g>
     </g>
     <g id="text_21">
      <!-- 6 -->
      <g style="fill: #333333" transform="translate(692.015746 341.36375) scale(0.09 -0.09)">
       <use xlink:href="#MicrosoftYaHei-36"/>
      </g>
     </g>
    </g>
    <g id="xtick_11">
     <g id="line2d_38">
      <path d="M 763.041847 326.669375 
L 763.041847 47.9625 
" clip-path="url(#pde8942e8d5)" style="fill: none; stroke: #dddddd; stroke-opacity: 0.5; stroke-width: 0.5; stroke-linecap: square"/>
     </g>
     <g id="line2d_39">
      <g>
       <use xlink:href="#m43e45a8109" x="763.041847" y="326.669375" style="fill: #333333; stroke: #333333; stroke-width: 0.8"/>
      </g>
     </g>
     <g id="text_22">
      <!-- 8 -->
      <g style="fill: #333333" transform="translate(760.403018 341.36375) scale(0.09 -0.09)">
       <use xlink:href="#MicrosoftYaHei-38"/>
      </g>
     </g>
    </g>
    <g id="xtick_12">
     <g id="line2d_40">
      <path d="M 831.429119 326.669375 
L 831.429119 47.9625 
" clip-path="url(#pde8942e8d5)" style="fill: none; stroke: #dddddd; stroke-opacity: 0.5; stroke-width: 0.5; stroke-linecap: square"/>
     </g>
     <g id="line2d_41">
      <g>
       <use xlink:href="#m43e45a8109" x="831.429119" y="326.669375" style="fill: #333333; stroke: #333333; stroke-width: 0.8"/>
      </g>
     </g>
     <g id="text_23">
      <!-- 10 -->
      <g style="fill: #333333" transform="translate(826.151463 341.36375) scale(0.09 -0.09)">
       <use xlink:href="#MicrosoftYaHei-31"/>
       <use xlink:href="#MicrosoftYaHei-30" transform="translate(58.642578 0)"/>
      </g>
     </g>
    </g>
    <g id="text_24">
     <!-- X -->
     <g style="fill: #333333" transform="translate(657.235937 355.594844) scale(0.1 -0.1)">
      <use xlink:href="#MicrosoftYaHei-58"/>
     </g>
    </g>
   </g>
   <g id="matplotlib.axis_4">
    <g id="ytick_9">
     <g id="line2d_42">
      <path d="M 472.395938 309.39568 
L 848.525937 309.39568 
" clip-path="url(#pde8942e8d5)" style="fill: none; stroke: #dddddd; stroke-opacity: 0.5; stroke-width: 0.5; stroke-linecap: square"/>
     </g>
     <g id="line2d_43">
      <g>
       <use xlink:href="#med5eab2dde" x="472.395938" y="309.39568" style="fill: #333333; stroke: #333333; stroke-width: 0.8"/>
      </g>
     </g>
     <g id="text_25">
      <!-- -0.6 -->
      <g style="fill: #333333" transform="translate(448.279688 312.992868) scale(0.09 -0.09)">
       <use xlink:href="#MicrosoftYaHei-2d"/>
       <use xlink:href="#MicrosoftYaHei-30" transform="translate(43.261719 0)"/>
       <use xlink:href="#MicrosoftYaHei-2e" transform="translate(101.904297 0)"/>
       <use xlink:href="#MicrosoftYaHei-36" transform="translate(125.976562 0)"/>
      </g>
     </g>
    </g>
    <g id="ytick_10">
     <g id="line2d_44">
      <path d="M 472.395938 275.273329 
L 848.525937 275.273329 
" clip-path="url(#pde8942e8d5)" style="fill: none; stroke: #dddddd; stroke-opacity: 0.5; stroke-width: 0.5; stroke-linecap: square"/>
     </g>
     <g id="line2d_45">
      <g>
       <use xlink:href="#med5eab2dde" x="472.395938" y="275.273329" style="fill: #333333; stroke: #333333; stroke-width: 0.8"/>
      </g>
     </g>
     <g id="text_26">
      <!-- -0.4 -->
      <g style="fill: #333333" transform="translate(448.279688 278.870516) scale(0.09 -0.09)">
       <use xlink:href="#MicrosoftYaHei-2d"/>
       <use xlink:href="#MicrosoftYaHei-30" transform="translate(43.261719 0)"/>
       <use xlink:href="#MicrosoftYaHei-2e" transform="translate(101.904297 0)"/>
       <use xlink:href="#MicrosoftYaHei-34" transform="translate(125.976562 0)"/>
      </g>
     </g>
    </g>
    <g id="ytick_11">
     <g id="line2d_46">
      <path d="M 472.395938 241.150977 
L 848.525937 241.150977 
" clip-path="url(#pde8942e8d5)" style="fill: none; stroke: #dddddd; stroke-opacity: 0.5; stroke-width: 0.5; stroke-linecap: square"/>
     </g>
     <g id="line2d_47">
      <g>
       <use xlink:href="#med5eab2dde" x="472.395938" y="241.150977" style="fill: #333333; stroke: #333333; stroke-width: 0.8"/>
      </g>
     </g>
     <g id="text_27">
      <!-- -0.2 -->
      <g style="fill: #333333" transform="translate(448.279688 244.748165) scale(0.09 -0.09)">
       <use xlink:href="#MicrosoftYaHei-2d"/>
       <use xlink:href="#MicrosoftYaHei-30" transform="translate(43.261719 0)"/>
       <use xlink:href="#MicrosoftYaHei-2e" transform="translate(101.904297 0)"/>
       <use xlink:href="#MicrosoftYaHei-32" transform="translate(125.976562 0)"/>
      </g>
     </g>
    </g>
    <g id="ytick_12">
     <g id="line2d_48">
      <path d="M 472.395938 207.028626 
L 848.525937 207.028626 
" clip-path="url(#pde8942e8d5)" style="fill: none; stroke: #dddddd; stroke-opacity: 0.5; stroke-width: 0.5; stroke-linecap: square"/>
     </g>
     <g id="line2d_49">
      <g>
       <use xlink:href="#med5eab2dde" x="472.395938" y="207.028626" style="fill: #333333; stroke: #333333; stroke-width: 0.8"/>
      </g>
     </g>
     <g id="text_28">
      <!-- 0.0 -->
      <g style="fill: #333333" transform="translate(452.173594 210.625814) scale(0.09 -0.09)">
       <use xlink:href="#MicrosoftYaHei-30"/>
       <use xlink:href="#MicrosoftYaHei-2e" transform="translate(58.642578 0)"/>
       <use xlink:href="#MicrosoftYaHei-30" transform="translate(82.714844 0)"/>
      </g>
     </g>
    </g>
    <g id="ytick_13">
     <g id="line2d_50">
      <path d="M 472.395938 172.906275 
L 848.525937 172.906275 
" clip-path="url(#pde8942e8d5)" style="fill: none; stroke: #dddddd; stroke-opacity: 0.5; stroke-width: 0.5; stroke-linecap: square"/>
     </g>
     <g id="line2d_51">
      <g>
       <use xlink:href="#med5eab2dde" x="472.395938" y="172.906275" style="fill: #333333; stroke: #333333; stroke-width: 0.8"/>
      </g>
     </g>
     <g id="text_29">
      <!-- 0.2 -->
      <g style="fill: #333333" transform="translate(452.173594 176.503462) scale(0.09 -0.09)">
       <use xlink:href="#MicrosoftYaHei-30"/>
       <use xlink:href="#MicrosoftYaHei-2e" transform="translate(58.642578 0)"/>
       <use xlink:href="#MicrosoftYaHei-32" transform="translate(82.714844 0)"/>
      </g>
     </g>
    </g>
    <g id="ytick_14">
     <g id="line2d_52">
      <path d="M 472.395938 138.783923 
L 848.525937 138.783923 
" clip-path="url(#pde8942e8d5)" style="fill: none; stroke: #dddddd; stroke-opacity: 0.5; stroke-width: 0.5; stroke-linecap: square"/>
     </g>
     <g id="line2d_53">
      <g>
       <use xlink:href="#med5eab2dde" x="472.395938" y="138.783923" style="fill: #333333; stroke: #333333; stroke-width: 0.8"/>
      </g>
     </g>
     <g id="text_30">
      <!-- 0.4 -->
      <g style="fill: #333333" transform="translate(452.173594 142.381111) scale(0.09 -0.09)">
       <use xlink:href="#MicrosoftYaHei-30"/>
       <use xlink:href="#MicrosoftYaHei-2e" transform="translate(58.642578 0)"/>
       <use xlink:href="#MicrosoftYaHei-34" transform="translate(82.714844 0)"/>
      </g>
     </g>
    </g>
    <g id="ytick_15">
     <g id="line2d_54">
      <path d="M 472.395938 104.661572 
L 848.525937 104.661572 
" clip-path="url(#pde8942e8d5)" style="fill: none; stroke: #dddddd; stroke-opacity: 0.5; stroke-width: 0.5; stroke-linecap: square"/>
     </g>
     <g id="line2d_55">
      <g>
       <use xlink:href="#med5eab2dde" x="472.395938" y="104.661572" style="fill: #333333; stroke: #333333; stroke-width: 0.8"/>
      </g>
     </g>
     <g id="text_31">
      <!-- 0.6 -->
      <g style="fill: #333333" transform="translate(452.173594 108.258759) scale(0.09 -0.09)">
       <use xlink:href="#MicrosoftYaHei-30"/>
       <use xlink:href="#MicrosoftYaHei-2e" transform="translate(58.642578 0)"/>
       <use xlink:href="#MicrosoftYaHei-36" transform="translate(82.714844 0)"/>
      </g>
     </g>
    </g>
    <g id="ytick_16">
     <g id="line2d_56">
      <path d="M 472.395938 70.53922 
L 848.525937 70.53922 
" clip-path="url(#pde8942e8d5)" style="fill: none; stroke: #dddddd; stroke-opacity: 0.5; stroke-width: 0.5; stroke-linecap: square"/>
     </g>
     <g id="line2d_57">
      <g>
       <use xlink:href="#med5eab2dde" x="472.395938" y="70.53922" style="fill: #333333; stroke: #333333; stroke-width: 0.8"/>
      </g>
     </g>
     <g id="text_32">
      <!-- 0.8 -->
      <g style="fill: #333333" transform="translate(452.173594 74.136408) scale(0.09 -0.09)">
       <use xlink:href="#MicrosoftYaHei-30"/>
       <use xlink:href="#MicrosoftYaHei-2e" transform="translate(58.642578 0)"/>
       <use xlink:href="#MicrosoftYaHei-38" transform="translate(82.714844 0)"/>
      </g>
     </g>
    </g>
    <g id="text_33">
     <!-- Y -->
     <g style="fill: #333333" transform="translate(441.79375 190.333906) rotate(-90) scale(0.1 -0.1)">
      <use xlink:href="#MicrosoftYaHei-59"/>
     </g>
    </g>
   </g>
   <g id="line2d_58">
    <path d="M 489.492756 207.028626 
L 492.946658 189.997311 
L 496.400561 173.48021 
L 499.854464 157.635396 
L 503.308366 142.610929 
L 506.762269 128.543545 
L 510.216172 115.557492 
L 513.670074 103.763509 
L 517.123977 93.257971 
L 520.57788 84.122191 
L 524.031782 76.421896 
L 527.485685 70.206866 
L 530.939588 65.510745 
L 534.39349 62.351024 
L 537.847393 60.729182 
L 541.301296 60.630994 
L 544.755198 62.02699 
L 548.209101 64.873056 
L 551.663004 69.111183 
L 555.116906 74.670331 
L 558.570809 81.467418 
L 562.024712 89.408403 
L 565.478614 98.389467 
L 568.932517 108.298266 
L 572.38642 119.015246 
L 575.840322 130.415007 
L 579.294225 142.367697 
L 582.748128 154.740424 
L 586.20203 167.398675 
L 589.655933 180.207714 
L 593.109836 193.033965 
L 596.563738 205.746346 
L 600.017641 218.217557 
L 603.471544 230.325305 
L 606.925446 241.953445 
L 610.379349 252.993044 
L 613.833252 263.343348 
L 617.287154 272.91264 
L 620.741057 281.619003 
L 624.19496 289.39095 
L 627.648862 296.167952 
L 631.102765 301.900828 
L 634.556668 306.552026 
L 638.01057 310.095769 
L 641.464473 312.518084 
L 644.918376 313.816709 
L 648.372278 314.000881 
L 651.826181 313.091009 
L 655.280084 311.118249 
L 658.733986 308.123966 
L 662.187889 304.15911 
L 665.641791 299.283505 
L 669.095694 293.565062 
L 672.549597 287.078926 
L 676.003499 279.906562 
L 679.457402 272.134801 
L 682.911305 263.854848 
L 686.365207 255.161264 
L 689.81911 246.150933 
L 693.273013 236.922033 
L 696.726915 227.573003 
L 700.180818 218.20154 
L 703.634721 208.903616 
L 707.088623 199.772532 
L 710.542526 190.898024 
L 713.996429 182.365419 
L 717.450331 174.25485 
L 720.904234 166.640548 
L 724.358137 159.590198 
L 727.812039 153.164387 
L 731.265942 147.416122 
L 734.719845 142.390444 
L 738.173747 138.124127 
L 741.62765 134.645472 
L 745.081553 131.974184 
L 748.535455 130.121343 
L 751.989358 129.089467 
L 755.443261 128.872656 
L 758.897163 129.456819 
L 762.351066 130.819981 
L 765.804969 132.93267 
L 769.258871 135.758361 
L 772.712774 139.253992 
L 776.166677 143.370533 
L 779.620579 148.053609 
L 783.074482 153.244154 
L 786.528385 158.879112 
L 789.982287 164.892159 
L 793.43619 171.214442 
L 796.890093 177.775336 
L 800.343995 184.503192 
L 803.797898 191.326095 
L 807.251801 198.1726 
L 810.705703 204.972448 
L 814.159606 211.657262 
L 817.613509 218.161205 
L 821.067411 224.4216 
L 824.521314 230.379506 
L 827.975217 235.980245 
L 831.429119 241.17387 
" clip-path="url(#pde8942e8d5)" style="fill: none; stroke: #1f77b4; stroke-width: 1.5; stroke-linecap: square"/>
   </g>
   <g id="patch_6">
    <path d="M 472.395938 326.669375 
L 472.395938 47.9625 
" style="fill: none; stroke: #333333; stroke-linejoin: miter; stroke-linecap: square"/>
   </g>
   <g id="patch_7">
    <path d="M 472.395937 326.669375 
L 848.525937 326.669375 
" style="fill: none; stroke: #333333; stroke-linejoin: miter; stroke-linecap: square"/>
   </g>
   <g id="text_34">
    <!-- 主题: academic -->
    <g transform="translate(616.683437 41.9625) scale(0.12 -0.12)">
     <defs>
      <path id="MicrosoftYaHei-Bold-64" d="M 3794 0 
L 2788 0 
L 2788 488 
L 2772 488 
Q 2406 -84 1691 -84 
Q 1031 -84 642 381 
Q 253 847 253 1650 
Q 253 2500 689 3020 
Q 1125 3541 1828 3541 
Q 2503 3541 2772 3053 
L 2788 3053 
L 2788 5116 
L 3794 5116 
L 3794 0 
z
M 2803 1956 
Q 2803 2306 2592 2536 
Q 2381 2766 2066 2766 
Q 1697 2766 1486 2473 
Q 1275 2181 1275 1681 
Q 1275 1206 1478 948 
Q 1681 691 2038 691 
Q 2372 691 2587 962 
Q 2803 1234 2803 1669 
L 2803 1956 
z
" transform="scale(0.015625)"/>
      <path id="MicrosoftYaHei-Bold-6d" d="M 5881 0 
L 4875 0 
L 4875 1972 
Q 4875 2766 4297 2766 
Q 4028 2766 3850 2525 
Q 3672 2284 3672 1938 
L 3672 0 
L 2666 0 
L 2666 1997 
Q 2666 2766 2094 2766 
Q 1809 2766 1639 2536 
Q 1469 2306 1469 1928 
L 1469 0 
L 459 0 
L 459 3456 
L 1469 3456 
L 1469 2916 
L 1481 2916 
Q 1663 3213 1963 3377 
Q 2263 3541 2594 3541 
Q 3322 3541 3591 2888 
Q 3991 3541 4753 3541 
Q 5881 3541 5881 2147 
L 5881 0 
z
" transform="scale(0.015625)"/>
      <path id="MicrosoftYaHei-Bold-69" d="M 369 4572 
Q 369 4803 533 4948 
Q 697 5094 953 5094 
Q 1216 5094 1378 4945 
Q 1541 4797 1541 4572 
Q 1541 4344 1375 4192 
Q 1209 4041 953 4041 
Q 700 4041 534 4194 
Q 369 4347 369 4572 
z
M 444 0 
L 444 3456 
L 1450 3456 
L 1450 0 
L 444 0 
z
" transform="scale(0.015625)"/>
     </defs>
     <use xlink:href="#MicrosoftYaHei-Bold-4e3b"/>
     <use xlink:href="#MicrosoftYaHei-Bold-9898" transform="translate(100 0)"/>
     <use xlink:href="#MicrosoftYaHei-Bold-3a" transform="translate(200 0)"/>
     <use xlink:href="#MicrosoftYaHei-Bold-20" transform="translate(228.564453 0)"/>
     <use xlink:href="#MicrosoftYaHei-Bold-61" transform="translate(258.349609 0)"/>
     <use xlink:href="#MicrosoftYaHei-Bold-63" transform="translate(316.113281 0)"/>
     <use xlink:href="#MicrosoftYaHei-Bold-61" transform="translate(367.773438 0)"/>
     <use xlink:href="#MicrosoftYaHei-Bold-64" transform="translate(425.537109 0)"/>
     <use xlink:href="#MicrosoftYaHei-Bold-65" transform="translate(491.992188 0)"/>
     <use xlink:href="#MicrosoftYaHei-Bold-6d" transform="translate(550.195312 0)"/>
     <use xlink:href="#MicrosoftYaHei-Bold-69" transform="translate(648.388672 0)"/>
     <use xlink:href="#MicrosoftYaHei-Bold-63" transform="translate(677.978516 0)"/>
    </g>
   </g>
  </g>
  <g id="axes_3">
   <g id="patch_8">
    <path d="M 45.795938 669.62 
L 421.925937 669.62 
L 421.925937 390.913125 
L 45.795938 390.913125 
z
" style="fill: #ffffff"/>
   </g>
   <g id="matplotlib.axis_5">
    <g id="xtick_13">
     <g id="line2d_59">
      <path d="M 62.892756 669.62 
L 62.892756 390.913125 
" clip-path="url(#pd3b16f2d3d)" style="fill: none; stroke: #dddddd; stroke-opacity: 0.5; stroke-width: 0.5; stroke-linecap: square"/>
     </g>
     <g id="line2d_60">
      <g>
       <use xlink:href="#m43e45a8109" x="62.892756" y="669.62" style="fill: #333333; stroke: #333333; stroke-width: 0.8"/>
      </g>
     </g>
     <g id="text_35">
      <!-- 0 -->
      <g style="fill: #333333" transform="translate(60.253928 684.314375) scale(0.09 -0.09)">
       <use xlink:href="#MicrosoftYaHei-30"/>
      </g>
     </g>
    </g>
    <g id="xtick_14">
     <g id="line2d_61">
      <path d="M 131.280028 669.62 
L 131.280028 390.913125 
" clip-path="url(#pd3b16f2d3d)" style="fill: none; stroke: #dddddd; stroke-opacity: 0.5; stroke-width: 0.5; stroke-linecap: square"/>
     </g>
     <g id="line2d_62">
      <g>
       <use xlink:href="#m43e45a8109" x="131.280028" y="669.62" style="fill: #333333; stroke: #333333; stroke-width: 0.8"/>
      </g>
     </g>
     <g id="text_36">
      <!-- 2 -->
      <g style="fill: #333333" transform="translate(128.6412 684.314375) scale(0.09 -0.09)">
       <use xlink:href="#MicrosoftYaHei-32"/>
      </g>
     </g>
    </g>
    <g id="xtick_15">
     <g id="line2d_63">
      <path d="M 199.667301 669.62 
L 199.667301 390.913125 
" clip-path="url(#pd3b16f2d3d)" style="fill: none; stroke: #dddddd; stroke-opacity: 0.5; stroke-width: 0.5; stroke-linecap: square"/>
     </g>
     <g id="line2d_64">
      <g>
       <use xlink:href="#m43e45a8109" x="199.667301" y="669.62" style="fill: #333333; stroke: #333333; stroke-width: 0.8"/>
      </g>
     </g>
     <g id="text_37">
      <!-- 4 -->
      <g style="fill: #333333" transform="translate(197.028473 684.314375) scale(0.09 -0.09)">
       <use xlink:href="#MicrosoftYaHei-34"/>
      </g>
     </g>
    </g>
    <g id="xtick_16">
     <g id="line2d_65">
      <path d="M 268.054574 669.62 
L 268.054574 390.913125 
" clip-path="url(#pd3b16f2d3d)" style="fill: none; stroke: #dddddd; stroke-opacity: 0.5; stroke-width: 0.5; stroke-linecap: square"/>
     </g>
     <g id="line2d_66">
      <g>
       <use xlink:href="#m43e45a8109" x="268.054574" y="669.62" style="fill: #333333; stroke: #333333; stroke-width: 0.8"/>
      </g>
     </g>
     <g id="text_38">
      <!-- 6 -->
      <g style="fill: #333333" transform="translate(265.415746 684.314375) scale(0.09 -0.09)">
       <use xlink:href="#MicrosoftYaHei-36"/>
      </g>
     </g>
    </g>
    <g id="xtick_17">
     <g id="line2d_67">
      <path d="M 336.441847 669.62 
L 336.441847 390.913125 
" clip-path="url(#pd3b16f2d3d)" style="fill: none; stroke: #dddddd; stroke-opacity: 0.5; stroke-width: 0.5; stroke-linecap: square"/>
     </g>
     <g id="line2d_68">
      <g>
       <use xlink:href="#m43e45a8109" x="336.441847" y="669.62" style="fill: #333333; stroke: #333333; stroke-width: 0.8"/>
      </g>
     </g>
     <g id="text_39">
      <!-- 8 -->
      <g style="fill: #333333" transform="translate(333.803018 684.314375) scale(0.09 -0.09)">
       <use xlink:href="#MicrosoftYaHei-38"/>
      </g>
     </g>
    </g>
    <g id="xtick_18">
     <g id="line2d_69">
      <path d="M 404.829119 669.62 
L 404.829119 390.913125 
" clip-path="url(#pd3b16f2d3d)" style="fill: none; stroke: #dddddd; stroke-opacity: 0.5; stroke-width: 0.5; stroke-linecap: square"/>
     </g>
     <g id="line2d_70">
      <g>
       <use xlink:href="#m43e45a8109" x="404.829119" y="669.62" style="fill: #333333; stroke: #333333; stroke-width: 0.8"/>
      </g>
     </g>
     <g id="text_40">
      <!-- 10 -->
      <g style="fill: #333333" transform="translate(399.551463 684.314375) scale(0.09 -0.09)">
       <use xlink:href="#MicrosoftYaHei-31"/>
       <use xlink:href="#MicrosoftYaHei-30" transform="translate(58.642578 0)"/>
      </g>
     </g>
    </g>
    <g id="text_41">
     <!-- X -->
     <g style="fill: #333333" transform="translate(230.635938 698.545469) scale(0.1 -0.1)">
      <use xlink:href="#MicrosoftYaHei-58"/>
     </g>
    </g>
   </g>
   <g id="matplotlib.axis_6">
    <g id="ytick_17">
     <g id="line2d_71">
      <path d="M 45.795938 652.346305 
L 421.925937 652.346305 
" clip-path="url(#pd3b16f2d3d)" style="fill: none; stroke: #dddddd; stroke-opacity: 0.5; stroke-width: 0.5; stroke-linecap: square"/>
     </g>
     <g id="line2d_72">
      <g>
       <use xlink:href="#med5eab2dde" x="45.795938" y="652.346305" style="fill: #333333; stroke: #333333; stroke-width: 0.8"/>
      </g>
     </g>
     <g id="text_42">
      <!-- -0.6 -->
      <g style="fill: #333333" transform="translate(21.679688 655.943493) scale(0.09 -0.09)">
       <use xlink:href="#MicrosoftYaHei-2d"/>
       <use xlink:href="#MicrosoftYaHei-30" transform="translate(43.261719 0)"/>
       <use xlink:href="#MicrosoftYaHei-2e" transform="translate(101.904297 0)"/>
       <use xlink:href="#MicrosoftYaHei-36" transform="translate(125.976562 0)"/>
      </g>
     </g>
    </g>
    <g id="ytick_18">
     <g id="line2d_73">
      <path d="M 45.795938 618.223954 
L 421.925937 618.223954 
" clip-path="url(#pd3b16f2d3d)" style="fill: none; stroke: #dddddd; stroke-opacity: 0.5; stroke-width: 0.5; stroke-linecap: square"/>
     </g>
     <g id="line2d_74">
      <g>
       <use xlink:href="#med5eab2dde" x="45.795938" y="618.223954" style="fill: #333333; stroke: #333333; stroke-width: 0.8"/>
      </g>
     </g>
     <g id="text_43">
      <!-- -0.4 -->
      <g style="fill: #333333" transform="translate(21.679688 621.821141) scale(0.09 -0.09)">
       <use xlink:href="#MicrosoftYaHei-2d"/>
       <use xlink:href="#MicrosoftYaHei-30" transform="translate(43.261719 0)"/>
       <use xlink:href="#MicrosoftYaHei-2e" transform="translate(101.904297 0)"/>
       <use xlink:href="#MicrosoftYaHei-34" transform="translate(125.976562 0)"/>
      </g>
     </g>
    </g>
    <g id="ytick_19">
     <g id="line2d_75">
      <path d="M 45.795938 584.101602 
L 421.925937 584.101602 
" clip-path="url(#pd3b16f2d3d)" style="fill: none; stroke: #dddddd; stroke-opacity: 0.5; stroke-width: 0.5; stroke-linecap: square"/>
     </g>
     <g id="line2d_76">
      <g>
       <use xlink:href="#med5eab2dde" x="45.795938" y="584.101602" style="fill: #333333; stroke: #333333; stroke-width: 0.8"/>
      </g>
     </g>
     <g id="text_44">
      <!-- -0.2 -->
      <g style="fill: #333333" transform="translate(21.679688 587.69879) scale(0.09 -0.09)">
       <use xlink:href="#MicrosoftYaHei-2d"/>
       <use xlink:href="#MicrosoftYaHei-30" transform="translate(43.261719 0)"/>
       <use xlink:href="#MicrosoftYaHei-2e" transform="translate(101.904297 0)"/>
       <use xlink:href="#MicrosoftYaHei-32" transform="translate(125.976562 0)"/>
      </g>
     </g>
    </g>
    <g id="ytick_20">
     <g id="line2d_77">
      <path d="M 45.795938 549.979251 
L 421.925937 549.979251 
" clip-path="url(#pd3b16f2d3d)" style="fill: none; stroke: #dddddd; stroke-opacity: 0.5; stroke-width: 0.5; stroke-linecap: square"/>
     </g>
     <g id="line2d_78">
      <g>
       <use xlink:href="#med5eab2dde" x="45.795938" y="549.979251" style="fill: #333333; stroke: #333333; stroke-width: 0.8"/>
      </g>
     </g>
     <g id="text_45">
      <!-- 0.0 -->
      <g style="fill: #333333" transform="translate(25.573594 553.576439) scale(0.09 -0.09)">
       <use xlink:href="#MicrosoftYaHei-30"/>
       <use xlink:href="#MicrosoftYaHei-2e" transform="translate(58.642578 0)"/>
       <use xlink:href="#MicrosoftYaHei-30" transform="translate(82.714844 0)"/>
      </g>
     </g>
    </g>
    <g id="ytick_21">
     <g id="line2d_79">
      <path d="M 45.795938 515.8569 
L 421.925937 515.8569 
" clip-path="url(#pd3b16f2d3d)" style="fill: none; stroke: #dddddd; stroke-opacity: 0.5; stroke-width: 0.5; stroke-linecap: square"/>
     </g>
     <g id="line2d_80">
      <g>
       <use xlink:href="#med5eab2dde" x="45.795938" y="515.8569" style="fill: #333333; stroke: #333333; stroke-width: 0.8"/>
      </g>
     </g>
     <g id="text_46">
      <!-- 0.2 -->
      <g style="fill: #333333" transform="translate(25.573594 519.454087) scale(0.09 -0.09)">
       <use xlink:href="#MicrosoftYaHei-30"/>
       <use xlink:href="#MicrosoftYaHei-2e" transform="translate(58.642578 0)"/>
       <use xlink:href="#MicrosoftYaHei-32" transform="translate(82.714844 0)"/>
      </g>
     </g>
    </g>
    <g id="ytick_22">
     <g id="line2d_81">
      <path d="M 45.795938 481.734548 
L 421.925937 481.734548 
" clip-path="url(#pd3b16f2d3d)" style="fill: none; stroke: #dddddd; stroke-opacity: 0.5; stroke-width: 0.5; stroke-linecap: square"/>
     </g>
     <g id="line2d_82">
      <g>
       <use xlink:href="#med5eab2dde" x="45.795938" y="481.734548" style="fill: #333333; stroke: #333333; stroke-width: 0.8"/>
      </g>
     </g>
     <g id="text_47">
      <!-- 0.4 -->
      <g style="fill: #333333" transform="translate(25.573594 485.331736) scale(0.09 -0.09)">
       <use xlink:href="#MicrosoftYaHei-30"/>
       <use xlink:href="#MicrosoftYaHei-2e" transform="translate(58.642578 0)"/>
       <use xlink:href="#MicrosoftYaHei-34" transform="translate(82.714844 0)"/>
      </g>
     </g>
    </g>
    <g id="ytick_23">
     <g id="line2d_83">
      <path d="M 45.795938 447.612197 
L 421.925937 447.612197 
" clip-path="url(#pd3b16f2d3d)" style="fill: none; stroke: #dddddd; stroke-opacity: 0.5; stroke-width: 0.5; stroke-linecap: square"/>
     </g>
     <g id="line2d_84">
      <g>
       <use xlink:href="#med5eab2dde" x="45.795938" y="447.612197" style="fill: #333333; stroke: #333333; stroke-width: 0.8"/>
      </g>
     </g>
     <g id="text_48">
      <!-- 0.6 -->
      <g style="fill: #333333" transform="translate(25.573594 451.209384) scale(0.09 -0.09)">
       <use xlink:href="#MicrosoftYaHei-30"/>
       <use xlink:href="#MicrosoftYaHei-2e" transform="translate(58.642578 0)"/>
       <use xlink:href="#MicrosoftYaHei-36" transform="translate(82.714844 0)"/>
      </g>
     </g>
    </g>
    <g id="ytick_24">
     <g id="line2d_85">
      <path d="M 45.795938 413.489845 
L 421.925937 413.489845 
" clip-path="url(#pd3b16f2d3d)" style="fill: none; stroke: #dddddd; stroke-opacity: 0.5; stroke-width: 0.5; stroke-linecap: square"/>
     </g>
     <g id="line2d_86">
      <g>
       <use xlink:href="#med5eab2dde" x="45.795938" y="413.489845" style="fill: #333333; stroke: #333333; stroke-width: 0.8"/>
      </g>
     </g>
     <g id="text_49">
      <!-- 0.8 -->
      <g style="fill: #333333" transform="translate(25.573594 417.087033) scale(0.09 -0.09)">
       <use xlink:href="#MicrosoftYaHei-30"/>
       <use xlink:href="#MicrosoftYaHei-2e" transform="translate(58.642578 0)"/>
       <use xlink:href="#MicrosoftYaHei-38" transform="translate(82.714844 0)"/>
      </g>
     </g>
    </g>
    <g id="text_50">
     <!-- Y -->
     <g style="fill: #333333" transform="translate(15.19375 533.284531) rotate(-90) scale(0.1 -0.1)">
      <use xlink:href="#MicrosoftYaHei-59"/>
     </g>
    </g>
   </g>
   <g id="line2d_87">
    <path d="M 62.892756 549.979251 
L 66.346658 532.947936 
L 69.800561 516.430835 
L 73.254464 500.586021 
L 76.708366 485.561554 
L 80.162269 471.49417 
L 83.616172 458.508117 
L 87.070074 446.714134 
L 90.523977 436.208596 
L 93.97788 427.072816 
L 97.431782 419.372521 
L 100.885685 413.157491 
L 104.339588 408.46137 
L 107.79349 405.301649 
L 111.247393 403.679807 
L 114.701296 403.581619 
L 118.155198 404.977615 
L 121.609101 407.823681 
L 125.063004 412.061808 
L 128.516906 417.620956 
L 131.970809 424.418043 
L 135.424712 432.359028 
L 138.878614 441.340092 
L 142.332517 451.248891 
L 145.78642 461.965871 
L 149.240322 473.365632 
L 152.694225 485.318322 
L 156.148128 497.691049 
L 159.60203 510.3493 
L 163.055933 523.158339 
L 166.509836 535.98459 
L 169.963738 548.696971 
L 173.417641 561.168182 
L 176.871544 573.27593 
L 180.325446 584.90407 
L 183.779349 595.943669 
L 187.233252 606.293973 
L 190.687154 615.863265 
L 194.141057 624.569628 
L 197.59496 632.341575 
L 201.048862 639.118577 
L 204.502765 644.851453 
L 207.956668 649.502651 
L 211.41057 653.046394 
L 214.864473 655.468709 
L 218.318376 656.767334 
L 221.772278 656.951506 
L 225.226181 656.041634 
L 228.680084 654.068874 
L 232.133986 651.074591 
L 235.587889 647.109735 
L 239.041791 642.23413 
L 242.495694 636.515687 
L 245.949597 630.029551 
L 249.403499 622.857187 
L 252.857402 615.085426 
L 256.311305 606.805473 
L 259.765207 598.111889 
L 263.21911 589.101558 
L 266.673013 579.872658 
L 270.126915 570.523628 
L 273.580818 561.152165 
L 277.034721 551.854241 
L 280.488623 542.723157 
L 283.942526 533.848649 
L 287.396429 525.316044 
L 290.850331 517.205475 
L 294.304234 509.591173 
L 297.758137 502.540823 
L 301.212039 496.115012 
L 304.665942 490.366747 
L 308.119845 485.341069 
L 311.573747 481.074752 
L 315.02765 477.596097 
L 318.481553 474.924809 
L 321.935455 473.071968 
L 325.389358 472.040092 
L 328.843261 471.823281 
L 332.297163 472.407444 
L 335.751066 473.770606 
L 339.204969 475.883295 
L 342.658871 478.708986 
L 346.112774 482.204617 
L 349.566677 486.321158 
L 353.020579 491.004234 
L 356.474482 496.194779 
L 359.928385 501.829737 
L 363.382287 507.842784 
L 366.83619 514.165067 
L 370.290093 520.725961 
L 373.743995 527.453817 
L 377.197898 534.27672 
L 380.651801 541.123225 
L 384.105703 547.923073 
L 387.559606 554.607887 
L 391.013509 561.11183 
L 394.467411 567.372225 
L 397.921314 573.330131 
L 401.375217 578.93087 
L 404.829119 584.124495 
" clip-path="url(#pd3b16f2d3d)" style="fill: none; stroke: #1f77b4; stroke-width: 2; stroke-linecap: square"/>
   </g>
   <g id="patch_9">
    <path d="M 45.795938 669.62 
L 45.795938 390.913125 
" style="fill: none; stroke: #333333; stroke-linejoin: miter; stroke-linecap: square"/>
   </g>
   <g id="patch_10">
    <path d="M 45.795938 669.62 
L 421.925938 669.62 
" style="fill: none; stroke: #333333; stroke-linejoin: miter; stroke-linecap: square"/>
   </g>
   <g id="text_51">
    <!-- 主题: dark -->
    <g transform="translate(199.940469 384.913125) scale(0.14 -0.14)">
     <defs>
      <path id="MicrosoftYaHei-Bold-72" d="M 2663 2541 
Q 2478 2647 2216 2647 
Q 1872 2647 1670 2384 
Q 1469 2122 1469 1663 
L 1469 0 
L 459 0 
L 459 3456 
L 1469 3456 
L 1469 2806 
L 1481 2806 
Q 1731 3516 2391 3516 
Q 2569 3516 2663 3475 
L 2663 2541 
z
" transform="scale(0.015625)"/>
      <path id="MicrosoftYaHei-Bold-6b" d="M 3856 0 
L 2631 0 
L 1481 1709 
L 1469 1709 
L 1469 0 
L 459 0 
L 459 5116 
L 1469 5116 
L 1469 1859 
L 1481 1859 
L 2559 3456 
L 3763 3456 
L 2481 1825 
L 3856 0 
z
" transform="scale(0.015625)"/>
     </defs>
     <use xlink:href="#MicrosoftYaHei-Bold-4e3b"/>
     <use xlink:href="#MicrosoftYaHei-Bold-9898" transform="translate(100 0)"/>
     <use xlink:href="#MicrosoftYaHei-Bold-3a" transform="translate(200 0)"/>
     <use xlink:href="#MicrosoftYaHei-Bold-20" transform="translate(228.564453 0)"/>
     <use xlink:href="#MicrosoftYaHei-Bold-64" transform="translate(258.349609 0)"/>
     <use xlink:href="#MicrosoftYaHei-Bold-61" transform="translate(324.804688 0)"/>
     <use xlink:href="#MicrosoftYaHei-Bold-72" transform="translate(382.568359 0)"/>
     <use xlink:href="#MicrosoftYaHei-Bold-6b" transform="translate(424.951172 0)"/>
    </g>
   </g>
  </g>
  <g id="axes_4">
   <g id="patch_11">
    <path d="M 472.395938 669.62 
L 848.525937 669.62 
L 848.525937 390.913125 
L 472.395938 390.913125 
z
" style="fill: #ffffff"/>
   </g>
   <g id="matplotlib.axis_7">
    <g id="xtick_19">
     <g id="line2d_88">
      <path d="M 489.492756 669.62 
L 489.492756 390.913125 
" clip-path="url(#p17213d585f)" style="fill: none; stroke: #dddddd; stroke-opacity: 0.5; stroke-width: 0.5; stroke-linecap: square"/>
     </g>
     <g id="line2d_89">
      <g>
       <use xlink:href="#m43e45a8109" x="489.492756" y="669.62" style="fill: #333333; stroke: #333333; stroke-width: 0.8"/>
      </g>
     </g>
     <g id="text_52">
      <!-- 0 -->
      <g style="fill: #333333" transform="translate(486.853928 684.314375) scale(0.09 -0.09)">
       <use xlink:href="#MicrosoftYaHei-30"/>
      </g>
     </g>
    </g>
    <g id="xtick_20">
     <g id="line2d_90">
      <path d="M 557.880028 669.62 
L 557.880028 390.913125 
" clip-path="url(#p17213d585f)" style="fill: none; stroke: #dddddd; stroke-opacity: 0.5; stroke-width: 0.5; stroke-linecap: square"/>
     </g>
     <g id="line2d_91">
      <g>
       <use xlink:href="#m43e45a8109" x="557.880028" y="669.62" style="fill: #333333; stroke: #333333; stroke-width: 0.8"/>
      </g>
     </g>
     <g id="text_53">
      <!-- 2 -->
      <g style="fill: #333333" transform="translate(555.2412 684.314375) scale(0.09 -0.09)">
       <use xlink:href="#MicrosoftYaHei-32"/>
      </g>
     </g>
    </g>
    <g id="xtick_21">
     <g id="line2d_92">
      <path d="M 626.267301 669.62 
L 626.267301 390.913125 
" clip-path="url(#p17213d585f)" style="fill: none; stroke: #dddddd; stroke-opacity: 0.5; stroke-width: 0.5; stroke-linecap: square"/>
     </g>
     <g id="line2d_93">
      <g>
       <use xlink:href="#m43e45a8109" x="626.267301" y="669.62" style="fill: #333333; stroke: #333333; stroke-width: 0.8"/>
      </g>
     </g>
     <g id="text_54">
      <!-- 4 -->
      <g style="fill: #333333" transform="translate(623.628473 684.314375) scale(0.09 -0.09)">
       <use xlink:href="#MicrosoftYaHei-34"/>
      </g>
     </g>
    </g>
    <g id="xtick_22">
     <g id="line2d_94">
      <path d="M 694.654574 669.62 
L 694.654574 390.913125 
" clip-path="url(#p17213d585f)" style="fill: none; stroke: #dddddd; stroke-opacity: 0.5; stroke-width: 0.5; stroke-linecap: square"/>
     </g>
     <g id="line2d_95">
      <g>
       <use xlink:href="#m43e45a8109" x="694.654574" y="669.62" style="fill: #333333; stroke: #333333; stroke-width: 0.8"/>
      </g>
     </g>
     <g id="text_55">
      <!-- 6 -->
      <g style="fill: #333333" transform="translate(692.015746 684.314375) scale(0.09 -0.09)">
       <use xlink:href="#MicrosoftYaHei-36"/>
      </g>
     </g>
    </g>
    <g id="xtick_23">
     <g id="line2d_96">
      <path d="M 763.041847 669.62 
L 763.041847 390.913125 
" clip-path="url(#p17213d585f)" style="fill: none; stroke: #dddddd; stroke-opacity: 0.5; stroke-width: 0.5; stroke-linecap: square"/>
     </g>
     <g id="line2d_97">
      <g>
       <use xlink:href="#m43e45a8109" x="763.041847" y="669.62" style="fill: #333333; stroke: #333333; stroke-width: 0.8"/>
      </g>
     </g>
     <g id="text_56">
      <!-- 8 -->
      <g style="fill: #333333" transform="translate(760.403018 684.314375) scale(0.09 -0.09)">
       <use xlink:href="#MicrosoftYaHei-38"/>
      </g>
     </g>
    </g>
    <g id="xtick_24">
     <g id="line2d_98">
      <path d="M 831.429119 669.62 
L 831.429119 390.913125 
" clip-path="url(#p17213d585f)" style="fill: none; stroke: #dddddd; stroke-opacity: 0.5; stroke-width: 0.5; stroke-linecap: square"/>
     </g>
     <g id="line2d_99">
      <g>
       <use xlink:href="#m43e45a8109" x="831.429119" y="669.62" style="fill: #333333; stroke: #333333; stroke-width: 0.8"/>
      </g>
     </g>
     <g id="text_57">
      <!-- 10 -->
      <g style="fill: #333333" transform="translate(826.151463 684.314375) scale(0.09 -0.09)">
       <use xlink:href="#MicrosoftYaHei-31"/>
       <use xlink:href="#MicrosoftYaHei-30" transform="translate(58.642578 0)"/>
      </g>
     </g>
    </g>
    <g id="text_58">
     <!-- X -->
     <g style="fill: #333333" transform="translate(657.235937 698.545469) scale(0.1 -0.1)">
      <use xlink:href="#MicrosoftYaHei-58"/>
     </g>
    </g>
   </g>
   <g id="matplotlib.axis_8">
    <g id="ytick_25">
     <g id="line2d_100">
      <path d="M 472.395938 652.346305 
L 848.525937 652.346305 
" clip-path="url(#p17213d585f)" style="fill: none; stroke: #dddddd; stroke-opacity: 0.5; stroke-width: 0.5; stroke-linecap: square"/>
     </g>
     <g id="line2d_101">
      <g>
       <use xlink:href="#med5eab2dde" x="472.395938" y="652.346305" style="fill: #333333; stroke: #333333; stroke-width: 0.8"/>
      </g>
     </g>
     <g id="text_59">
      <!-- -0.6 -->
      <g style="fill: #333333" transform="translate(448.279688 655.943493) scale(0.09 -0.09)">
       <use xlink:href="#MicrosoftYaHei-2d"/>
       <use xlink:href="#MicrosoftYaHei-30" transform="translate(43.261719 0)"/>
       <use xlink:href="#MicrosoftYaHei-2e" transform="translate(101.904297 0)"/>
       <use xlink:href="#MicrosoftYaHei-36" transform="translate(125.976562 0)"/>
      </g>
     </g>
    </g>
    <g id="ytick_26">
     <g id="line2d_102">
      <path d="M 472.395938 618.223954 
L 848.525937 618.223954 
" clip-path="url(#p17213d585f)" style="fill: none; stroke: #dddddd; stroke-opacity: 0.5; stroke-width: 0.5; stroke-linecap: square"/>
     </g>
     <g id="line2d_103">
      <g>
       <use xlink:href="#med5eab2dde" x="472.395938" y="618.223954" style="fill: #333333; stroke: #333333; stroke-width: 0.8"/>
      </g>
     </g>
     <g id="text_60">
      <!-- -0.4 -->
      <g style="fill: #333333" transform="translate(448.279688 621.821141) scale(0.09 -0.09)">
       <use xlink:href="#MicrosoftYaHei-2d"/>
       <use xlink:href="#MicrosoftYaHei-30" transform="translate(43.261719 0)"/>
       <use xlink:href="#MicrosoftYaHei-2e" transform="translate(101.904297 0)"/>
       <use xlink:href="#MicrosoftYaHei-34" transform="translate(125.976562 0)"/>
      </g>
     </g>
    </g>
    <g id="ytick_27">
     <g id="line2d_104">
      <path d="M 472.395938 584.101602 
L 848.525937 584.101602 
" clip-path="url(#p17213d585f)" style="fill: none; stroke: #dddddd; stroke-opacity: 0.5; stroke-width: 0.5; stroke-linecap: square"/>
     </g>
     <g id="line2d_105">
      <g>
       <use xlink:href="#med5eab2dde" x="472.395938" y="584.101602" style="fill: #333333; stroke: #333333; stroke-width: 0.8"/>
      </g>
     </g>
     <g id="text_61">
      <!-- -0.2 -->
      <g style="fill: #333333" transform="translate(448.279688 587.69879) scale(0.09 -0.09)">
       <use xlink:href="#MicrosoftYaHei-2d"/>
       <use xlink:href="#MicrosoftYaHei-30" transform="translate(43.261719 0)"/>
       <use xlink:href="#MicrosoftYaHei-2e" transform="translate(101.904297 0)"/>
       <use xlink:href="#MicrosoftYaHei-32" transform="translate(125.976562 0)"/>
      </g>
     </g>
    </g>
    <g id="ytick_28">
     <g id="line2d_106">
      <path d="M 472.395938 549.979251 
L 848.525937 549.979251 
" clip-path="url(#p17213d585f)" style="fill: none; stroke: #dddddd; stroke-opacity: 0.5; stroke-width: 0.5; stroke-linecap: square"/>
     </g>
     <g id="line2d_107">
      <g>
       <use xlink:href="#med5eab2dde" x="472.395938" y="549.979251" style="fill: #333333; stroke: #333333; stroke-width: 0.8"/>
      </g>
     </g>
     <g id="text_62">
      <!-- 0.0 -->
      <g style="fill: #333333" transform="translate(452.173594 553.576439) scale(0.09 -0.09)">
       <use xlink:href="#MicrosoftYaHei-30"/>
       <use xlink:href="#MicrosoftYaHei-2e" transform="translate(58.642578 0)"/>
       <use xlink:href="#MicrosoftYaHei-30" transform="translate(82.714844 0)"/>
      </g>
     </g>
    </g>
    <g id="ytick_29">
     <g id="line2d_108">
      <path d="M 472.395938 515.8569 
L 848.525937 515.8569 
" clip-path="url(#p17213d585f)" style="fill: none; stroke: #dddddd; stroke-opacity: 0.5; stroke-width: 0.5; stroke-linecap: square"/>
     </g>
     <g id="line2d_109">
      <g>
       <use xlink:href="#med5eab2dde" x="472.395938" y="515.8569" style="fill: #333333; stroke: #333333; stroke-width: 0.8"/>
      </g>
     </g>
     <g id="text_63">
      <!-- 0.2 -->
      <g style="fill: #333333" transform="translate(452.173594 519.454087) scale(0.09 -0.09)">
       <use xlink:href="#MicrosoftYaHei-30"/>
       <use xlink:href="#MicrosoftYaHei-2e" transform="translate(58.642578 0)"/>
       <use xlink:href="#MicrosoftYaHei-32" transform="translate(82.714844 0)"/>
      </g>
     </g>
    </g>
    <g id="ytick_30">
     <g id="line2d_110">
      <path d="M 472.395938 481.734548 
L 848.525937 481.734548 
" clip-path="url(#p17213d585f)" style="fill: none; stroke: #dddddd; stroke-opacity: 0.5; stroke-width: 0.5; stroke-linecap: square"/>
     </g>
     <g id="line2d_111">
      <g>
       <use xlink:href="#med5eab2dde" x="472.395938" y="481.734548" style="fill: #333333; stroke: #333333; stroke-width: 0.8"/>
      </g>
     </g>
     <g id="text_64">
      <!-- 0.4 -->
      <g style="fill: #333333" transform="translate(452.173594 485.331736) scale(0.09 -0.09)">
       <use xlink:href="#MicrosoftYaHei-30"/>
       <use xlink:href="#MicrosoftYaHei-2e" transform="translate(58.642578 0)"/>
       <use xlink:href="#MicrosoftYaHei-34" transform="translate(82.714844 0)"/>
      </g>
     </g>
    </g>
    <g id="ytick_31">
     <g id="line2d_112">
      <path d="M 472.395938 447.612197 
L 848.525937 447.612197 
" clip-path="url(#p17213d585f)" style="fill: none; stroke: #dddddd; stroke-opacity: 0.5; stroke-width: 0.5; stroke-linecap: square"/>
     </g>
     <g id="line2d_113">
      <g>
       <use xlink:href="#med5eab2dde" x="472.395938" y="447.612197" style="fill: #333333; stroke: #333333; stroke-width: 0.8"/>
      </g>
     </g>
     <g id="text_65">
      <!-- 0.6 -->
      <g style="fill: #333333" transform="translate(452.173594 451.209384) scale(0.09 -0.09)">
       <use xlink:href="#MicrosoftYaHei-30"/>
       <use xlink:href="#MicrosoftYaHei-2e" transform="translate(58.642578 0)"/>
       <use xlink:href="#MicrosoftYaHei-36" transform="translate(82.714844 0)"/>
      </g>
     </g>
    </g>
    <g id="ytick_32">
     <g id="line2d_114">
      <path d="M 472.395938 413.489845 
L 848.525937 413.489845 
" clip-path="url(#p17213d585f)" style="fill: none; stroke: #dddddd; stroke-opacity: 0.5; stroke-width: 0.5; stroke-linecap: square"/>
     </g>
     <g id="line2d_115">
      <g>
       <use xlink:href="#med5eab2dde" x="472.395938" y="413.489845" style="fill: #333333; stroke: #333333; stroke-width: 0.8"/>
      </g>
     </g>
     <g id="text_66">
      <!-- 0.8 -->
      <g style="fill: #333333" transform="translate(452.173594 417.087033) scale(0.09 -0.09)">
       <use xlink:href="#MicrosoftYaHei-30"/>
       <use xlink:href="#MicrosoftYaHei-2e" transform="translate(58.642578 0)"/>
       <use xlink:href="#MicrosoftYaHei-38" transform="translate(82.714844 0)"/>
      </g>
     </g>
    </g>
    <g id="text_67">
     <!-- Y -->
     <g style="fill: #333333" transform="translate(441.79375 533.284531) rotate(-90) scale(0.1 -0.1)">
      <use xlink:href="#MicrosoftYaHei-59"/>
     </g>
    </g>
   </g>
   <g id="line2d_116">
    <path d="M 489.492756 549.979251 
L 492.946658 532.947936 
L 496.400561 516.430835 
L 499.854464 500.586021 
L 503.308366 485.561554 
L 506.762269 471.49417 
L 510.216172 458.508117 
L 513.670074 446.714134 
L 517.123977 436.208596 
L 520.57788 427.072816 
L 524.031782 419.372521 
L 527.485685 413.157491 
L 530.939588 408.46137 
L 534.39349 405.301649 
L 537.847393 403.679807 
L 541.301296 403.581619 
L 544.755198 404.977615 
L 548.209101 407.823681 
L 551.663004 412.061808 
L 555.116906 417.620956 
L 558.570809 424.418043 
L 562.024712 432.359028 
L 565.478614 441.340092 
L 568.932517 451.248891 
L 572.38642 461.965871 
L 575.840322 473.365632 
L 579.294225 485.318322 
L 582.748128 497.691049 
L 586.20203 510.3493 
L 589.655933 523.158339 
L 593.109836 535.98459 
L 596.563738 548.696971 
L 600.017641 561.168182 
L 603.471544 573.27593 
L 606.925446 584.90407 
L 610.379349 595.943669 
L 613.833252 606.293973 
L 617.287154 615.863265 
L 620.741057 624.569628 
L 624.19496 632.341575 
L 627.648862 639.118577 
L 631.102765 644.851453 
L 634.556668 649.502651 
L 638.01057 653.046394 
L 641.464473 655.468709 
L 644.918376 656.767334 
L 648.372278 656.951506 
L 651.826181 656.041634 
L 655.280084 654.068874 
L 658.733986 651.074591 
L 662.187889 647.109735 
L 665.641791 642.23413 
L 669.095694 636.515687 
L 672.549597 630.029551 
L 676.003499 622.857187 
L 679.457402 615.085426 
L 682.911305 606.805473 
L 686.365207 598.111889 
L 689.81911 589.101558 
L 693.273013 579.872658 
L 696.726915 570.523628 
L 700.180818 561.152165 
L 703.634721 551.854241 
L 707.088623 542.723157 
L 710.542526 533.848649 
L 713.996429 525.316044 
L 717.450331 517.205475 
L 720.904234 509.591173 
L 724.358137 502.540823 
L 727.812039 496.115012 
L 731.265942 490.366747 
L 734.719845 485.341069 
L 738.173747 481.074752 
L 741.62765 477.596097 
L 745.081553 474.924809 
L 748.535455 473.071968 
L 751.989358 472.040092 
L 755.443261 471.823281 
L 758.897163 472.407444 
L 762.351066 473.770606 
L 765.804969 475.883295 
L 769.258871 478.708986 
L 772.712774 482.204617 
L 776.166677 486.321158 
L 779.620579 491.004234 
L 783.074482 496.194779 
L 786.528385 501.829737 
L 789.982287 507.842784 
L 793.43619 514.165067 
L 796.890093 520.725961 
L 800.343995 527.453817 
L 803.797898 534.27672 
L 807.251801 541.123225 
L 810.705703 547.923073 
L 814.159606 554.607887 
L 817.613509 561.11183 
L 821.067411 567.372225 
L 824.521314 573.330131 
L 827.975217 578.93087 
L 831.429119 584.124495 
" clip-path="url(#p17213d585f)" style="fill: none; stroke: #1f77b4; stroke-width: 3; stroke-linecap: square"/>
   </g>
   <g id="patch_12">
    <path d="M 472.395938 669.62 
L 472.395938 390.913125 
" style="fill: none; stroke: #333333; stroke-linejoin: miter; stroke-linecap: square"/>
   </g>
   <g id="patch_13">
    <path d="M 472.395937 669.62 
L 848.525937 669.62 
" style="fill: none; stroke: #333333; stroke-linejoin: miter; stroke-linecap: square"/>
   </g>
   <g id="text_68">
    <!-- 主题: presentation -->
    <g transform="translate(579.6325 384.913125) scale(0.18 -0.18)">
     <defs>
      <path id="MicrosoftYaHei-Bold-70" d="M 1469 416 
L 1469 -1591 
L 459 -1591 
L 459 3456 
L 1469 3456 
L 1469 2928 
L 1481 2928 
Q 1878 3541 2603 3541 
Q 3263 3541 3634 3080 
Q 4006 2619 4006 1825 
Q 4006 959 3575 437 
Q 3144 -84 2444 -84 
Q 1809 -84 1481 416 
L 1469 416 
z
M 1453 1528 
Q 1453 1159 1653 925 
Q 1853 691 2172 691 
Q 2550 691 2761 984 
Q 2972 1278 2972 1816 
Q 2972 2766 2231 2766 
Q 1888 2766 1670 2503 
Q 1453 2241 1453 1828 
L 1453 1528 
z
" transform="scale(0.015625)"/>
      <path id="MicrosoftYaHei-Bold-73" d="M 369 928 
Q 888 613 1384 613 
Q 2009 613 2009 947 
Q 2009 1184 1494 1344 
Q 850 1544 609 1789 
Q 369 2034 369 2453 
Q 369 2963 781 3252 
Q 1194 3541 1863 3541 
Q 2338 3541 2778 3400 
L 2778 2606 
Q 2375 2844 1891 2844 
Q 1650 2844 1503 2758 
Q 1356 2672 1356 2531 
Q 1356 2294 1794 2147 
Q 2263 1991 2498 1862 
Q 2734 1734 2857 1525 
Q 2981 1316 2981 1041 
Q 2981 506 2553 211 
Q 2125 -84 1409 -84 
Q 847 -84 369 94 
L 369 928 
z
" transform="scale(0.015625)"/>
      <path id="MicrosoftYaHei-Bold-74" d="M 2494 41 
Q 2266 -84 1803 -84 
Q 703 -84 703 1072 
L 703 2703 
L 134 2703 
L 134 3456 
L 703 3456 
L 703 4216 
L 1706 4503 
L 1706 3456 
L 2494 3456 
L 2494 2703 
L 1706 2703 
L 1706 1247 
Q 1706 694 2144 694 
Q 2313 694 2494 794 
L 2494 41 
z
" transform="scale(0.015625)"/>
      <path id="MicrosoftYaHei-Bold-6f" d="M 253 1713 
Q 253 2566 764 3053 
Q 1275 3541 2138 3541 
Q 2972 3541 3462 3061 
Q 3953 2581 3953 1772 
Q 3953 922 3450 419 
Q 2947 -84 2088 -84 
Q 1244 -84 748 398 
Q 253 881 253 1713 
z
M 1275 1725 
Q 1275 691 2119 691 
Q 2928 691 2928 1753 
Q 2928 2766 2113 2766 
Q 1716 2766 1495 2494 
Q 1275 2222 1275 1725 
z
" transform="scale(0.015625)"/>
     </defs>
     <use xlink:href="#MicrosoftYaHei-Bold-4e3b"/>
     <use xlink:href="#MicrosoftYaHei-Bold-9898" transform="translate(100 0)"/>
     <use xlink:href="#MicrosoftYaHei-Bold-3a" transform="translate(200 0)"/>
     <use xlink:href="#MicrosoftYaHei-Bold-20" transform="translate(228.564453 0)"/>
     <use xlink:href="#MicrosoftYaHei-Bold-70" transform="translate(258.349609 0)"/>
     <use xlink:href="#MicrosoftYaHei-Bold-72" transform="translate(324.951172 0)"/>
     <use xlink:href="#MicrosoftYaHei-Bold-65" transform="translate(366.833984 0)"/>
     <use xlink:href="#MicrosoftYaHei-Bold-73" transform="translate(425.037109 0)"/>
     <use xlink:href="#MicrosoftYaHei-Bold-65" transform="translate(474.402344 0)"/>
     <use xlink:href="#MicrosoftYaHei-Bold-6e" transform="translate(532.605469 0)"/>
     <use xlink:href="#MicrosoftYaHei-Bold-74" transform="translate(597.400391 0)"/>
     <use xlink:href="#MicrosoftYaHei-Bold-61" transform="translate(638.806641 0)"/>
     <use xlink:href="#MicrosoftYaHei-Bold-74" transform="translate(696.570312 0)"/>
     <use xlink:href="#MicrosoftYaHei-Bold-69" transform="translate(737.976562 0)"/>
     <use xlink:href="#MicrosoftYaHei-Bold-6f" transform="translate(767.566406 0)"/>
     <use xlink:href="#MicrosoftYaHei-Bold-6e" transform="translate(833.289062 0)"/>
    </g>
   </g>
  </g>
  <g id="text_69">
   <!-- 不同主题的比较 -->
   <g transform="translate(371.325938 19.99) scale(0.16 -0.16)">
    <defs>
     <path id="MicrosoftYaHei-4e0d" d="M 225 4772 
L 6181 4772 
L 6181 4284 
L 3881 4284 
Q 3581 3766 3081 3053 
L 3444 3053 
L 3444 -866 
L 2906 -866 
L 2906 2859 
Q 1838 1541 388 609 
Q 231 834 38 1059 
Q 2006 2291 3213 4284 
L 225 4284 
L 225 4772 
z
M 4069 2859 
Q 5238 2147 6325 1409 
L 5969 916 
Q 4681 1872 3763 2434 
L 4069 2859 
z
" transform="scale(0.015625)"/>
     <path id="MicrosoftYaHei-540c" d="M 1013 -772 
L 531 -772 
L 531 4959 
L 5856 4959 
L 5856 -47 
Q 5856 -741 5125 -741 
Q 4669 -741 4088 -716 
Q 4056 -497 4000 -216 
Q 4619 -272 5025 -272 
Q 5375 -272 5375 78 
L 5375 4497 
L 1013 4497 
L 1013 -772 
z
M 1875 2566 
L 4506 2566 
L 4506 597 
L 2338 597 
L 2338 272 
L 1875 272 
L 1875 2566 
z
M 4044 2116 
L 2338 2116 
L 2338 1047 
L 4044 1047 
L 4044 2116 
z
M 1363 3734 
L 5025 3734 
L 5025 3284 
L 1363 3284 
L 1363 3734 
z
" transform="scale(0.015625)"/>
     <path id="MicrosoftYaHei-4e3b" d="M 150 9 
L 2931 9 
L 2931 1809 
L 644 1809 
L 644 2284 
L 2931 2284 
L 2931 3709 
L 400 3709 
L 400 4184 
L 5975 4184 
L 5975 3709 
L 3469 3709 
L 3469 2284 
L 5756 2284 
L 5756 1809 
L 3469 1809 
L 3469 9 
L 6250 9 
L 6250 -453 
L 150 -453 
L 150 9 
z
M 2694 5109 
L 3156 5347 
Q 3538 4778 3706 4466 
L 3213 4203 
Q 2875 4828 2694 5109 
z
" transform="scale(0.015625)"/>
     <path id="MicrosoftYaHei-9898" d="M 88 -291 
Q 544 328 581 1622 
L 1013 1622 
Q 994 1234 950 884 
Q 1181 466 1538 209 
L 1538 1916 
L 138 1916 
L 138 2322 
L 3025 2322 
L 3025 1916 
L 1950 1916 
L 1950 1253 
L 2956 1253 
L 2956 847 
L 1950 847 
L 1950 -16 
Q 2369 -184 2906 -197 
Q 4006 -266 6300 -166 
Q 6231 -372 6125 -659 
Q 3888 -716 2906 -634 
Q 1513 -597 850 347 
Q 688 -359 363 -878 
Q 238 -584 88 -291 
z
M 525 5041 
L 2725 5041 
L 2725 2634 
L 2313 2634 
L 2313 2828 
L 938 2828 
L 938 2634 
L 525 2634 
L 525 5041 
z
M 3263 3878 
L 4169 3878 
Q 4231 4247 4275 4591 
L 3031 4591 
L 3031 4997 
L 6169 4997 
L 6169 4591 
L 4738 4591 
Q 4681 4222 4613 3878 
L 5838 3878 
L 5838 1228 
L 5425 1228 
L 5425 3472 
L 3675 3472 
L 3675 1228 
L 3263 1228 
L 3263 3878 
z
M 4344 3203 
L 4756 3203 
L 4756 2422 
Q 4756 1809 4631 1372 
Q 5594 678 6050 284 
L 5713 -47 
Q 5213 422 4481 972 
Q 4444 903 4406 841 
Q 4031 241 3131 -109 
Q 2988 72 2794 259 
Q 3669 547 4006 1028 
Q 4344 1503 4344 2441 
L 4344 3203 
z
M 938 3203 
L 2313 3203 
L 2313 3753 
L 938 3753 
L 938 3203 
z
M 2313 4666 
L 938 4666 
L 938 4122 
L 2313 4122 
L 2313 4666 
z
" transform="scale(0.015625)"/>
     <path id="MicrosoftYaHei-7684" d="M 356 4284 
L 988 4284 
Q 1219 4853 1369 5322 
L 1894 5172 
Q 1697 4694 1513 4284 
L 2763 4284 
L 2763 -691 
L 2263 -691 
L 2263 -203 
L 856 -203 
L 856 -734 
L 356 -734 
L 356 4284 
z
M 2856 3003 
Q 3444 3934 3850 5322 
L 4375 5191 
Q 4216 4719 4050 4303 
L 6063 4303 
Q 5988 1091 5938 259 
Q 5894 -722 4906 -722 
Q 4338 -722 3750 -684 
Q 3713 -372 3650 -128 
L 3669 -128 
Q 4294 -216 4813 -216 
Q 5381 -216 5425 384 
Q 5494 1316 5525 3834 
L 3850 3834 
Q 3578 3231 3288 2772 
Q 3119 2891 2856 3003 
z
M 856 266 
L 2263 266 
L 2263 1847 
L 856 1847 
L 856 266 
z
M 2263 3816 
L 856 3816 
L 856 2297 
L 2263 2297 
L 2263 3816 
z
M 3406 2578 
L 3788 2859 
Q 4481 2041 4894 1441 
L 4431 1116 
Q 3988 1841 3406 2578 
z
" transform="scale(0.015625)"/>
     <path id="MicrosoftYaHei-6bd4" d="M 3225 5316 
L 3744 5316 
L 3744 2672 
Q 4959 3550 5744 4509 
L 6188 4178 
Q 5175 3063 3744 2056 
L 3744 247 
Q 3744 -166 4106 -166 
L 5175 -166 
Q 5588 -166 5650 203 
Q 5725 678 5763 1247 
Q 6025 1147 6300 1066 
Q 6244 484 6150 22 
Q 6019 -622 5319 -622 
L 3944 -622 
Q 3225 -622 3225 159 
L 3225 5316 
z
M 1063 5153 
L 1063 3278 
L 2825 3278 
L 2825 2809 
L 1063 2809 
L 1063 153 
Q 1713 428 2763 928 
Q 2763 634 2788 366 
Q 1869 -3 1231 -328 
Q 956 -472 725 -672 
L 344 -184 
Q 544 -34 544 272 
L 544 5153 
L 1063 5153 
z
" transform="scale(0.015625)"/>
     <path id="MicrosoftYaHei-8f83" d="M 694 2234 
L 1438 2234 
L 1438 3603 
L 1875 3603 
L 1875 2234 
L 2513 2234 
L 2513 1828 
L 1875 1828 
L 1875 981 
Q 2288 1031 2688 1084 
Q 2656 847 2644 653 
Q 2294 613 1875 559 
L 1875 -841 
L 1438 -841 
L 1438 506 
Q 844 428 131 334 
L 81 791 
Q 778 856 1438 928 
L 1438 1828 
L 238 1828 
L 238 2222 
Q 575 3156 816 3928 
L 156 3928 
L 156 4347 
L 941 4347 
Q 1103 4891 1206 5347 
L 1688 5247 
Q 1559 4831 1403 4347 
L 2494 4347 
L 2494 3928 
L 1269 3928 
Q 1016 3156 694 2234 
z
M 5525 2341 
Q 5200 1303 4694 644 
Q 5306 69 6331 -247 
Q 6094 -522 5944 -728 
Q 4972 -334 4353 256 
Q 3641 -450 2563 -828 
Q 2481 -666 2263 -384 
Q 3341 -22 4025 619 
Q 3531 1247 3219 2203 
L 3644 2397 
Q 3909 1572 4363 1003 
Q 4813 1622 5063 2497 
L 5525 2341 
z
M 2719 4366 
L 4316 4366 
Q 4109 4728 3806 5116 
L 4188 5359 
Q 4538 4966 4788 4578 
L 4459 4366 
L 6225 4366 
L 6225 3928 
L 2719 3928 
L 2719 4366 
z
M 4663 3422 
L 5006 3722 
Q 5669 3103 6256 2434 
L 5881 2097 
Q 5344 2747 4663 3422 
z
M 3600 3741 
L 4013 3484 
Q 3456 2628 2925 1997 
Q 2706 2191 2544 2297 
Q 3106 2922 3600 3741 
z
" transform="scale(0.015625)"/>
    </defs>
    <use xlink:href="#MicrosoftYaHei-4e0d"/>
    <use xlink:href="#MicrosoftYaHei-540c" transform="translate(100 0)"/>
    <use xlink:href="#MicrosoftYaHei-4e3b" transform="translate(200 0)"/>
    <use xlink:href="#MicrosoftYaHei-9898" transform="translate(300 0)"/>
    <use xlink:href="#MicrosoftYaHei-7684" transform="translate(400 0)"/>
    <use xlink:href="#MicrosoftYaHei-6bd4" transform="translate(500 0)"/>
    <use xlink:href="#MicrosoftYaHei-8f83" transform="translate(600 0)"/>
   </g>
  </g>
 </g>
 <defs>
  <clipPath id="p17ab9162ec">
   <rect x="45.795938" y="47.9625" width="376.13" height="278.706875"/>
  </clipPath>
  <clipPath id="pde8942e8d5">
   <rect x="472.395938" y="47.9625" width="376.13" height="278.706875"/>
  </clipPath>
  <clipPath id="pd3b16f2d3d">
   <rect x="45.795938" y="390.913125" width="376.13" height="278.706875"/>
  </clipPath>
  <clipPath id="p17213d585f">
   <rect x="472.395938" y="390.913125" width="376.13" height="278.706875"/>
  </clipPath>
 </defs>
</svg>
